<?xml version="1.0" encoding="UTF-8" standalone="no"?>
<svg
   version="1.1"
   width="3543.3074"
   height="3543.3069"
   id="svg228"
   viewBox="0 0 3543.3073 3543.3069"
   sodipodi:docname="9bd639ae44725f62c71f85173dc9f195.cdr"
   xmlns:inkscape="http://www.inkscape.org/namespaces/inkscape"
   xmlns:sodipodi="http://sodipodi.sourceforge.net/DTD/sodipodi-0.dtd"
   xmlns="http://www.w3.org/2000/svg"
   xmlns:svg="http://www.w3.org/2000/svg">
  <defs
     id="defs232" />
  <sodipodi:namedview
     id="namedview230"
     pagecolor="#ffffff"
     bordercolor="#666666"
     borderopacity="1.0"
     inkscape:pageshadow="2"
     inkscape:pageopacity="0.0"
     inkscape:pagecheckerboard="0" />
  <path
     d="m 587.5327,2741.9743 48.2292,-26.3955 c 0.5235,-0.3573 1.1485,-0.8029 1.6431,-1.1823 l 4.6562,-4.5263 c -13.0127,2.7364 -7.4491,-9.1962 -29.2502,-40.1402 -38.261,-54.301 -50.9391,-15.5603 -26.7587,50.2499 5.452,14.8311 5.7518,12.5182 1.4804,21.9944 z"
     style="fill:#c9a699;fill-rule:evenodd"
     id="path4" />
  <path
     d="m 660.0923,2702.7659 c 19.3923,-10.0618 37.4353,-5.5612 62.9003,-5.4176 l -10.4055,-13.3064 c -11.7146,-17.3245 -42.5042,-67.5301 -60.5984,-53.1299 -16.3965,15.855 11.1251,51.9329 8.1036,71.8539 z"
     style="fill:#c9a699;fill-rule:evenodd"
     id="path6" />
  <path
     d="m 529.3989,2785.1161 c 8.3966,-5.9885 11.7075,-12.1647 21.0084,-19.8731 3.8032,-3.1489 6.7166,-5.3108 12.3541,-8.9385 7.4882,-4.8172 7.6081,-2.7253 12.5625,-9.6603 -8.9715,1.418 -8.3907,-3.8634 -12.6095,-12.393 -3.4258,-6.9239 -6.7073,-12.7834 -11.1218,-19.8583 -6.1001,-9.7893 -21.1321,-28.771 -30.2985,-7.0271 -7.6749,20.1677 4.9927,56.091 8.1048,77.7503 z"
     style="fill:#c9a699;fill-rule:evenodd"
     id="path8" />
  <path
     d="m 745.0279,2697.5067 c 4.8421,4.4342 16.8556,7.3695 31.7498,13.5715 13.308,5.5465 21.8492,5.2077 33.708,9.3915 l -2.2643,-13.7852 c -10.0436,-3.6461 -9.7068,-8.5444 -17.2187,-18.956 -22.8782,-31.7174 -55.9228,-50.0804 -45.818,0.081 z"
     style="fill:#c9a699;fill-rule:evenodd"
     id="path10" />
  <path
     d="m 2870.2099,2721.2647 c 9.8975,7.5867 34.5251,16.9962 46.3459,21.4765 1.7365,-15.1131 29.2101,-75.6407 -0.6542,-77.5268 -17.3831,-1.0997 -41.4891,41.2295 -45.6917,56.0503 z"
     style="fill:#c9a699;fill-rule:evenodd"
     id="path12" />
  <path
     d="m 2769.4295,2702.3674 c 13.693,0.5363 25.1642,-2.2779 39.3818,-0.6508 12.2399,1.401 21.3385,5.3359 33.6176,8.4212 4.2508,-14.5105 21.3234,-45.4778 4.1001,-57.0235 -15.2035,-5.342 -24.1151,6.6647 -33.1805,16.3333 -9.9939,10.6599 -14.4829,16.8395 -21.658,28.8703 -9.5689,0.7954 -17.0003,-0.9159 -22.261,4.0495 z"
     style="fill:#c9a699;fill-rule:evenodd"
     id="path14" />
  <path
     d="m 2933.2938,2749.1558 47.2865,31.2957 c 0.3829,0.3314 1.0853,0.9642 1.6581,1.4041 1.5195,-19.28 15.0678,-58.0992 -2.1796,-70.7657 -20.5336,-8.7256 -34.4135,23.2843 -39.6622,37.3428 z"
     style="fill:#c9a699;fill-rule:evenodd"
     id="path16" />
  <path
     d="m 2689.8201,2735.2154 c 12.6807,-6.3311 22.0304,-15.647 37.4616,-23.4315 l 34.9282,-12.7918 c 10.0351,-3.1973 3.3708,1.4443 12.255,-5.0853 l -8.2353,-1.0178 c 3.5577,-62.8568 -59.1771,-9.9119 -76.4095,42.3264 z"
     style="fill:#c9a699;fill-rule:evenodd"
     id="path18" />
  <path
     d="m 806.3958,2705.1512 1.1736,11.277 c -11.527,-3.4223 -17.9214,-8.0016 -30.7904,-12.5353 -89.6283,-32.3858 -136.795,1.5041 -219.7616,41.8514 -32.9343,16.4974 -63.4226,50.4942 -76.2541,84.6886 -22.3643,59.6099 -1.4409,106.7272 22.915,161.317 11.0324,24.7262 20.8726,48.389 31.6511,72.8853 22.3002,50.6866 39.981,101.4694 72.1053,134.7421 32.8969,34.0742 81.5979,56.9997 149.4126,57.4913 273.7209,1.985 550.0589,2.2548 823.7558,0.086 -2.855,-11.0099 -20.1429,-44.1224 -26.3688,-57.3711 -26.2593,-55.9043 -53.0237,-118.9659 -71.6909,-178.6346 -31.3491,-100.2083 -40.8231,-177.7423 26.4062,-256.7484 -8.0946,-11.2877 -20.8459,-23.5212 -15.3257,-46.8153 13.802,-58.2233 100.1877,-26.1501 158.8385,-35.4154 9.6985,-4.7422 18.2529,-12.319 32.4023,-15.6319 18.2208,-4.2612 198.9612,-1.9102 230.7914,-1.9503 40.0799,-0.056 45.7311,-0.061 73.1238,18.3489 31.5816,0.9298 49.0592,-2.2789 64.3716,20.5023 16.5259,24.5872 3.7452,42.2976 -8.7576,60.9617 10.9897,17.5768 23.0193,26.0139 33.9956,51.4534 41.895,97.0958 -15.168,237.8571 -54.3149,327.5124 l -51.7726,113.8444 c 195.9137,2.2789 399.422,0.029 596.7791,0.029 64.8474,0 134.9692,2.5166 199.1937,-0.5718 61.0862,-2.9361 106.9055,-33.2567 134.1592,-64.6379 31.2047,-35.9257 74.9308,-146.2008 97.8004,-200.633 22.8214,-54.312 45.7338,-99.4335 23.062,-160.088 -10.1636,-27.1894 -23.324,-43.2808 -41.0582,-59.9412 -0.5721,-0.4381 -1.2752,-1.0713 -1.6575,-1.4026 -32.9877,-21.8301 -98.7307,-54.5257 -138.1529,-70.3152 -91.5237,-20.927 -102.1632,-3.3316 -176.7545,44.1437 -26.4544,-62.327 -88.936,-124.7073 -140.8877,-154.6192 -23.9736,-13.8017 -19.1324,-12.0117 -30.9053,-68.4316 -6.4506,-30.9084 -22.1772,-80.6385 -24.3452,-108.5439 92.5903,8.6802 137.375,-15.1589 181.1573,-63.7509 40.4595,-44.9025 59.3112,-125.9711 29.4431,-195.3058 -18.7448,-43.5131 -128.0241,-166.6415 -164.6929,-210.4032 -20.5144,-24.4803 -39.7938,-46.8046 -57.611,-70.0079 l -113.4763,-136.5561 c -10.5673,-12.7385 -17.36,-20.3367 -28.0235,-33.2621 -14.8739,-18.031 -14.7403,-13.5212 -21.7334,-42.0064 -30.1194,-122.7009 -25.9652,-84.8196 -7.421,-153.2913 38.8823,-143.5799 -49.9013,-407.8116 -49.9013,-356.4517 6.9023,1.7526 -1.1923,-4.6407 1.3339,2.1854 2.8016,7.5714 2.3819,14.5231 8.2764,27.0157 l 1.8338,7.8814 c -0.011,0.3179 -0.1229,1.0954 -0.1203,1.4507 0.035,4.6246 1.3019,8.2046 2.4674,15.7066 12.1847,78.2607 4.9161,146.0298 -23.7009,217.6034 -23.6127,59.0541 -86.6744,167.9934 -125.5593,211.0203 l -57.6324,69.8771 c -35.0141,43.1365 -121.2875,125.1695 -165.3478,160.9937 -3.7693,3.0644 -7.3888,6.3211 -11.0218,9.5458 -17.6968,15.0788 -16.435,11.9075 -31.0069,22.53 -21.9954,16.0326 -70.0361,52.4739 -94.9801,45.02 -21.835,-6.5241 -60.4901,-33.2727 -79.0985,-47.8038 l -46.8672,-37.1173 c -66.7374,-58.234 -133.023,-120.243 -187.4394,-190.0399 -42.7451,-54.8223 -88.7542,-114.2291 -120.0044,-175.8267 -4.9188,-9.6981 -8.0946,-17.7718 -13.6923,-27.4646 -6.4051,-11.0927 -7.854,-19.5378 -13.3983,-30.0694 -4.8546,-9.2306 -8.2443,-19.6553 -11.4949,-28.389 -30.7129,-82.5807 -30.5979,-163.481 -4.8707,-248.8135 6.0496,-20.0561 12.2996,-24.0983 4.7985,-26.2597 -31.6003,33.1926 -62.2464,151.2422 -66.9807,204.9504 -12.7219,144.2371 34.3378,201.6108 25.7701,236.8499 -31.6619,130.2296 -1.2698,85.8749 -91.2938,181.894 l -196.3547,214.5684 c -70.8034,80.2858 -130.6946,129.6151 -164.1876,246.572 -10.7064,37.3978 -15.5369,76.615 -15.0825,115.5783 51.2968,-20.5156 114.0003,-8.5867 153.2114,38.8966 27.2429,32.9922 36.9521,80.7747 27.6947,120.8628 0,17.5394 -0.3502,31.9369 -3.6463,46.4146 0.9517,20.4328 0.3368,38.5199 -17.6674,54.0262 -5.9827,7.0157 -13.1363,11.4026 -20.6615,13.5853 -31.2528,22.9228 -81.0953,75.6425 -94.1568,100.943 z"
     style="fill:#5d2a22;fill-rule:evenodd"
     id="path20" />
  <path
     d="m 2220.5897,1087.5679 c 20.1964,-27.7318 61.26,-60.2271 67.486,-123.1258 6.9263,-69.9732 -25.762,-121.3731 -62.3426,-150.1334 -41.1145,-32.327 -107.09,-47.315 -166.4118,-21.9583 -51.925,22.1961 -72.2282,58.9553 -103.6762,97.1626 0.016,5.2738 -0.1952,10.5103 -0.6122,15.6692 26.9703,9.9225 53.1948,23.0217 78.5451,38.4184 25.762,15.6452 27.5718,22.4071 53.1413,33.2139 53.6974,22.6957 100.8105,62.4152 133.8704,110.7534 z M 1544.1348,887.0871 c -33.0225,-37.3924 -44.7474,-69.2652 -100.8479,-94.376 -148.0467,-66.257 -296.3766,109.0434 -200.9287,246.8392 11.7115,16.9088 29.9964,35.0681 41.4753,51.9289 6.7072,-0.037 13.4945,0.1603 20.3567,0.6144 0.9357,-1.6297 1.8847,-3.238 2.8444,-4.817 29.1784,-47.9988 70.3088,-89.0915 121.2153,-113.5959 10.2305,-4.9239 48.1824,-43.0136 99.546,-64.7261 5.2931,-2.2362 9.6986,-4.0048 13.5988,-5.5757 0.5694,-5.4849 1.4783,-10.9244 2.7401,-16.2918 z"
     style="fill:#7e413c;fill-rule:evenodd"
     id="path22" />
  <path
     d="m 2504.9943,2520.5428 c -6.6027,-30.9084 -22.7003,-80.6385 -24.9194,-108.5439 94.7741,8.6802 140.6152,-15.1589 185.4302,-63.7509 41.4137,-44.9025 60.7101,-125.9711 30.1375,-195.3058 -15.7884,-35.8081 -94.3309,-125.5248 -142.569,-180.5662 H 911.6549 c -70.8481,77.892 -130.6442,127.5179 -164.3389,242.4684 -185.6026,633.1814 602.7446,-12.0198 257.7996,255.3351 382.7059,-229.0273 1448.1245,220.1601 1499.8787,50.3633 z"
     style="fill:#794538;fill-rule:evenodd"
     id="path24" />
  <path
     d="m 1339.7332,1015.152 c 9.816,-3.8868 10.4853,-5.8482 16.147,-12.6304 16.9369,-20.2984 88.7094,-73.7124 114.2444,-80.9646 -10.2472,-32.3051 -74.6334,-99.7354 -138.9232,-53.2332 -33.6478,24.3418 -43.5995,71.2418 -14.6276,114.2399 4.6125,6.8454 6.5179,9.057 12.0108,15.7879 4.1905,5.1341 9.4271,11.0727 11.1486,16.8004 z"
     style="fill:#5d2a22;fill-rule:evenodd"
     id="path26" />
  <path
     d="m 2032.9745,919.2491 3.1414,2.3501 c 28.9538,18.2496 83.0687,47.2313 108.7545,77.2315 7.1178,8.3098 4.1845,8.6743 15.8184,14.5496 l 26.6686,-29.1625 c 5.2728,-6.5924 15.517,-27.2764 17.142,-39.4699 2.4057,-18.0297 -0.6844,-31.1903 -8.0856,-46.3064 -8.1007,-16.5442 -12.1073,-20.1749 -25.6134,-30.0423 -36.0325,-26.3244 -81.8207,-20.6268 -113.3098,19.1896 -6.4275,8.129 -5.3392,8.6593 -12.2038,15.7277 -7.4796,7.7072 -7.2113,7.5716 -12.3123,15.9326 z"
     style="fill:#5d2a22;fill-rule:evenodd"
     id="path28" />
  <path
     d="m 1260.7042,1153.0617 c -26.0819,89.0011 -26.1981,173.3826 4.9388,259.5144 3.2946,9.1104 6.7299,19.9837 11.6534,29.6126 5.6205,10.9833 7.0874,19.792 13.5819,31.363 5.6755,10.1096 8.8937,18.5286 13.8815,28.6446 31.6778,64.2469 78.3221,126.2092 121.6533,183.3916 55.165,72.7979 122.3625,137.4754 190.0183,198.2152 l 47.5122,38.7135 c 18.8631,15.1567 58.0501,43.0534 80.1864,49.8602 25.2873,7.7748 73.9884,-30.2348 96.2866,-46.9564 14.7739,-11.0808 13.4933,-7.7717 31.4334,-23.5003 l 5.3698,-4.9024 c 1.2286,-1.103 4.4957,-3.9597 5.8038,-5.0533 44.6668,-37.3653 132.1271,-122.9283 167.6222,-167.9207 l 58.426,-72.8827 c 39.4193,-44.8761 103.3496,-158.5024 127.286,-220.097 29.0098,-74.6521 36.3783,-145.3382 24.0281,-226.9636 -70.5287,-466.51 -874.1011,-479.3537 -999.6817,-51.0387 z"
     style="fill:#6a352d;fill-rule:evenodd"
     id="path30" />
  <path
     d="m 1348.1024,1107.7748 c -21.3762,76.4292 -21.4714,148.8913 4.0478,222.8566 2.7002,7.8235 5.5156,17.1609 9.5508,25.4296 4.6064,9.4319 5.8087,16.9963 11.1315,26.9328 4.6514,8.6817 7.289,15.9114 11.3769,24.5985 25.9625,55.1717 64.191,108.3815 99.7044,157.4866 45.2121,62.5148 100.2856,118.0562 155.7348,170.2162 l 38.94,33.245 c 15.4598,13.0157 47.5766,36.9718 65.719,42.8172 20.7249,6.6765 60.6393,-25.964 78.9144,-40.3236 12.1083,-9.5156 11.0588,-6.6739 25.7621,-20.1807 l 4.401,-4.21 c 1.0069,-0.9472 3.6846,-3.4003 4.7567,-4.3394 36.6079,-32.0873 108.2884,-105.5641 137.3794,-144.2011 l 47.8847,-62.5876 c 32.3072,-38.5371 84.7031,-136.1131 104.3209,-189.0072 23.7757,-64.107 29.8149,-124.8083 19.6929,-194.9037 -57.8038,-400.613 -716.3942,-411.6425 -819.3173,-43.8292 z"
     style="fill:#794538;fill-rule:evenodd"
     id="path32" />
  <path
     d="m 2317.0791,2335.4503 c 217.7169,188.8268 531.1291,419.0643 720.4624,12.3951 34.9538,-75.0704 -78.5809,-152.4664 -196.6183,-90.7509 -104.8554,60.2335 -126.7299,-1.582 -132.2161,-58.3866 -5.4862,-56.8046 -157.9755,-310.3957 -278.1291,-193.478 -120.1528,116.9155 -108.3832,270.9555 -113.4989,330.2204 z"
     style="fill:#794538;fill-rule:evenodd"
     id="path34" />
  <path
     d="m 806.3957,2705.1513 1.1735,11.2763 c -11.5272,-3.4221 -17.9212,-8.0006 -30.7905,-12.5348 -38.6524,-13.9664 -69.4059,-15.6006 -98.542,-9.7132 267.0773,74.8276 469.5002,292.1926 525.1578,564.2903 125.9528,-0.038 251.8582,-0.522 377.2087,-1.5158 -2.8544,-11.0102 -20.1422,-44.1219 -26.369,-57.3711 -26.2595,-55.904 -53.0236,-118.9658 -71.6906,-178.635 -31.3498,-100.2078 -40.8231,-177.7417 26.406,-256.7486 -8.0942,-11.2867 -20.8466,-23.5199 -15.3257,-46.8149 13.8016,-58.2229 100.1875,-26.1493 158.8386,-35.4159 9.6982,-4.7412 18.2526,-12.3189 32.4019,-15.6316 18.2216,-4.2606 198.9618,-1.9092 230.7911,-1.9491 40.0803,-0.056 45.7315,-0.062 73.1245,18.3482 31.5821,0.9303 49.0594,-2.2789 64.3718,20.5015 16.5257,24.5876 3.7452,42.2985 -8.7572,60.9618 10.9886,17.5778 23.0189,26.0147 33.9942,51.4541 41.8959,97.0964 -15.1674,237.8576 -54.314,327.5123 l -51.7732,113.8445 c 86.7292,1.0086 174.947,1.1298 263.4608,0.9524 57.0411,-197.5571 195.3779,-368.2255 390.1343,-461.9943 87.9781,-42.3577 178.747,-64.6856 272.8365,-71.163 -20.4619,-9.9764 -40.4991,-19.0256 -56.3057,-25.3551 -91.5236,-20.9274 -102.163,-3.3319 -176.7539,44.1426 -26.4548,-62.3267 -88.937,-124.7067 -140.8878,-154.6182 -23.9733,-13.8023 -19.1331,-12.0114 -30.9059,-68.4315 -3.3309,-15.9629 -9.1359,-36.948 -14.2706,-57.3519 H 945.8896 c -0.2352,9.2074 -1.351,18.2803 -3.3619,26.9908 0,17.5393 -0.3507,31.9375 -3.6461,46.4141 0.9515,20.4335 0.3374,38.52 -17.6682,54.0259 -5.9826,7.0172 -13.1356,11.4035 -20.6601,13.5863 -31.2537,22.9224 -81.0959,75.6425 -94.1576,100.9429 z"
     style="fill:#007d61;fill-rule:evenodd"
     id="path36" />
  <path
     d="m 1207.9251,1659.2618 c 179.0863,233.2853 825.9127,298.5739 1077.1004,-53.1778 174.0789,112.317 271.1692,249.4093 304.2707,389.1153 0,0 -202.744,89.8353 -187.2177,205.6753 15.5263,115.84 90.2075,144.3491 91.7201,260.8826 21.9769,30.6503 39.5388,11.7831 30.8419,65.0625 -27.9794,121.1715 -1590.8138,107.402 -1605.3424,5.4255 -5.0607,-35.5196 -15.0141,-78.6745 44.2767,-132.4416 59.2909,-53.7645 117.1705,-209.6809 117.1705,-209.6809 0,0 -112.654,-182.3173 -209.5014,-176.5083 -11.0472,0.663 148.8286,-304.2076 336.6812,-354.3526 z"
     style="fill:#dcc096;fill-rule:evenodd"
     id="path38" />
  <path
     d="m 3024.7407,2263.6215 167.5794,-69.8793 c 26.3128,-10.9732 48.4586,-73.5025 -31.6073,-50.5461 -34.1732,8.885 -145.1865,50.6422 -259.3723,94.8544 l 7.6414,-2.0823 c 8.5085,-0.4348 15.188,-4.2783 24.398,-0.911 13.3428,4.8759 3.4108,8.1589 21.3127,8.1589 12.8634,0 25.7964,2.9578 37.109,9.1483 3.2761,-0.6359 7.0658,-0.5827 11.3585,0.3934 l 10.5861,4.3626 c 4.7514,1.0219 8.4034,3.394 10.9945,6.5011 z"
     style="fill:#94a499;fill-rule:evenodd"
     id="path40" />
  <g
     id="Layer1000"
     transform="translate(0.5715,1.0001)">
    <path
       d="m 2404.4396,2101.2716 c 0.2433,-4.0101 0.5213,-8.0176 0.8501,-12.0224 0.8875,-18.9367 14.1708,-104.6246 14.096,-105.0787 -14.9087,12.4178 -31.7795,81.1674 -34.3966,103.4116 -0.3421,4.149 -0.6282,8.2981 -0.8821,12.4525 -0.786,26.2971 0.5507,53.914 0.048,80.8041 16.2132,-3.3315 1.5451,-15.6906 1.3232,-15.7039 -1.6199,0.4595 0.2273,12.7143 -1.2858,15.7066 20.4342,-13.206 18.0765,-56.102 20.2471,-79.5698 z"
       style="fill:#c1a67a;fill-rule:evenodd"
       id="path42" />
  </g>
  <path
     d="m 2419.9786,1985.1786 c -32.8942,88.2072 -21.2229,121.3437 -31.1219,197.1972 0.7753,-5.9444 -1.2002,-10.5102 -2.8282,-16.2356"
     style="fill:none"
     id="path45" />
  <g
     id="Layer1001"
     transform="translate(0.5715,1.0001)">
    <path
       d="m 2440.0899,2084.4642 c 0.7004,-1.9182 1.4516,-3.8177 2.2429,-5.7013 1.7777,-4.8169 3.256,-9.6126 5.1353,-14.5177 1.6199,-4.0529 12.6872,-26.2917 11.5323,-29.1905 -6.6644,-4.9185 -23.4229,16.7192 -26.5345,21.0473 -1.2378,1.1301 -7.8968,12.351 -8.918,14.7849 -0.9142,2.1774 -1.7803,4.3762 -2.593,6.5937 -0.9784,3.0403 -1.6681,7.0798 -2.0584,10.2297 0.5213,-1.5255 1.366,-2.6823 2.7508,-3.5292 -2.3151,1.822 -3.4833,3.6254 -4.5927,6.3051 -0.4437,0.585 -1.2938,4.8276 -1.4916,5.7894 -0.6282,3.0751 -0.8261,6.8902 -0.8127,10.0481 0.3101,12.6102 15.847,-1.5362 4.6782,-9.0435 -7.7391,5.2177 -1.0747,29.4549 7.3594,11.6617 0.2058,0.048 3.3095,-7.5287 3.5902,-8.2287 0.4571,-1.1434 1.1013,-1.8835 1.7429,-2.8479 0.6309,-0.708 0.409,0.091 -0.5587,0.9297 2.5663,-1.7099 4.0125,-3.6762 4.9268,-6.615 0.035,-0.032 3.3014,-6.8982 3.6008,-7.7158 z"
       style="fill:#c1a67a;fill-rule:evenodd"
       id="path47" />
  </g>
  <path
     d="m 2459.5853,2036.0735 c -13.4571,10.2271 -27.922,40.1362 -31.6057,56.0673 -6.6216,1.3679 -8.001,38.8138 -8.001,6.1395"
     style="fill:none"
     id="path50" />
  <g
     id="Layer1002"
     transform="translate(0.5715,1.0001)">
    <path
       d="m 1073.9243,2134.4772 c -0.7833,-1.9877 -1.5852,-3.9647 -2.4139,-5.931 -3.6998,-7.3417 -21.132,-34.7956 -30.4429,-30.9164 -1.4756,3.6869 9.6397,32.8186 11.6687,38.8138 0.7646,1.8167 1.5077,3.6468 2.2295,5.4822 0.4651,1.1809 4.1836,8.413 4.5659,8.8672 18.8623,42.4338 19.2018,26.0593 18.3544,25.9898 -0.6335,0.077 7.8433,3.2247 -1.3767,-32.0357 -0.6523,-3.043 -1.5558,-7.3471 -2.585,-10.2699 z"
       style="fill:#c1a67a;fill-rule:evenodd"
       id="path52" />
  </g>
  <path
     d="m 1041.6551,2098.6139 c 22.8,22.0732 36.781,85.2818 36.781,79.169"
     style="fill:none"
     id="path55" />
  <g
     id="Layer1003"
     transform="translate(0.5715,1.0001)">
    <path
       d="m 1090.5686,2117.6951 c -0.4759,-3.5052 -0.933,-7.013 -1.3821,-10.5209 -1.4676,-8.8138 -7.3969,-55.6666 -16.4992,-55.9658 -9.4847,0.9992 -4.4269,50.2351 -3.7078,58.5359 0.4544,3.5667 0.9223,7.1306 1.4061,10.692 9.5702,53.4544 28.5048,25.8909 16.4885,15.5971 -11.4387,9.7675 7.9182,26.8073 3.6945,-18.3383 z"
       style="fill:#c1a67a;fill-rule:evenodd"
       id="path57" />
  </g>
  <path
     d="m 1073.2802,2052.2085 c 0,4.0476 14.1441,134.7207 14.1441,84.825"
     style="fill:none"
     id="path60" />
  <g
     id="Layer1004"
     transform="translate(0.5715,1.0001)">
    <path
       d="m 1170.9253,1702.1387 c 0.7655,-0.4077 1.5369,-0.8018 2.3159,-1.1824 3.0504,-1.9648 16.3869,-9.9592 17.1659,-12.1906 -2.1805,-5.9639 -18.8226,-2.8225 -23.6398,-1.0316 -0.926,0.452 -1.8423,0.9196 -2.7528,1.4026 -1.7069,1.0664 -4.0865,3.3036 -5.4861,4.739 -1.5368,1.3196 -5.5635,4.7662 -5.9172,6.8333 -0.1005,0.1739 0.052,0.1604 0.056,0.1701 0.4814,-0.05 0.6302,-0.1063 1.1754,-0.068 0.2319,-0.027 0.6476,0.1527 0.8679,0.2048 0.4388,0.1024 0.7539,0.4985 1.069,0.7071 0.3461,0.2299 0.5181,0.8404 0.6998,1.1341 0.1237,0.2028 0.1276,0.7206 0.1566,0.9582 0.041,0.3458 -0.1431,0.8887 -0.3654,1.1766 -0.9066,-0.3768 0.348,-2.8265 -0.6302,-3.9335 -0.7983,-0.6723 -4.0247,0.6337 -4.6123,1.2171 -0.4002,0.4 -0.404,1.1863 -0.5162,1.6171 -0.064,0.2415 0.1276,0.7805 0.1663,1.0162 0.075,0.4637 0.52,0.8443 0.723,1.1727 0.2068,0.3361 0.8293,0.5487 1.1076,0.7322 0.2165,0.143 0.6979,0.1546 0.9279,0.2164 0.5374,0.1487 1.1618,-0.1411 1.6238,-0.1758 0.095,-0.01 0.7907,-0.1952 0.7984,-0.1932 2.8339,0.033 6.3328,-1.5475 8.9367,-2.6024 0.317,-0.019 5.5866,-1.6325 6.1298,-1.9203 z"
       style="fill:#c1a67a;fill-rule:evenodd"
       id="path62" />
  </g>
  <path
     d="m 1190.9786,1689.7813 c -21.1578,0 -43.8968,23.0868 -34.7783,12.2679"
     style="fill:none"
     id="path65" />
  <g
     id="Layer1005"
     transform="translate(0.5715,1.0001)">
    <path
       d="m 1304.3886,1826.8743 c 0.7592,-1.5121 1.5639,-3.0002 2.4247,-4.4536 2.339,-4.5311 3.4083,-7.2589 6.5253,-11.6992 4.1997,-5.6559 16.4939,-14.4376 16.8307,-16.0058 -3.28,-7.1147 -22.5835,0.7908 -27.7936,4.1143 -4.7584,3.4785 -9.8349,8.2314 -13.0909,13.2193 -1.1013,1.8595 -2.1305,3.7564 -3.0983,5.688 -0.2726,0.5423 -0.4945,1.4373 -0.7431,1.8728 -2.3899,4.1972 -10.3829,36.8581 -6.2153,40.1442 6.5976,5.1991 21.3672,-27.526 24.2944,-31.48 0.2352,-0.318 0.679,-1.0286 0.8661,-1.4 z"
       style="fill:#c1a67a;fill-rule:evenodd"
       id="path67" />
  </g>
  <path
     d="m 1330.7435,1795.7371 c -37.3959,4.0022 -40.7989,52.2014 -50.9252,65.0307"
     style="fill:none"
     id="path70" />
  <g
     id="Layer1006"
     transform="translate(0.5715,1.0001)">
    <path
       d="m 1344.5059,1837.8735 c 0.7806,-1.2503 1.62,-2.4633 2.5236,-3.6281 1.521,-2.2442 2.4727,-3.9273 4.2611,-6.1662 2.5636,-3.1525 4.8279,-5.2524 8.1774,-7.5768 2.1146,-2.1613 13.1417,-6.5028 13.1417,-8.8218 -1.1255,-4.7021 -14.3232,-4.0074 -17.7316,-3.5559 -5.8945,1.1969 -10.2038,2.9708 -15.2642,6.1902 -1.4141,0.5343 -7.4423,5.8536 -8.6854,7.4566 -1.3259,1.7098 -2.5609,3.4918 -3.7051,5.3272 -1.8017,3.1766 -3.2827,7.7345 -4.237,11.229 -8.6667,29.4897 1.7188,29.9385 1.5478,29.9225 -8.8832,0.5797 9.1264,-12.319 14.676,-23.0938 1.7724,-2.6583 3.5421,-4.7956 5.2957,-7.2829 z"
       style="fill:#c1a67a;fill-rule:evenodd"
       id="path72" />
  </g>
  <path
     d="m 1373.1812,1812.7021 c -46.5518,0 -48.0969,61.261 -48.0969,56.5482"
     style="fill:none"
     id="path75" />
  <g
     id="Layer1007"
     transform="translate(0.5715,1.0001)">
    <path
       d="m 2188.0677,1828.6381 c -1.1896,-2.3 -2.4433,-4.5811 -3.7693,-6.8348 -3.2079,-5.0348 -7.9769,-10.479 -12.3477,-14.8892 -5.309,-5.2036 -10.3026,-9.2403 -17.3359,-13.0111 -3.0261,-1.5341 -18.0845,-7.9469 -20.9609,-4.3554 -0.01,1.1922 11.1474,9.2636 13.2513,11.2176 4.3707,4.3954 7.6107,8.544 10.9014,13.4838 3.2881,4.3638 5.3198,9.7447 8.0171,14.3279 1.1896,2.0237 2.3177,4.0726 3.387,6.1406 2.045,3.6822 4.4162,7.3897 6.5173,11.1162 18.9105,40.8293 18.023,23.0281 11.7061,21.8548 -6.8568,7.3919 20.9556,23.6611 5.1915,-26.1721 0.3288,-0.074 -3.7934,-11.4054 -4.5579,-12.8783 z"
       style="fill:#c1a67a;fill-rule:evenodd"
       id="path77" />
  </g>
  <path
     d="m 2134.2308,1790.5308 c 49.634,11.3273 67.1731,107.0014 53.7535,78.1642"
     style="fill:none"
     id="path80" />
  <g
     id="Layer1008"
     transform="translate(0.5715,1.0001)">
    <path
       d="m 2131.8575,1801.5577 c -0.262,-0.3606 -0.9116,-1.1327 -1.0853,-1.456 -0.1684,-0.3099 -0.9463,-1.1942 -1.2137,-1.5175 -5.1246,-4.8704 -21.958,-12.8426 -27.0291,-6.6551 -0.099,2.3831 8.8805,15.2632 11.3506,19.65 0.1069,0.1283 0.6977,0.903 0.7538,0.9431 0.061,0.045 0.6015,0.8042 0.6871,0.9244 3.6997,3.5667 14.0665,15.3406 18.317,15.2284 5.5603,-1.9209 1.1522,-23.0403 -1.7804,-27.1173 z"
       style="fill:#c1a67a;fill-rule:evenodd"
       id="path82" />
  </g>
  <path
     d="m 2103.1089,1792.9078 c 18.3331,6.8982 25.067,19.26 31.1219,36.7593"
     style="fill:none"
     id="path85" />
  <g
     id="Layer1009"
     transform="translate(0.5715,1.0001)">
    <path
       d="m 2276.4129,1703.3585 c -2.1493,-1.635 -4.3895,-3.1472 -6.7286,-4.4964 -6.0629,-3.2059 -12.8021,-4.5364 -19.5948,-4.8998 -8.3699,0.3848 -34.1961,7.4967 -34.3725,15.9685 2.2348,1.6431 20.9368,-2.2682 32.3703,1.0259 5.4801,1.5816 6.9263,2.7117 11.4227,5.541 1.5879,0.9164 3.1143,1.9557 4.5712,3.0644 0.094,0.069 0.655,0.4462 0.7004,0.4622 1.6093,0.5049 13.9383,10.3794 16.3228,12.0224 2.9914,2.124 5.4641,3.6762 8.926,4.9773 3.7211,1.3225 6.6296,1.6938 10.5085,0.7694 -4.0179,-17.2081 -13.4571,-8.2874 -14.104,-5.2845 0,2.6289 11.5216,5.004 13.4169,5.2952 -1.3366,-15.1055 0.778,-8.5118 -3.8414,-12.4739 -0.4785,-0.2805 -4.0794,-4.3308 -4.4296,-4.8464 -4.0098,-5.9284 -9.2814,-11.3224 -14.2991,-16.3745 -0.2299,-0.2325 -0.6015,-0.5477 -0.8688,-0.7508 z"
       style="fill:#c1a67a;fill-rule:evenodd"
       id="path87" />
  </g>
  <path
     d="m 2216.2778,1710.9122 c 54.2774,-26.8822 65.211,25.0868 84.1455,22.6182 -4.4723,0 -8.9446,0 -13.4169,0"
     style="fill:none"
     id="path90" />
  <g
     id="Layer1010"
     transform="translate(0.5715,1.0001)">
    <path
       d="m 2292.3882,1665.4665 c -0.2968,-0.067 -1.8526,-0.358 -1.9889,-0.4275 -0.3101,-0.1496 -3.4886,-0.6278 -4.066,-0.716 -5.6539,-0.8683 -36.6769,1.6992 -36.6769,8.8512 1.7697,5.891 26.5052,9.5485 33.5866,11.2717 0.9731,0.1496 2.2161,0.4595 3.1384,0.553 0.393,0.037 1.0639,0.2218 1.4729,0.3153 5.0124,0.7828 7.985,0.8362 13.0294,2.6877 1.9354,0.8656 3.2961,1.6885 4.8038,3.2006 1.9755,1.2263 4.2879,7.2322 6.1886,7.3952 3.8681,-0.3287 4.0205,-8.8005 3.7398,-11.3973 -0.8367,-4.1998 -2.3444,-7.0745 -5.0631,-10.366 -4.8145,-5.3594 -11.1955,-9.3962 -18.1646,-11.3679 z"
       style="fill:#c1a67a;fill-rule:evenodd"
       id="path92" />
  </g>
  <path
     d="m 2250.2279,1674.1529 c 17.8172,0 64.7245,-3.5052 62.2411,25.4475"
     style="fill:none"
     id="path95" />
  <g
     id="Layer1011"
     transform="translate(0.5715,1.0001)">
    <path
       d="m 1187.0041,1724.3684 c 0.2004,-0.2004 1.12,-1.0526 1.2136,-1.1996 0.1283,-0.2003 1.4248,-1.3679 1.6975,-1.6243 3.9618,-4.5819 17.622,-20.1844 15.7588,-25.7895 -3.5956,-4.988 -26.1523,7.6115 -29.7131,10.9591 -0.6202,0.5824 -1.3313,1.3465 -1.9621,1.8782 -0.4492,0.3767 -0.9918,0.9752 -1.4195,1.4026 -4.4617,5.3807 -16.5073,25.5437 -9.351,31.0099 3.9965,0.1282 19.7124,-13.3423 23.7758,-16.6364 z"
       style="fill:#c1a67a;fill-rule:evenodd"
       id="path97" />
  </g>
  <path
     d="m 1206.2588,1696.7738 c -15.0369,10.8282 -36.3614,27.7104 -42.4376,45.2391"
     style="fill:none"
     id="path100" />
  <g
     id="Layer1012"
     transform="translate(0.5715,1.0001)">
    <path
       d="m 1093.1146,2501.4075 c -1.6307,1.961 -3.24,3.9434 -4.8199,5.9444 -4.4776,6.2036 -8.974,14.6567 -12.1097,21.5816 -2.4487,5.354 -4.3628,10.2805 -5.4134,16.0967 -0.5881,1.969 -1.8712,13.2541 1.9676,13.1312 1.7536,-0.056 6.3168,-8.0631 7.1241,-9.455 3.0101,-4.0155 6.0309,-7.9081 9.2013,-11.8007 4.9696,-5.736 10.3829,-11.293 15.2214,-16.9436 1.473,-1.8648 2.97,-3.7109 4.4911,-5.5383 1.0212,-1.2263 2.8844,-3.8365 3.6516,-5.1269 6.0977,-8.3703 12.7808,-16.7459 18.6031,-25.2177 1.4168,-1.6431 4.1622,-4.6033 5.1593,-6.4734 0.238,-0.3153 0.254,-0.3474 0.4438,-0.668 0.1016,-0.1683 -0.1684,-0.4408 -0.1631,-0.4728 -0.083,-0.1149 -0.1336,-0.2058 -0.1657,-0.3447 -0.037,-0.1175 0,-0.2164 0.072,-0.3072 0.2005,-0.2618 1.0265,0.3339 1.3874,0.35 0.8073,0.035 1.0586,-0.8844 1.1094,-1.5122 0.024,-0.2992 -0.2353,-0.6332 -0.3395,-0.887 -0.1337,-0.3126 -0.6069,-0.5397 -0.7512,-0.7106 -0.3769,-0.4409 -1.4569,-0.4382 -1.8472,-0.5691 -0.3957,-0.1363 -1.8713,0.053 -1.8873,0.045 -3.4271,0.078 -6.7339,1.9637 -9.5969,3.6762 -9.7868,4.9265 -18.7341,12.8747 -26.5801,20.4515 -1.1094,0.8683 -3.7585,3.548 -4.7583,4.7502 z"
       style="fill:#c4c1b2;fill-rule:evenodd"
       id="path102" />
  </g>
  <path
     d="m 1073.2893,2559.1615 c -0.8154,-25.2952 65.6066,-94.5337 65.0693,-81.9983"
     style="fill:none"
     id="path105" />
  <path
     d="m 2633.8189,2832.3699 c -34.8723,71.7525 -230.5882,316.5559 30.8278,387.8116 205.5641,56.0325 250.3354,-15.8109 310.486,-173.099 95.0363,-184.3573 68.8385,-249.2731 -69.4267,-318.8482 -180.5719,-90.8629 -218.0748,-6.5803 -271.8871,104.1356 z"
     style="fill:#6a352d;fill-rule:evenodd"
     id="path107" />
  <path
     d="m 2733.4272,2887.4998 c -41.3445,7.445 -68.5617,19.6988 -93.4214,55.0078 -45.8274,65.0953 -52.0499,157.0813 20.9706,209.6727 64.4617,46.4239 157.458,48.1925 206.7132,-23.1426 18.3659,-26.5986 37.7418,-73.9143 33.5241,-114.5321 -9.7256,-93.6552 -111.0427,-137.2288 -167.7865,-127.0058 z"
     style="fill:#895242;fill-rule:evenodd"
     id="path109" />
  <path
     d="m 2964.5147,2866.2704 c -14.0518,7.3697 -21.9053,34.9836 -30.5486,53.7333 -12.7826,27.7344 8.4293,55.2157 35.4867,40.4401 12.0953,-6.6044 23.9915,-41.0969 29.819,-54.7517 12.3666,-28.9848 -10.6451,-52.0671 -34.7571,-39.4217 z"
     style="fill:#895242;fill-rule:evenodd"
     id="path111" />
  <path
     d="m 2856.8425,2750.6416 c -13.274,7.1257 -22.7223,38.2587 -29.8884,55.1253 -12.2912,28.9245 10.7386,52.9711 36.4636,38.4606 10.2532,-5.7849 23.1171,-41.0427 29.5265,-55.3091 11.1094,-24.7275 -8.6674,-53.0102 -36.1017,-38.2768 z"
     style="fill:#895242;fill-rule:evenodd"
     id="path113" />
  <path
     d="m 2699.0951,2751.0031 c -13.7986,7.0233 -11.2994,10.0061 -17.5731,23.8326 -5.2909,11.6572 -9.2101,19.3162 -13.3554,30.2021 -10.7958,28.346 5.9482,53.206 35.0979,39.8284 11.9776,-5.4956 24.1693,-41.5488 30.0481,-54.5498 11.2119,-24.7757 -5.2457,-54.0587 -34.2175,-39.3133 z"
     style="fill:#895242;fill-rule:evenodd"
     id="path115" />
  <path
     d="m 2785.1364,2737.2971 c -14.5704,6.2188 -46.4364,65.9178 -33.2589,86.4934 5.1975,8.117 15.9963,14.8871 30.4853,10.9853 16.5028,-4.4411 25.945,-35.9417 32.7071,-51.8502 19.1528,-45.068 -14.703,-52.1305 -29.9335,-45.6285 z"
     style="fill:#895242;fill-rule:evenodd"
     id="path117" />
  <path
     d="m 2917.7859,2796.2188 c -14.9713,6.9419 -22.5052,31.7537 -31.5133,53.0886 -15.8577,37.5536 14.1121,50.184 33.8135,41.7808 12.5414,-5.348 24.3503,-40.1719 30.7385,-54.3299 10.6934,-23.703 -3.9463,-54.0256 -33.0387,-40.5395 z"
     style="fill:#895242;fill-rule:evenodd"
     id="path119" />
  <path
     d="m 866.3405,2830.2807 c 34.8724,71.7525 230.5882,316.5559 -30.8278,387.8115 -205.564,56.0326 -250.3354,-15.8108 -310.4859,-173.0989 -95.0363,-184.3573 -68.8386,-249.2731 69.4266,-318.8483 180.572,-90.8628 218.0748,-6.5802 271.8871,104.1357 z"
     style="fill:#6a352d;fill-rule:evenodd"
     id="path121" />
  <path
     d="m 741.5322,3185.5972 c 42.704,0 86.4271,-20.4461 110.286,-40.5697 86.192,-72.691 39.2431,-205.2014 -35.3813,-243.8699 -102.3451,-53.0343 -264.2499,47.2675 -200.566,187.5394 13.9975,30.8257 19.8914,46.0352 43.9009,66.1257 19.0774,15.9627 51.1605,30.7745 81.7604,30.7745 z"
     style="fill:#895242;fill-rule:evenodd"
     id="path123" />
  <path
     d="m 516.8631,2865.7311 c -8.5529,3.8144 -17.2806,7.3034 -16.3129,26.0441 0.5216,10.0784 7.7902,21.8953 11.9867,32.2026 7.5279,18.4786 16.8616,49.235 46.15,37.9243 26.8102,-10.3526 11.5284,-40.2081 3.3192,-58.9217 -5.9993,-13.6819 -15.2999,-50.5516 -45.143,-37.2493 z"
     style="fill:#895242;fill-rule:evenodd"
     id="path125" />
  <path
     d="m 779.1202,2751.44 c -23.5724,13.3204 -9.0775,39.8496 0.404,58.9157 8.2996,16.6979 15.6707,49.5935 45.8485,35.3692 26.2163,-12.3592 10.0783,-42.0038 1.8269,-59.7472 -7.971,-17.1378 -16.9098,-52.1545 -48.0794,-34.5377 z"
     style="fill:#895242;fill-rule:evenodd"
     id="path127" />
  <path
     d="m 624.894,2749.3159 c -30.4943,9.1263 -13.8799,39.5934 -5.8365,57.9997 7.7539,17.7494 14.9833,48.9246 45.342,38.6805 28.9598,-9.7711 12.2429,-40.648 4.9864,-58.0871 -8.5529,-20.5545 -15.2788,-47.3368 -44.4919,-38.5931 z"
     style="fill:#895242;fill-rule:evenodd"
     id="path129" />
  <path
     d="m 564.2672,2795.9115 c -26.8344,12.6876 -13.2288,36.0532 -3.1776,59.2199 7.7329,17.8218 15.8758,48.4818 46.6414,36.1256 27.0997,-10.8859 9.3096,-40.4823 2.1314,-58.8343 -7.3288,-18.7377 -18.3327,-49.4037 -45.5952,-36.5112 z"
     style="fill:#895242;fill-rule:evenodd"
     id="path131" />
  <path
     d="m 697.7578,2737.8485 c -28.4985,12.9678 -11.5556,38.4937 -3.3524,57.9756 8.0886,19.2017 16.0596,48.7589 46.0414,37.2223 25.9843,-10.0001 10.615,-42.6155 2.5505,-60.0305 -8.9116,-19.2408 -16.6083,-48.1955 -45.2395,-35.1674 z"
     style="fill:#895242;fill-rule:evenodd"
     id="path133" />
  <g
     id="Layer1013"
     transform="translate(0.5715,1.0001)">
    <path
       d="m 1218.4226,1753.6657 c -0.3154,-0.3152 -1.6681,-1.782 -1.8926,-1.9262 -0.2112,-0.1363 -1.5051,-1.5923 -1.7777,-1.8889 -4.7343,-4.3788 -24.2971,-24.5658 -28.8924,-24.3494 -6.2981,6.647 8.9741,31.9529 13.9115,38.1431 0.4705,0.5103 1.7537,1.7339 2.0691,2.1961 0.3048,0.4516 1.7323,1.7767 2.2081,2.2496 6.2875,5.4288 31.6726,21.4293 38.4091,13.9727 -0.1684,-3.2273 -20.191,-23.9006 -24.0351,-28.397 z"
       style="fill:#c1a67a;fill-rule:evenodd"
       id="path135" />
  </g>
  <path
     d="m 1186.4528,1726.4933 c 9.6584,21.3358 33.624,48.608 56.5844,56.5481"
     style="fill:none"
     id="path138" />
  <g
     id="Layer1014"
     transform="translate(0.5715,1.0001)">
    <path
       d="m 2467.9885,1797.4376 c -6.1518,-9.0321 -12.4939,-17.9365 -19.0081,-26.7107 -24.4691,-32.3039 -52.1028,-62.2112 -82.1451,-89.3882 -15.7367,-13.9219 -30.866,-26.0984 -49.238,-36.4149 -4.322,-2.3498 -35.6337,-17.4493 -39.781,-10.5743 1.1183,1.894 31.3665,15.2298 35.2218,17.8063 16.2919,11.9681 30.1466,24.7438 44.4209,39.0304 28.5043,29.8291 51.3964,58.2123 75.571,91.3681 6.3525,8.558 12.5382,17.2436 18.5389,26.0516 0.018,0.029 0.047,0.078 0.068,0.1016 26.6509,38.3896 49.5586,75.2239 65.5117,119.535 4.3584,14.3597 7.6871,28.3259 5.7425,43.3968 -1.0739,5.8069 -2.5545,10.0194 -5.9302,14.8806 -1.3685,1.7793 -12.898,11.5409 -12.9319,11.7284 2.8205,2.4723 14.8374,-5.8199 17.2329,-8.0082 4.9736,-5.1296 7.4187,-9.9882 9.4754,-16.7981 4.4679,-16.5662 2.0906,-32.0773 -1.7491,-48.5132 -12.0534,-45.7857 -34.823,-88.1064 -60.9291,-127.387 -0.01,-0.024 -0.055,-0.081 -0.07,-0.1042 z"
       style="fill:#c1a67a;fill-rule:evenodd"
       id="path140" />
  </g>
  <path
     d="m 2278.3878,1635.3288 c 82.2963,0 327.715,328.8099 226.2203,363.9405"
     style="fill:none"
     id="path143" />
  <path
     d="m 1972.9517,1381.5017 c 2.2634,-74.2371 -96.9334,-159.5355 -207.7743,-167.4526 -129.6232,-9.2555 -228.7369,92.3402 -230.3388,161.2193 -0.048,2.0708 0.028,4.1555 0.2051,6.2425 -0.1798,2.0915 -0.2558,4.1808 -0.2074,6.2563 1.6042,68.8791 100.7156,239.7017 230.3411,230.4462 110.8594,-7.9194 210.0676,-162.4839 207.7743,-236.7117 z"
     style="fill:#eabbab;fill-rule:evenodd"
     id="path145" />
  <path
     d="m 1750.6105,1461.8654 c 0.9668,19.1004 -1.9009,31.1783 -18.5815,35.8328 -26.8341,7.4869 -71.841,3.8164 -99.1182,-5.3479 -10.5003,-3.5276 -31.367,-11.2397 -38.7144,-16.7978 1.5821,-3.4874 3.9972,-4.1556 3.6148,-6.6216 -4.8555,-3.8734 -11.3034,7.3495 -8.1066,13.6207 7.0753,0.2149 -1.3567,-5.0106 10.36,0.7251 26.7377,13.0871 30.4263,13.4665 59.2931,19.8302 5.1398,1.1335 14.0252,9.1932 18.3693,13.2955 16.9256,15.9811 37.5568,49.5236 75.6474,50.2618 34.9444,0.6766 47.7597,-27.1171 78.172,-48.5798 l 19.3483,-12.2965 c 8.2319,-3.5519 40.6834,-7.2608 59.5334,-19.5704 3.4455,-2.2502 5.7419,-5.1863 8.3253,-6.7478 1.482,3.7126 0.6368,5.8142 4.7349,5.2937 2.6237,-4.8601 -6.791,-15.2074 -11.7671,-13.1665 -0.5405,4.1116 0.04,1.8175 3.2342,4.7461 -3.6522,7.9532 -27.381,15.3345 -38.1963,18.9135 -13.9673,4.6237 -31.827,7.5654 -47.3389,9.0287 -20.1823,1.9035 -56.3132,2.8716 -68.2636,-15.8783 -5.0987,-7.9999 -8.3675,-86.7618 -10.5461,-26.5415 z"
     style="fill:#5d2a22;fill-rule:evenodd"
     id="path147" />
  <path
     d="m 1709.3371,1541.9982 c 3.6559,4.3331 11.266,9.8352 16.3235,12.7432 6.446,3.7061 12.8677,7.0692 22.1813,7.7738 10.7789,0.8158 17.4633,-0.3859 26.0926,-3.2351 2.5685,-0.8485 6.8929,-3.5145 9.7634,-5.1928 0.9117,-0.5317 3.1576,-2.1184 4.1823,-2.9277 4.7705,-3.7668 4.3843,-5.2582 1.3006,-7.7092 -1.9195,-1.526 -1.3669,-0.8467 -3.7372,-1.7867 -3.5035,-1.3886 -4.7751,-2.9193 -7.1136,-3.8519 -4.4021,-1.7558 -14.1618,-2.4903 -19.0351,-1.0148 0.6359,3.749 1.9411,0.4345 2.5377,6.4851 -7.6045,-0.7242 -0.7761,-1.6054 -10.9846,-7.3785 -12.7592,-7.2159 -36.3169,0.2421 -41.5109,6.0946 z"
     style="fill:#b9684e;fill-rule:evenodd"
     id="path149" />
  <path
     d="m 1752.7835,1451.3836 c 9.4053,0.04 16.6309,-9.585 25.5251,-14.5804 15.734,-8.8388 30.9744,-8.4457 50.0481,-12.2216 39.2547,-7.7647 32.7406,-42.7745 10.1494,-62.7007 -18.495,-16.6861 -51.5639,-25.0317 -84.9585,-25.0142 h -0.063 -1.403 -0.063 c -33.392,-0.015 -66.4609,8.3281 -84.9584,25.0142 -22.5912,19.9262 -29.1053,54.936 10.1494,62.7007 19.0737,3.7759 34.3141,3.3828 50.0481,12.2216 8.8942,4.9954 16.1198,14.6204 25.5251,14.5804 z"
     style="fill:#5d2a22;fill-rule:evenodd"
     id="path151" />
  <path
     d="m 3004.6189,2218.6684 c -15.6751,8.1084 -25.2997,25.8325 -24.8784,38.352 35.6064,20.2686 32.9925,18.8714 58.7567,41.881 3.4936,-16.7682 -2.6028,-71.6273 -33.8783,-80.233 z"
     style="fill:#c9a699;fill-rule:evenodd"
     id="path153" />
  <path
     d="m 2964.2411,2249.198 c 0.993,-12.9845 -1.257,-23.6769 -4.0052,-34.5297 -2.1579,-8.523 -4.1301,-18.5133 -12.5485,-22.7048 -6.5233,-2.9126 -11.0294,-1.6318 -11.0362,-1.6361 -18.8393,3.8414 -26.9093,36.1469 -30.7734,51.1272 21.5645,0.3952 33.2165,-1.3981 58.3633,7.7434 z"
     style="fill:#c9a699;fill-rule:evenodd"
     id="path155" />
  <path
     d="m 1903.605,2358.1926 -51.442,-7.823 v -207.385 -63.0184 l 71.5923,4.3327 z"
     style="fill:#632b19;fill-rule:evenodd"
     id="path157" />
  <path
     d="m 1608.0488,2101.9781 50.0654,-26.0219 -0.1223,274.6115 -49.0222,7.6217 z"
     style="fill:#441606;fill-rule:evenodd"
     id="path159" />
  <path
     d="m 1607.3094,2106.1808 156.5445,43.6936 195.9573,-61.5475 -180.5592,-45.6072 z"
     style="fill:#190401;fill-rule:evenodd"
     id="path161" />
  <path
     d="m 1531.0969,2349.2395 v -340.1002 l 224.8255,-107.3998 v 474.3511 c 0,0 -79.1284,-11.1882 -79.1284,-11.1882 0,0 0,-281.9257 0,-281.9257 l -67.8243,22.3753 v 252.8379 z"
     style="fill:#bc3b13;fill-rule:evenodd"
     id="path163" />
  <path
     d="m 1980.3397,2349.3727 v -340.1002 l -224.8255,-107.3999 v 474.3511 c 0,0 79.1284,-11.1882 79.1284,-11.1882 0,0 0,-281.9256 0,-281.9256 l 67.8243,22.3753 v 252.8378 z"
     style="fill:#e30016;fill-rule:evenodd"
     id="path165" />
  <path
     d="m 1254.7672,2601.1212 c 159.8592,-203.166 62.1682,-354.3016 -52.3483,-241.6505 -233.8469,131.0236 -135.1986,-109.6874 -150.6212,-169.347 -15.4226,-59.6597 -198.7727,-93.9055 -276.1949,-1.8255 -196.7996,234.0642 142.3698,744.5053 479.1644,412.823 z"
     style="fill:#794538;fill-rule:evenodd"
     id="path167" />
  <path
     d="m 1891.1178,1099.6117 c -45.4071,9.6816 -65.0038,62.4636 -42.4756,101.9275 h 118.6532 c 30.6206,-57.9709 0.5832,-102.5929 -61.0711,-102.5929 -1.1612,0.2012 -13.9246,0.4127 -15.1065,0.6654 z"
     style="fill:#ffffff;fill-rule:evenodd"
     id="path169" />
  <path
     d="m 1887.9801,1157.6373 a 8.819,7.7986 0 0 1 8.819,7.7985 8.819,7.7986 0 1 1 -8.819,-7.7985 z"
     style="fill:#ffffff;fill-rule:evenodd"
     id="path171" />
  <path
     d="m 1586.6785,1098.6726 c -45.4072,9.6816 -65.0038,62.4636 -42.4757,101.9276 h 118.6532 c 30.6207,-57.971 0.5832,-102.593 -61.0711,-102.593 -1.1612,0.2012 -13.9246,0.4127 -15.1064,0.6654 z"
     style="fill:#ffffff;fill-rule:evenodd"
     id="path173" />
  <path
     d="m 1594.3623,1157.8537 a 8.819,7.7986 0 0 1 8.819,7.7985 8.819,7.7986 0 1 1 -8.819,-7.7985 z"
     style="fill:#ffffff;fill-rule:evenodd"
     id="path175" />
  <path
     d="m 1604.8971,1097.5561 a 47.968,52.2616 0 0 1 47.968,52.2616 47.968,52.2616 0 1 1 -47.968,-52.2616 z"
     style="fill:#531f08;fill-rule:evenodd"
     id="path177" />
  <path
     d="m 1579.7709,1117.4527 a 27.4026,30.116 0 0 1 27.4026,30.1161 27.4026,30.116 0 1 1 -27.4026,-30.1161 z"
     style="fill:#ffffff;fill-rule:evenodd"
     id="path179" />
  <path
     d="m 1911.0618,1097.4141 a 47.968,52.0627 0 0 1 47.9681,52.0627 47.968,52.0627 0 1 1 -47.9681,-52.0627 z"
     style="fill:#531f08;fill-rule:evenodd"
     id="path181" />
  <path
     d="m 1887.9796,1120.4105 a 28.1045,30.8874 0 0 1 28.1045,30.8874 28.1045,30.8874 0 1 1 -28.1045,-30.8874 z"
     style="fill:#ffffff;fill-rule:evenodd"
     id="path183" />
  <path
     d="m 2658.3533,2415.3367 81.7573,-34.0907 c -1.7919,-14.8671 4.4378,-32.7968 12.0806,-44.1057 10.1274,-14.9809 2.2108,-2.8867 8.3946,-15.7188 l 18.7069,-24.5788 c 8.7305,-8.7356 25.6321,-19.5299 38.2973,-24.2622 2.7552,-2.3337 4.8728,-4.6466 7.0273,-6.6313 -102.8954,40.4174 -186.2183,73.7895 -186.2183,73.7895 -0.5194,-0.2056 -441.6012,-7.5792 -441.0981,12.9711 -19.2352,131.091 382.8347,264.6635 461.0524,62.6269 z"
     style="fill:#94a499;fill-rule:evenodd"
     id="path185" />
  <path
     d="m 2893.1469,2242.3299 c 12.7684,-102.7968 -80.7462,4.2237 -76.9255,33.8137 25.0946,-20.2364 50.6419,-28.0222 76.9255,-33.8137 z"
     style="fill:#c9a699;fill-rule:evenodd"
     id="path187" />
  <path
     d="m 2219.0601,2364.528 c 0,0 292.5874,18.7616 408.1378,0 115.5505,-18.7616 -455.355,-28.2182 -408.1378,0 z"
     style="fill:#475256;fill-rule:evenodd"
     id="path189" />
  <path
     d="m 2403.4294,2301.9942 c -29.6807,2.2219 -47.1987,8.7661 -60.2378,17.4225 -17.1965,11.4145 -17.5088,21.3226 -17.4967,38.354 0.021,31.3624 0.058,62.7264 0.036,94.0889 -0.01,6.7545 -2.5533,16.2019 2.9019,21.6425 4.5425,4.5326 19.9742,7.9676 32.792,4.1445 22.7093,-6.7737 -1.8831,-30.7107 27.7491,-34.2701 37.1039,-4.4571 30.5328,18.7066 30.4934,31.0662 -0.024,7.2077 -2.3319,16.0523 5.9859,20.5997 7.9114,4.3252 26.7697,4.5089 35.051,-0.2474 15.5227,-8.9171 -8.903,-31.7387 25.4021,-34.2953 40.6003,-3.0262 16.2171,21.2929 39.8725,27.0046 12.8966,3.1121 27.8067,-0.1125 32.2097,-5.2154 4.2089,-4.8793 2.2773,-17.0744 2.2682,-22.9016 -0.021,-15.8909 0.015,-31.7817 0.015,-47.6725 0,-23.6763 8.6816,-71.1326 -11.896,-88.3328 -10.5586,-8.8253 -29.899,-17.1573 -53.3877,-20.3524 -17.0297,-2.3166 -73.9653,-2.3685 -91.7592,-1.0354 z"
     style="fill:#f3de5e;fill-rule:evenodd"
     id="path191" />
  <path
     d="m 2375.5862,2500.2123 c -16.8087,4.7483 -9.5873,28.2792 6.8244,23.7964 14.6558,-4.0031 9.1031,-28.2964 -6.8244,-23.7964 z"
     style="fill:#f3de5e;fill-rule:evenodd"
     id="path193" />
  <path
     d="m 1507.1102,3259.0064 515.1938,0.073 68.0953,-145.6747 c 51.4889,-114.7201 126.5432,-294.8386 71.4381,-419.0814 -14.4375,-32.5508 -30.2589,-43.3458 -44.7122,-65.838 16.4439,-23.8839 33.2526,-46.5457 11.519,-78.0055 -20.1395,-29.1503 -43.1301,-25.0444 -84.6661,-26.2357 17.3876,20.1944 32.634,32.1923 35.1202,71.4398 1.8756,29.6169 1.372,74.794 0.123,104.8195 -2.8352,68.1435 -102.2402,76.6561 -102.5455,-6.6736 -0.071,-19.9052 2.9858,-28.5181 -8.6403,-42.5362 -38.3242,-46.1988 -88.1516,-13.4436 -92.898,20.1288 -4.1397,29.2853 5.6782,76.579 -6.6378,98.7473 -11.8998,21.4243 -45.3824,37.879 -74.6618,17.9043 -39.3116,-26.8178 -17.1537,-112.268 -22.5306,-185.9092 -4.5799,-62.7152 -102.9262,-73.1709 -102.486,13.1892 0.1982,38.9275 5.8805,65.7878 -18.7795,85.9745 -27.0311,22.1259 -62.7263,8.2658 -76.4541,-12.4837 -11.8323,-17.8811 -9.5721,-69.6008 -7.2009,-95.5127 3.7631,-41.1868 18.8628,-45.0383 35.2393,-70.0673 -77.1441,11.8553 -190.7645,-29.185 -208.9175,45.3159 -7.2603,29.8058 9.5087,45.4624 20.1554,59.9046 -88.4252,101.0952 -75.9624,200.3052 -34.7316,328.5306 24.5528,76.3515 59.7564,157.0442 94.2937,228.5804 8.1883,16.952 30.929,59.3224 34.6841,73.4098 z"
     style="fill:#ca7253;fill-rule:evenodd"
     id="path195" />
  <path
     d="m 1507.3406,2740.9152 c -128.2443,22.2072 -40.9701,89.1539 58.3411,73.1416 29.3815,-4.7371 90.318,-25.3704 51.3752,-55.3877 -22.4474,-17.3049 -73.8704,-23.9591 -109.7163,-17.7539 z"
     style="fill:#ffffff;fill-rule:evenodd"
     id="path197" />
  <path
     d="m 2003.7629,2772.8381 c -41.9654,21.8666 -8.3957,85.6164 35.5155,63.7372 40.8144,-20.3378 12.9475,-88.9947 -35.5155,-63.7372 z"
     style="fill:#f3de5e;fill-rule:evenodd"
     id="path199" />
  <path
     d="m 1906.368,3257.1088 120.7459,0.015 68.0954,-145.6747 c 51.4888,-114.7201 126.5432,-294.8386 71.438,-419.0814 -14.4375,-32.5508 -30.2588,-43.3458 -44.7122,-65.8379 16.4439,-23.884 33.2526,-46.5458 11.5191,-78.0055 -20.1396,-29.1504 -43.1301,-25.0444 -84.6662,-26.2357 -170.4266,-1.8467 -399.8881,-2.1475 -444.3703,-1.7349 -170.05,-0.8058 -194.8487,-13.3319 -211.1419,45.8479 -7.2604,29.8096 8.9416,47.6407 19.5883,62.0828 249.1807,1.7118 602.9449,0.7248 604.5905,2.3248 168.5194,174.0425 -116.3129,606.6909 -111.0866,626.2992 z"
     style="fill:#ab5f47;fill-rule:evenodd"
     id="path201" />
  <path
     d="m 1820.8918,2820.3055 c -29.0956,10.2106 -13.3642,51.653 15.779,41.5863 26.4358,-9.1326 13.6127,-51.8998 -15.779,-41.5863 z"
     style="fill:#f3de5e;fill-rule:evenodd"
     id="path203" />
  <path
     d="m 1601.6261,2523.2651 c -16.3765,25.029 -31.4762,28.8805 -35.2393,70.0673 -2.3712,25.9119 -4.6314,77.6316 7.2009,95.5127 13.7278,20.7495 49.423,34.6096 76.4541,12.4837 24.66,-20.1867 18.9777,-47.047 18.7795,-85.9745 -0.4402,-86.3601 97.9061,-75.9044 102.486,-13.1892 5.3769,73.6412 -16.781,159.0914 22.5306,185.9092 29.2794,19.9747 62.762,3.52 74.6618,-17.9043 12.316,-22.1683 2.4981,-69.462 6.6378,-98.7473 4.7464,-33.5724 54.5738,-66.3276 92.898,-20.1288 11.6261,14.0181 8.5689,22.631 8.6403,42.5362 0.3053,83.3297 99.7103,74.8171 102.5455,6.6736 1.249,-30.0255 1.7526,-75.2026 -0.123,-104.8195 -2.4862,-39.2475 -17.7326,-51.2454 -35.1202,-71.4398 -36.0323,-23.5562 -43.4632,-23.5485 -96.1813,-23.4791 -41.8651,0.054 -279.5901,-2.9571 -303.5522,2.4982 -18.6129,4.2371 -29.8623,13.9333 -42.6185,20.0016 z"
     style="fill:#f3de5e;fill-rule:evenodd"
     id="path205" />
  <path
     d="m 1269.009,2347.8648 c 41.8717,-94.3501 -56.8967,-14.8592 -63.7937,14.0502 23.774,-13.2999 43.8516,-14.7051 63.7937,-14.0502 z"
     style="fill:#c9a699;fill-rule:evenodd"
     id="path207" />
  <path
     d="m 1478.0552,2263.2597 c -2.9724,0.801 -5.8977,0.2963 -8.977,0 l -0.6907,16.7325 c -41.0229,0.1716 -67.4641,-0.01 -107.9951,3.635 l -0.5239,0.047 -0.5218,0.049 -0.5239,0.049 -0.5217,0.051 -0.5239,0.051 -0.5218,0.053 -0.5218,0.053 -0.5217,0.053 -0.5218,0.055 -0.5218,0.055 -0.5217,0.055 -0.5218,0.057 -0.5218,0.057 -0.5196,0.057 -0.5218,0.059 -0.5217,0.059 -0.5197,0.059 -0.5217,0.059 -0.5197,0.059 -0.5196,0.061 -0.5196,0.061 -0.5218,0.061 -0.5196,0.061 -0.5196,0.061 -0.5197,0.061 -0.5175,0.063 -0.5196,0.061 -0.5196,0.063 -0.5196,0.061 -0.5175,0.063 -0.5197,0.061 v 0 l -0.5175,0.061 -0.5174,0.061 v 0 l -0.5197,0.061 -0.5175,0.061 -0.5175,0.063 -0.5174,0.061 -0.5175,0.061 -0.5175,0.061 -0.5175,0.059 v 0 l -0.5175,0.059 -1.0328,0.1206 -0.5175,0.059 -1.0329,0.1165 -0.5153,0.057 -0.5154,0.057 v 0 l -0.5154,0.055 v 0 l -0.5153,0.055 -0.5154,0.053 v 0 l -0.5153,0.053 v 0 l -0.5154,0.051 v 0 l -0.5153,0.051 v 0 l -0.5154,0.049 v 0 l -1.0285,0.1001 v 0 l -0.5132,0.049 c -1.0307,0.096 -2.0593,0.1879 -3.0857,0.2717 v 0 l 0.5047,0.055 v 0 l 0.5111,0.053 v 0 l 0.5175,0.049 v 0 l 0.5239,0.047 v 0 l 0.5303,0.045 v 0 l 0.5368,0.041 v 0 l 0.541,0.037 v 0 l 0.5495,0.037 0.5539,0.035 v 0 l 0.5581,0.031 v 0 l 0.5645,0.029 v 0 l 0.5688,0.026 v 0 l 0.5752,0.022 v 0 l 0.5795,0.02 v 0 l 0.5838,0.018 v 0 l 0.5859,0.016 v 0 l 0.5902,0.014 v 0 l 0.5945,0.012 v 0 l 0.5966,0.01 v 0 l 0.6009,0.01 0.6052,0.01 0.6073,0.01 v 0 h 0.6094 0.6116 0.6137 0.6159 1.236 0.6201 0.6202 0.6222 l 0.6223,-0.01 0.6223,-0.01 v 0 l 0.6222,-0.01 v 0 l 0.6222,-0.01 0.6223,-0.01 0.6223,-0.01 0.6201,-0.01 0.6223,-0.012 0.618,-0.01 0.618,-0.012 0.618,-0.012 0.6137,-0.012 0.6137,-0.012 0.6095,-0.014 0.6094,-0.012 0.6052,-0.012 0.603,-0.012 0.6009,-0.012 0.5966,-0.012 0.5923,-0.012 0.5902,-0.01 0.5859,-0.012 0.5817,-0.01 0.5773,-0.01 0.5731,-0.01 0.5688,-0.01 0.5624,-0.01 0.5582,-0.01 h 0.5538 l 0.5474,-0.01 h 0.541 0.5346 0.5304 c 15.4391,-0.01 108.3457,0.5884 110.6659,2.0596 l -7.9441,0.3944 c -3.4172,37.997 -14.5411,72.9557 -31.584,98.223 -9.0625,13.4347 -18.7623,22.8686 -32.0631,32.2023 -10.5422,7.4008 -30.6174,16.3974 -46.6425,18.2691 0,0 -5.2669,1.5018 -5.2669,1.5018 -2.2389,-0.5169 -20.8899,0.8439 -25.2244,1.036 -3.1349,-5.239 -11.3484,-23.8166 -13.0185,-25.7455 -5.8207,9.8425 -9.9628,14.8118 -18.651,20.8314 -26.9138,18.6532 -64.4297,8.308 -79.2295,-21.2891 -18.8756,-37.7416 6.5306,-91.1839 62.6078,-81.6356 -0.9816,-4.1827 -4.1336,-10.6476 -5.9255,-14.9202 l -11.9814,-29.6645 c -2.0914,-5.004 -10.4781,-1.6734 -11.0405,-10.1408 -0.432,-6.5181 6.2697,-7.6338 11.6521,-8.919 35.4331,-8.4654 137.8063,-8.8985 176.7421,-7.977 2.5019,0.059 37.9457,-0.1614 40.2082,1.4487 z m -199.0178,157.0413 c 0,0 21.0204,-12.4519 21.0204,-41.3399 0,-28.8881 -39.6458,-32.4884 -39.6458,-32.4884 0,0 -32.6575,16.6549 -32.6575,36.9142 0,20.2592 17.8962,47.8355 51.2829,36.9141 z"
     style="fill:#ca7253;fill-rule:evenodd"
     id="path209" />
  <path
     d="m 1326.6914,2441.2713 c 9.7339,-0.4332 21.6683,-2.2374 30.4913,-2.5378 16.0251,-1.8717 36.1003,-10.8683 46.6425,-18.2691 13.3008,-9.3337 23.0006,-18.7676 32.0631,-32.2023 17.0429,-25.2673 28.1668,-60.226 31.584,-98.223 l 7.9441,-0.3944 0.4747,-0.082 0.5239,-0.074 0.5731,-0.063 0.618,-0.055 0.665,-0.047 0.7057,-0.039 0.7463,-0.031 0.7869,-0.024 0.8254,-0.016 v 0 l 0.8597,-0.01 0.8938,-0.01 h 0.9259 0.958 l 0.9858,0.01 1.0136,0.012 v 0 l 1.0393,0.014 v 0 l 1.0606,0.018 v 0 l 1.0842,0.022 1.1055,0.025 v 0 l 1.1227,0.027 1.1398,0.029 v 0 l 1.1547,0.029 v 0 l 1.1676,0.031 1.1782,0.031 v 0 l 1.189,0.031 1.1975,0.031 1.2017,0.031 1.2082,0.029 1.2103,0.027 v 0 l 1.2104,0.024 1.2124,0.023 1.2082,0.018 v 0 l 1.2018,0.014 v 0 l 1.1996,0.01 v 0 l 1.189,0.01 h 2.3501 l 1.1568,-0.01 v 0 l 1.1419,-0.012 1.1248,-0.018 1.1077,-0.024 v 0 l 1.0863,-0.033 1.0671,-0.039 v 0 l 1.0414,-0.047 1.0178,-0.057 0.9901,-0.065 0.9623,-0.074 v 0 l 0.9302,-0.084 0.9003,-0.094 0.8639,-0.1042 0.8297,-0.1165 0.7933,-0.1266 0.7527,-0.139 0.7121,-0.1512 0.6693,-0.1635 0.6266,-0.1757 0.5795,-0.19 0.5303,-0.2043 0.4833,-0.2166 v 0 c 0.1518,-0.076 0.2951,-0.1512 0.4298,-0.2309 0.1347,-0.08 0.2609,-0.1614 0.3785,-0.2472 0.1176,-0.086 0.2245,-0.1737 0.3229,-0.2636 0.098,-0.09 0.1882,-0.1839 0.2673,-0.2799 0.079,-0.094 0.1475,-0.1941 0.2074,-0.2942 -6.9348,-4.3093 -53.5196,-5.5619 -65.1888,-6.2566 l 0.6907,-16.7325 c 3.0793,0.2963 6.0046,0.801 8.977,0 6.1029,-1.6449 46.4778,2.2864 55.0699,3.4 7.7239,1.0012 17.3594,2.2109 24.3199,4.9959 3.5455,1.418 7.0481,3.5185 4.929,9.2418 -1.6808,4.5402 -4.9953,3.968 -9.349,5.9766 -1.3943,3.2509 -2.5447,7.7604 -3.77,11.2299 -8.1601,23.0913 -21.5571,55.3753 -31.2761,76.8585 -15.2938,33.8083 -32.8713,70.5426 -52.4055,100.8671 -5.3203,8.261 -7.9399,14.0374 -14.6779,16.1828 -17.7059,5.6395 -63.2514,5.6334 -83.626,1.5059 -12.0755,-2.4458 -10.9186,-3.0404 -17.6075,-13.1261 -4.1293,-6.2279 -8.1558,-12.5499 -11.898,-19.0966 -3.3445,-5.852 -8.6006,-13.7901 -11.0726,-20.0242 z"
     style="fill:#a65036;fill-rule:evenodd"
     id="path211" />
  <path
     d="m 1468.6147,2293.4464 c -2.9823,-2.6326 -122.4026,-3.7003 -142.2478,-3.6857 -14.4303,0.015 -34.4734,1.6344 -48.2469,-0.6216 14.0868,-1.6052 28.2973,-4.6656 42.6452,-6.461 52.0978,-6.5231 86.0847,-6.1977 138.8147,-6.5048 14.9993,1.2432 74.8785,3.4846 83.7924,11.1961 -4.8954,11.5836 -62.441,2.746 -74.7576,6.077 z"
     style="fill:#5d2a22;fill-rule:evenodd"
     id="path213" />
  <path
     d="m 1305.0473,2395.6923 c 7.6742,-11.5449 11.4571,-22.4972 14.9126,-33.8326 2.7141,-8.9018 6.356,-19.0737 1.6074,-26.9178 -8.6051,-14.218 0.22,-3.8938 -8.2619,-6.7133 -17.605,-5.3222 -41.3281,20.7634 -52.4296,32.802 17.6223,10.5258 28.2033,14.3564 44.1715,34.6617 z"
     style="fill:#c9a699;fill-rule:evenodd"
     id="path215" />
  <path
     d="m 1339.922,2407.2327 c -10.0815,1.4554 -20.5259,10.6042 -24.5066,18.8149 9.9868,21.751 9.2234,20.213 13.6647,41.3557 7.2408,-10.0145 22.6841,-47.0224 10.8419,-60.1706 z"
     style="fill:#c9a699;fill-rule:evenodd"
     id="path217" />
  <path
     d="m 1378.8743,2266.1211 c 0,0 -199.1568,-53.9002 -136.6288,-167.9187 62.5281,-114.0185 174.9975,10.0544 225.9192,-114.0185 50.9216,-124.0728 -106.762,-141.8618 -194.396,-151.5076 -87.6339,-9.6458 10.8684,-201.3362 153.4017,-237.7867 142.5333,-36.4504 46.1721,32.3789 142.5052,31.638 96.3331,-0.7409 -64.2634,125.9632 -62.8549,155.9116 1.4086,29.9484 -32.3627,31.4025 30.6443,116.5736 63.007,85.1711 -7.7864,152.8787 -87.4537,190.354 -79.6672,37.4753 -109.6241,129.4531 -71.137,176.7543 z"
     style="fill:#ffffff;fill-opacity:0;fill-rule:evenodd"
     id="path219" />
  <path
     d="m 1693.3634,3040.9295 v -142.9873 h -31.8994 v 21.9222 c 0,10.8816 -18.5295,42.5399 -31.9005,47.4711 v -69.3933 h -31.7087 v 21.3495 c 0,6.8726 -7.4497,12.7903 -11.2705,16.9898 l -34.7646,38.3088 c -9.3607,10.4994 -17.7648,15.4318 -17.7648,29.7497 v 36.5895 h 31.8994 v -49.5715 c 0,-13.7136 5.9223,-20.3956 22.3492,-36.9717 l 9.5513,-9.5456 v 96.0888 h 31.7087 v -34.2987 c 0,-16.2277 22.7316,-42.1273 31.9005,-52.8172 v 87.1159 z m 22.1687,-142.9873 v 142.9873 h 95.5086 v -6.4904 c 0,-16.2277 -15.2808,-24.2457 -15.2808,-41.045 h -16.4279 v 31.6899 h -31.9005 v -47.7259 h 31.9005 v -16.0361 h -31.9005 v -47.5354 h 31.9005 v 31.6899 h 16.4279 c 0,-16.7993 15.2808,-24.8173 15.2808,-41.0439 v -6.4904 z m 16.0456,-16.036 h 18.719 v -19.664 h -18.719 z m 44.889,0 h 18.7202 v -19.664 h -18.7202 z m 168.2968,190.7132 v -47.5354 h -15.8549 v -127.1418 h -31.7087 v 15.8444 c 0,6.6505 -7.2591,12.9504 -11.2705,16.9594 l -34.7646,34.6809 c -9.9338,9.7361 -17.7648,15.2401 -17.7648,29.558 v 30.0991 h -15.6643 v 47.5354 h 15.855 c 1.9098,-10.3089 15.8549,-20.6177 15.8549,-29.399 v -2.2909 h 63.6092 v 2.2909 c 0,8.7813 14.1346,19.0901 15.8538,29.399 z m -47.5636,-47.5354 h -31.9005 v -43.0799 c 0,-13.7136 7.0684,-18.6776 22.3492,-34.1093 l 9.5513,-9.7362 z"
     style="fill:#9a472d;fill-rule:evenodd"
     id="path221" />
</svg>
