<?xml version="1.0" encoding="UTF-8" standalone="no"?>
<svg
   version="1.1"
   width="3543.3074"
   height="3543.3069"
   id="svg228"
   viewBox="0 0 3543.3073 3543.3069"
   sodipodi:docname="9bd639ae44725f62c71f85173dc9f195.cdr"
   xmlns:inkscape="http://www.inkscape.org/namespaces/inkscape"
   xmlns:sodipodi="http://sodipodi.sourceforge.net/DTD/sodipodi-0.dtd"
   xmlns="http://www.w3.org/2000/svg"
   xmlns:svg="http://www.w3.org/2000/svg">
  <defs
     id="defs232" />
  <sodipodi:namedview
     id="namedview230"
     pagecolor="#ffffff"
     bordercolor="#666666"
     borderopacity="1.0"
     inkscape:pageshadow="2"
     inkscape:pageopacity="0.0"
     inkscape:pagecheckerboard="0" />
  <path
     d="m 587.5327,2741.9743 48.2292,-26.3955 c 0.5235,-0.3573 1.1485,-0.8029 1.6431,-1.1823 l 4.6562,-4.5263 c -13.0127,2.7364 -7.4491,-9.1962 -29.2502,-40.1402 -38.261,-54.301 -50.9391,-15.5603 -26.7587,50.2499 5.452,14.8311 5.7518,12.5182 1.4804,21.9944 z"
     style="fill:#c9a699;fill-rule:evenodd"
     id="path4" />
  <path
     d="m 660.0923,2702.7659 c 19.3923,-10.0618 37.4353,-5.5612 62.9003,-5.4176 l -10.4055,-13.3064 c -11.7146,-17.3245 -42.5042,-67.5301 -60.5984,-53.1299 -16.3965,15.855 11.1251,51.9329 8.1036,71.8539 z"
     style="fill:#c9a699;fill-rule:evenodd"
     id="path6" />
  <path
     d="m 529.3989,2785.1161 c 8.3966,-5.9885 11.7075,-12.1647 21.0084,-19.8731 3.8032,-3.1489 6.7166,-5.3108 12.3541,-8.9385 7.4882,-4.8172 7.6081,-2.7253 12.5625,-9.6603 -8.9715,1.418 -8.3907,-3.8634 -12.6095,-12.393 -3.4258,-6.9239 -6.7073,-12.7834 -11.1218,-19.8583 -6.1001,-9.7893 -21.1321,-28.771 -30.2985,-7.0271 -7.6749,20.1677 4.9927,56.091 8.1048,77.7503 z"
     style="fill:#c9a699;fill-rule:evenodd"
     id="path8" />
  <path
     d="m 745.0279,2697.5067 c 4.8421,4.4342 16.8556,7.3695 31.7498,13.5715 13.308,5.5465 21.8492,5.2077 33.708,9.3915 l -2.2643,-13.7852 c -10.0436,-3.6461 -9.7068,-8.5444 -17.2187,-18.956 -22.8782,-31.7174 -55.9228,-50.0804 -45.818,0.081 z"
     style="fill:#c9a699;fill-rule:evenodd"
     id="path10" />
  <path
     d="m 2870.2099,2721.2647 c 9.8975,7.5867 34.5251,16.9962 46.3459,21.4765 1.7365,-15.1131 29.2101,-75.6407 -0.6542,-77.5268 -17.3831,-1.0997 -41.4891,41.2295 -45.6917,56.0503 z"
     style="fill:#c9a699;fill-rule:evenodd"
     id="path12" />
  <path
     d="m 2769.4295,2702.3674 c 13.693,0.5363 25.1642,-2.2779 39.3818,-0.6508 12.2399,1.401 21.3385,5.3359 33.6176,8.4212 4.2508,-14.5105 21.3234,-45.4778 4.1001,-57.0235 -15.2035,-5.342 -24.1151,6.6647 -33.1805,16.3333 -9.9939,10.6599 -14.4829,16.8395 -21.658,28.8703 -9.5689,0.7954 -17.0003,-0.9159 -22.261,4.0495 z"
     style="fill:#c9a699;fill-rule:evenodd"
     id="path14" />
  <path
     d="m 2933.2938,2749.1558 47.2865,31.2957 c 0.3829,0.3314 1.0853,0.9642 1.6581,1.4041 1.5195,-19.28 15.0678,-58.0992 -2.1796,-70.7657 -20.5336,-8.7256 -34.4135,23.2843 -39.6622,37.3428 z"
     style="fill:#c9a699;fill-rule:evenodd"
     id="path16" />
  <path
     d="m 2689.8201,2735.2154 c 12.6807,-6.3311 22.0304,-15.647 37.4616,-23.4315 l 34.9282,-12.7918 c 10.0351,-3.1973 3.3708,1.4443 12.255,-5.0853 l -8.2353,-1.0178 c 3.5577,-62.8568 -59.1771,-9.9119 -76.4095,42.3264 z"
     style="fill:#c9a699;fill-rule:evenodd"
     id="path18" />
  <path
     d="m 806.3958,2705.1512 1.1736,11.277 c -11.527,-3.4223 -17.9214,-8.0016 -30.7904,-12.5353 -89.6283,-32.3858 -136.795,1.5041 -219.7616,41.8514 -32.9343,16.4974 -63.4226,50.4942 -76.2541,84.6886 -22.3643,59.6099 -1.4409,106.7272 22.915,161.317 11.0324,24.7262 20.8726,48.389 31.6511,72.8853 22.3002,50.6866 39.981,101.4694 72.1053,134.7421 32.8969,34.0742 81.5979,56.9997 149.4126,57.4913 273.7209,1.985 550.0589,2.2548 823.7558,0.086 -2.855,-11.0099 -20.1429,-44.1224 -26.3688,-57.3711 -26.2593,-55.9043 -53.0237,-118.9659 -71.6909,-178.6346 -31.3491,-100.2083 -40.8231,-177.7423 26.4062,-256.7484 -8.0946,-11.2877 -20.8459,-23.5212 -15.3257,-46.8153 13.802,-58.2233 100.1877,-26.1501 158.8385,-35.4154 9.6985,-4.7422 18.2529,-12.319 32.4023,-15.6319 18.2208,-4.2612 198.9612,-1.9102 230.7914,-1.9503 40.0799,-0.056 45.7311,-0.061 73.1238,18.3489 31.5816,0.9298 49.0592,-2.2789 64.3716,20.5023 16.5259,24.5872 3.7452,42.2976 -8.7576,60.9617 10.9897,17.5768 23.0193,26.0139 33.9956,51.4534 41.895,97.0958 -15.168,237.8571 -54.3149,327.5124 l -51.7726,113.8444 c 195.9137,2.2789 399.422,0.029 596.7791,0.029 64.8474,0 134.9692,2.5166 199.1937,-0.5718 61.0862,-2.9361 106.9055,-33.2567 134.1592,-64.6379 31.2047,-35.9257 74.9308,-146.2008 97.8004,-200.633 22.8214,-54.312 45.7338,-99.4335 23.062,-160.088 -10.1636,-27.1894 -23.324,-43.2808 -41.0582,-59.9412 -0.5721,-0.4381 -1.2752,-1.0713 -1.6575,-1.4026 -32.9877,-21.8301 -98.7307,-54.5257 -138.1529,-70.3152 -91.5237,-20.927 -102.1632,-3.3316 -176.7545,44.1437 -26.4544,-62.327 -88.936,-124.7073 -140.8877,-154.6192 -23.9736,-13.8017 -19.1324,-12.0117 -30.9053,-68.4316 -6.4506,-30.9084 -22.1772,-80.6385 -24.3452,-108.5439 92.5903,8.6802 137.375,-15.1589 181.1573,-63.7509 40.4595,-44.9025 59.3112,-125.9711 29.4431,-195.3058 -18.7448,-43.5131 -128.0241,-166.6415 -164.6929,-210.4032 -20.5144,-24.4803 -39.7938,-46.8046 -57.611,-70.0079 l -113.4763,-136.5561 c -10.5673,-12.7385 -17.36,-20.3367 -28.0235,-33.2621 -14.8739,-18.031 -14.7403,-13.5212 -21.7334,-42.0064 -30.1194,-122.7009 -25.9652,-84.8196 -7.421,-153.2913 38.8823,-143.5799 -49.9013,-407.8116 -49.9013,-356.4517 6.9023,1.7526 -1.1923,-4.6407 1.3339,2.1854 2.8016,7.5714 2.3819,14.5231 8.2764,27.0157 l 1.8338,7.8814 c -0.011,0.3179 -0.1229,1.0954 -0.1203,1.4507 0.035,4.6246 1.3019,8.2046 2.4674,15.7066 12.1847,78.2607 4.9161,146.0298 -23.7009,217.6034 -23.6127,59.0541 -86.6744,167.9934 -125.5593,211.0203 l -57.6324,69.8771 c -35.0141,43.1365 -121.2875,125.1695 -165.3478,160.9937 -3.7693,3.0644 -7.3888,6.3211 -11.0218,9.5458 -17.6968,15.0788 -16.435,11.9075 -31.0069,22.53 -21.9954,16.0326 -70.0361,52.4739 -94.9801,45.02 -21.835,-6.5241 -60.4901,-33.2727 -79.0985,-47.8038 l -46.8672,-37.1173 c -66.7374,-58.234 -133.023,-120.243 -187.4394,-190.0399 -42.7451,-54.8223 -88.7542,-114.2291 -120.0044,-175.8267 -4.9188,-9.6981 -8.0946,-17.7718 -13.6923,-27.4646 -6.4051,-11.0927 -7.854,-19.5378 -13.3983,-30.0694 -4.8546,-9.2306 -8.2443,-19.6553 -11.4949,-28.389 -30.7129,-82.5807 -30.5979,-163.481 -4.8707,-248.8135 6.0496,-20.0561 12.2996,-24.0983 4.7985,-26.2597 -31.6003,33.1926 -62.2464,151.2422 -66.9807,204.9504 -12.7219,144.2371 34.3378,201.6108 25.7701,236.8499 -31.6619,130.2296 -1.2698,85.8749 -91.2938,181.894 l -196.3547,214.5684 c -70.8034,80.2858 -130.6946,129.6151 -164.1876,246.572 -10.7064,37.3978 -15.5369,76.615 -15.0825,115.5783 51.2968,-20.5156 114.0003,-8.5867 153.2114,38.8966 27.2429,32.9922 36.9521,80.7747 27.6947,120.8628 0,17.5394 -0.3502,31.9369 -3.6463,46.4146 0.9517,20.4328 0.3368,38.5199 -17.6674,54.0262 -5.9827,7.0157 -13.1363,11.4026 -20.6615,13.5853 -31.2528,22.9228 -81.0953,75.6425 -94.1568,100.943 z"
     style="fill:#5d2a22;fill-rule:evenodd"
     id="path20" />
  <path
     d="m 2220.5897,1087.5679 c 20.1964,-27.7318 61.26,-60.2271 67.486,-123.1258 6.9263,-69.9732 -25.762,-121.3731 -62.3426,-150.1334 -41.1145,-32.327 -107.09,-47.315 -166.4118,-21.9583 -51.925,22.1961 -72.2282,58.9553 -103.6762,97.1626 0.016,5.2738 -0.1952,10.5103 -0.6122,15.6692 26.9703,9.9225 53.1948,23.0217 78.5451,38.4184 25.762,15.6452 27.5718,22.4071 53.1413,33.2139 53.6974,22.6957 100.8105,62.4152 133.8704,110.7534 z M 1544.1348,887.0871 c -33.0225,-37.3924 -44.7474,-69.2652 -100.8479,-94.376 -148.0467,-66.257 -296.3766,109.0434 -200.9287,246.8392 11.7115,16.9088 29.9964,35.0681 41.4753,51.9289 6.7072,-0.037 13.4945,0.1603 20.3567,0.6144 0.9357,-1.6297 1.8847,-3.238 2.8444,-4.817 29.1784,-47.9988 70.3088,-89.0915 121.2153,-113.5959 10.2305,-4.9239 48.1824,-43.0136 99.546,-64.7261 5.2931,-2.2362 9.6986,-4.0048 13.5988,-5.5757 0.5694,-5.4849 1.4783,-10.9244 2.7401,-16.2918 z"
     style="fill:#7e413c;fill-rule:evenodd"
     id="path22" />
  <path
     d="m 2504.9943,2520.5428 c -6.6027,-30.9084 -22.7003,-80.6385 -24.9194,-108.5439 94.7741,8.6802 140.6152,-15.1589 185.4302,-63.7509 41.4137,-44.9025 60.7101,-125.9711 30.1375,-195.3058 -15.7884,-35.8081 -94.3309,-125.5248 -142.569,-180.5662 H 911.6549 c -70.8481,77.892 -130.6442,127.5179 -164.3389,242.4684 -185.6026,633.1814 602.7446,-12.0198 257.7996,255.3351 382.7059,-229.0273 1448.1245,220.1601 1499.8787,50.3633 z"
     style="fill:#794538;fill-rule:evenodd"
     id="path24" />
  <path
     d="m 1339.7332,1015.152 c 9.816,-3.8868 10.4853,-5.8482 16.147,-12.6304 16.9369,-20.2984 88.7094,-73.7124 114.2444,-80.9646 -10.2472,-32.3051 -74.6334,-99.7354 -138.9232,-53.2332 -33.6478,24.3418 -43.5995,71.2418 -14.6276,114.2399 4.6125,6.8454 6.5179,9.057 12.0108,15.7879 4.1905,5.1341 9.4271,11.0727 11.1486,16.8004 z"
     style="fill:#5d2a22;fill-rule:evenodd"
     id="path26" />
  <path
     d="m 2032.9745,919.2491 3.1414,2.3501 c 28.9538,18.2496 83.0687,47.2313 108.7545,77.2315 7.1178,8.3098 4.1845,8.6743 15.8184,14.5496 l 26.6686,-29.1625 c 5.2728,-6.5924 15.517,-27.2764 17.142,-39.4699 2.4057,-18.0297 -0.6844,-31.1903 -8.0856,-46.3064 -8.1007,-16.5442 -12.1073,-20.1749 -25.6134,-30.0423 -36.0325,-26.3244 -81.8207,-20.6268 -113.3098,19.1896 -6.4275,8.129 -5.3392,8.6593 -12.2038,15.7277 -7.4796,7.7072 -7.2113,7.5716 -12.3123,15.9326 z"
     style="fill:#5d2a22;fill-rule:evenodd"
     id="path28" />
  <path
     d="m 1260.7042,1153.0617 c -26.0819,89.0011 -26.1981,173.3826 4.9388,259.5144 3.2946,9.1104 6.7299,19.9837 11.6534,29.6126 5.6205,10.9833 7.0874,19.792 13.5819,31.363 5.6755,10.1096 8.8937,18.5286 13.8815,28.6446 31.6778,64.2469 78.3221,126.2092 121.6533,183.3916 55.165,72.7979 122.3625,137.4754 190.0183,198.2152 l 47.5122,38.7135 c 18.8631,15.1567 58.0501,43.0534 80.1864,49.8602 25.2873,7.7748 73.9884,-30.2348 96.2866,-46.9564 14.7739,-11.0808 13.4933,-7.7717 31.4334,-23.5003 l 5.3698,-4.9024 c 1.2286,-1.103 4.4957,-3.9597 5.8038,-5.0533 44.6668,-37.3653 132.1271,-122.9283 167.6222,-167.9207 l 58.426,-72.8827 c 39.4193,-44.8761 103.3496,-158.5024 127.286,-220.097 29.0098,-74.6521 36.3783,-145.3382 24.0281,-226.9636 -70.5287,-466.51 -874.1011,-479.3537 -999.6817,-51.0387 z"
     style="fill:#6a352d;fill-rule:evenodd"
     id="path30" />
  <path
     d="m 1348.1024,1107.7748 c -21.3762,76.4292 -21.4714,148.8913 4.0478,222.8566 2.7002,7.8235 5.5156,17.1609 9.5508,25.4296 4.6064,9.4319 5.8087,16.9963 11.1315,26.9328 4.6514,8.6817 7.289,15.9114 11.3769,24.5985 25.9625,55.1717 64.191,108.3815 99.7044,157.4866 45.2121,62.5148 100.2856,118.0562 155.7348,170.2162 l 38.94,33.245 c 15.4598,13.0157 47.5766,36.9718 65.719,42.8172 20.7249,6.6765 60.6393,-25.964 78.9144,-40.3236 12.1083,-9.5156 11.0588,-6.6739 25.7621,-20.1807 l 4.401,-4.21 c 1.0069,-0.9472 3.6846,-3.4003 4.7567,-4.3394 36.6079,-32.0873 108.2884,-105.5641 137.3794,-144.2011 l 47.8847,-62.5876 c 32.3072,-38.5371 84.7031,-136.1131 104.3209,-189.0072 23.7757,-64.107 29.8149,-124.8083 19.6929,-194.9037 -57.8038,-400.613 -716.3942,-411.6425 -819.3173,-43.8292 z"
     style="fill:#794538;fill-rule:evenodd"
     id="path32" />
  <path
     d="m 2317.0791,2335.4503 c 217.7169,188.8268 531.1291,419.0643 720.4624,12.3951 34.9538,-75.0704 -78.5809,-152.4664 -196.6183,-90.7509 -104.8554,60.2335 -126.7299,-1.582 -132.2161,-58.3866 -5.4862,-56.8046 -157.9755,-310.3957 -278.1291,-193.478 -120.1528,116.9155 -108.3832,270.9555 -113.4989,330.2204 z"
     style="fill:#794538;fill-rule:evenodd"
     id="path34" />
  <path
     d="m 806.3957,2705.1513 1.1735,11.2763 c -11.5272,-3.4221 -17.9212,-8.0006 -30.7905,-12.5348 -38.6524,-13.9664 -69.4059,-15.6006 -98.542,-9.7132 267.0773,74.8276 469.5002,292.1926 525.1578,564.2903 125.9528,-0.038 251.8582,-0.522 377.2087,-1.5158 -2.8544,-11.0102 -20.1422,-44.1219 -26.369,-57.3711 -26.2595,-55.904 -53.0236,-118.9658 -71.6906,-178.635 -31.3498,-100.2078 -40.8231,-177.7417 26.406,-256.7486 -8.0942,-11.2867 -20.8466,-23.5199 -15.3257,-46.8149 13.8016,-58.2229 100.1875,-26.1493 158.8386,-35.4159 9.6982,-4.7412 18.2526,-12.3189 32.4019,-15.6316 18.2216,-4.2606 198.9618,-1.9092 230.7911,-1.9491 40.0803,-0.056 45.7315,-0.062 73.1245,18.3482 31.5821,0.9303 49.0594,-2.2789 64.3718,20.5015 16.5257,24.5876 3.7452,42.2985 -8.7572,60.9618 10.9886,17.5778 23.0189,26.0147 33.9942,51.4541 41.8959,97.0964 -15.1674,237.8576 -54.314,327.5123 l -51.7732,113.8445 c 86.7292,1.0086 174.947,1.1298 263.4608,0.9524 57.0411,-197.5571 195.3779,-368.2255 390.1343,-461.9943 87.9781,-42.3577 178.747,-64.6856 272.8365,-71.163 -20.4619,-9.9764 -40.4991,-19.0256 -56.3057,-25.3551 -91.5236,-20.9274 -102.163,-3.3319 -176.7539,44.1426 -26.4548,-62.3267 -88.937,-124.7067 -140.8878,-154.6182 -23.9733,-13.8023 -19.1331,-12.0114 -30.9059,-68.4315 -3.3309,-15.9629 -9.1359,-36.948 -14.2706,-57.3519 H 945.8896 c -0.2352,9.2074 -1.351,18.2803 -3.3619,26.9908 0,17.5393 -0.3507,31.9375 -3.6461,46.4141 0.9515,20.4335 0.3374,38.52 -17.6682,54.0259 -5.9826,7.0172 -13.1356,11.4035 -20.6601,13.5863 -31.2537,22.9224 -81.0959,75.6425 -94.1576,100.9429 z"
     style="fill:#007d61;fill-rule:evenodd"
     id="path36" />
  <path
     d="m 1207.9251,1659.2618 c 179.0863,233.2853 825.9127,298.5739 1077.1004,-53.1778 174.0789,112.317 271.1692,249.4093 304.2707,389.1153 0,0 -202.744,89.8353 -187.2177,205.6753 15.5263,115.84 90.2075,144.3491 91.7201,260.8826 21.9769,30.6503 39.5388,11.7831 30.8419,65.0625 -27.9794,121.1715 -1590.8138,107.402 -1605.3424,5.4255 -5.0607,-35.5196 -15.0141,-78.6745 44.2767,-132.4416 59.2909,-53.7645 117.1705,-209.6809 117.1705,-209.6809 0,0 -112.654,-182.3173 -209.5014,-176.5083 -11.0472,0.663 148.8286,-304.2076 336.6812,-354.3526 z"
     style="fill:#dcc096;fill-rule:evenodd"
     id="path38" />
  <path
     d="m 3024.7407,2263.6215 167.5794,-69.8793 c 26.3128,-10.9732 48.4586,-73.5025 -31.6073,-50.5461 -34.1732,8.885 -145.1865,50.6422 -259.3723,94.8544 l 7.6414,-2.0823 c 8.5085,-0.4348 15.188,-4.2783 24.398,-0.911 13.3428,4.8759 3.4108,8.1589 21.3127,8.1589 12.8634,0 25.7964,2.9578 37.109,9.1483 3.2761,-0.6359 7.0658,-0.5827 11.3585,0.3934 l 10.5861,4.3626 c 4.7514,1.0219 8.4034,3.394 10.9945,6.5011 z"
     style="fill:#94a499;fill-rule:evenodd"
     id="path40" />
  <g
     id="Layer1000"
     transform="translate(0.5715,1.0001)">
    <path
       d="m 2404.4396,2101.2716 c 0.2433,-4.0101 0.5213,-8.0176 0.8501,-12.0224 0.8875,-18.9367 14.1708,-104.6246 14.096,-105.0787 -14.9087,12.4178 -31.7795,81.1674 -34.3966,103.4116 -0.3421,4.149 -0.6282,8.2981 -0.8821,12.4525 -0.786,26.2971 0.5507,53.914 0.048,80.8041 16.2132,-3.3315 1.5451,-15.6906 1.3232,-15.7039 -1.6199,0.4595 0.2273,12.7143 -1.2858,15.7066 20.4342,-13.206 18.0765,-56.102 20.2471,-79.5698 z"
       style="fill:#c1a67a;fill-rule:evenodd"
       id="path42" />
  </g>
  <path
     d="m 2419.9786,1985.1786 c -32.8942,88.2072 -21.2229,121.3437 -31.1219,197.1972 0.7753,-5.9444 -1.2002,-10.5102 -2.8282,-16.2356"
     style="fill:none"
     id="path45" />
  <g
     id="Layer1001"
     transform="translate(0.5715,1.0001)">
    <path
       d="m 2440.0899,2084.4642 c 0.7004,-1.9182 1.4516,-3.8177 2.2429,-5.7013 1.7777,-4.8169 3.256,-9.6126 5.1353,-14.5177 1.6199,-4.0529 12.6872,-26.2917 11.5323,-29.1905 -6.6644,-4.9185 -23.4229,16.7192 -26.5345,21.0473 -1.2378,1.1301 -7.8968,12.351 -8.918,14.7849 -0.9142,2.1774 -1.7803,4.3762 -2.593,6.5937 -0.9784,3.0403 -1.6681,7.0798 -2.0584,10.2297 0.5213,-1.5255 1.366,-2.6823 2.7508,-3.5292 -2.3151,1.822 -3.4833,3.6254 -4.5927,6.3051 -0.4437,0.585 -1.2938,4.8276 -1.4916,5.7894 -0.6282,3.0751 -0.8261,6.8902 -0.8127,10.0481 0.3101,12.6102 15.847,-1.5362 4.6782,-9.0435 -7.7391,5.2177 -1.0747,29.4549 7.3594,11.6617 0.2058,0.048 3.3095,-7.5287 3.5902,-8.2287 0.4571,-1.1434 1.1013,-1.8835 1.7429,-2.8479 0.6309,-0.708 0.409,0.091 -0.5587,0.9297 2.5663,-1.7099 4.0125,-3.6762 4.9268,-6.615 0.035,-0.032 3.3014,-6.8982 3.6008,-7.7158 z"
       style="fill:#c1a67a;fill-rule:evenodd"
       id="path47" />
  </g>
  <path
     d="m 2459.5853,2036.0735 c -13.4571,10.2271 -27.922,40.1362 -31.6057,56.0673 -6.6216,1.3679 -8.001,38.8138 -8.001,6.1395"
     style="fill:none"
     id="path50" />
  <g
     id="Layer1002"
     transform="translate(0.5715,1.0001)">
    <path
       d="m 1073.9243,2134.4772 c -0.7833,-1.9877 -1.5852,-3.9647 -2.4139,-5.931 -3.6998,-7.3417 -21.132,-34.7956 -30.4429,-30.9164 -1.4756,3.6869 9.6397,32.8186 11.6687,38.8138 0.7646,1.8167 1.5077,3.6468 2.2295,5.4822 0.4651,1.1809 4.1836,8.413 4.5659,8.8672 18.8623,42.4338 19.2018,26.0593 18.3544,25.9898 -0.6335,0.077 7.8433,3.2247 -1.3767,-32.0357 -0.6523,-3.043 -1.5558,-7.3471 -2.585,-10.2699 z"
       style="fill:#c1a67a;fill-rule:evenodd"
       id="path52" />
  </g>
  <path
     d="m 1041.6551,2098.6139 c 22.8,22.0732 36.781,85.2818 36.781,79.169"
     style="fill:none"
     id="path55" />
  <g
     id="Layer1003"
     transform="translate(0.5715,1.0001)">
    <path
       d="m 1090.5686,2117.6951 c -0.4759,-3.5052 -0.933,-7.013 -1.3821,-10.5209 -1.4676,-8.8138 -7.3969,-55.6666 -16.4992,-55.9658 -9.4847,0.9992 -4.4269,50.2351 -3.7078,58.5359 0.4544,3.5667 0.9223,7.1306 1.4061,10.692 9.5702,53.4544 28.5048,25.8909 16.4885,15.5971 -11.4387,9.7675 7.9182,26.8073 3.6945,-18.3383 z"
       style="fill:#c1a67a;fill-rule:evenodd"
       id="path57" />
  </g>
  <path
     d="m 1073.2802,2052.2085 c 0,4.0476 14.1441,134.7207 14.1441,84.825"
     style="fill:none"
     id="path60" />
  <g
     id="Layer1004"
     transform="translate(0.5715,1.0001)">
    <path
       d="m 1170.9253,1702.1387 c 0.7655,-0.4077 1.5369,-0.8018 2.3159,-1.1824 3.0504,-1.9648 16.3869,-9.9592 17.1659,-12.1906 -2.1805,-5.9639 -18.8226,-2.8225 -23.6398,-1.0316 -0.926,0.452 -1.8423,0.9196 -2.7528,1.4026 -1.7069,1.0664 -4.0865,3.3036 -5.4861,4.739 -1.5368,1.3196 -5.5635,4.7662 -5.9172,6.8333 -0.1005,0.1739 0.052,0.1604 0.056,0.1701 0.4814,-0.05 0.6302,-0.1063 1.1754,-0.068 0.2319,-0.027 0.6476,0.1527 0.8679,0.2048 0.4388,0.1024 0.7539,0.4985 1.069,0.7071 0.3461,0.2299 0.5181,0.8404 0.6998,1.1341 0.1237,0.2028 0.1276,0.7206 0.1566,0.9582 0.041,0.3458 -0.1431,0.8887 -0.3654,1.1766 -0.9066,-0.3768 0.348,-2.8265 -0.6302,-3.9335 -0.7983,-0.6723 -4.0247,0.6337 -4.6123,1.2171 -0.4002,0.4 -0.404,1.1863 -0.5162,1.6171 -0.064,0.2415 0.1276,0.7805 0.1663,1.0162 0.075,0.4637 0.52,0.8443 0.723,1.1727 0.2068,0.3361 0.8293,0.5487 1.1076,0.7322 0.2165,0.143 0.6979,0.1546 0.9279,0.2164 0.5374,0.1487 1.1618,-0.1411 1.6238,-0.1758 0.095,-0.01 0.7907,-0.1952 0.7984,-0.1932 2.8339,0.033 6.3328,-1.5475 8.9367,-2.6024 0.317,-0.019 5.5866,-1.6325 6.1298,-1.9203 z"
       style="fill:#c1a67a;fill-rule:evenodd"
       id="path62" />
  </g>
  <path
     d="m 1190.9786,1689.7813 c -21.1578,0 -43.8968,23.0868 -34.7783,12.2679"
     style="fill:none"
     id="path65" />
  <g
     id="Layer1005"
     transform="translate(0.5715,1.0001)">
    <path
       d="m 1304.3886,1826.8743 c 0.7592,-1.5121 1.5639,-3.0002 2.4247,-4.4536 2.339,-4.5311 3.4083,-7.2589 6.5253,-11.6992 4.1997,-5.6559 16.4939,-14.4376 16.8307,-16.0058 -3.28,-7.1147 -22.5835,0.7908 -27.7936,4.1143 -4.7584,3.4785 -9.8349,8.2314 -13.0909,13.2193 -1.1013,1.8595 -2.1305,3.7564 -3.0983,5.688 -0.2726,0.5423 -0.4945,1.4373 -0.7431,1.8728 -2.3899,4.1972 -10.3829,36.8581 -6.2153,40.1442 6.5976,5.1991 21.3672,-27.526 24.2944,-31.48 0.2352,-0.318 0.679,-1.0286 0.8661,-1.4 z"
       style="fill:#c1a67a;fill-rule:evenodd"
       id="path67" />
  </g>
  <path
     d="m 1330.7435,1795.7371 c -37.3959,4.0022 -40.7989,52.2014 -50.9252,65.0307"
     style="fill:none"
     id="path70" />
  <g
     id="Layer1006"
     transform="translate(0.5715,1.0001)">
    <path
       d="m 1344.5059,1837.8735 c 0.7806,-1.2503 1.62,-2.4633 2.5236,-3.6281 1.521,-2.2442 2.4727,-3.9273 4.2611,-6.1662 2.5636,-3.1525 4.8279,-5.2524 8.1774,-7.5768 2.1146,-2.1613 13.1417,-6.5028 13.1417,-8.8218 -1.1255,-4.7021 -14.3232,-4.0074 -17.7316,-3.5559 -5.8945,1.1969 -10.2038,2.9708 -15.2642,6.1902 -1.4141,0.5343 -7.4423,5.8536 -8.6854,7.4566 -1.3259,1.7098 -2.5609,3.4918 -3.7051,5.3272 -1.8017,3.1766 -3.2827,7.7345 -4.237,11.229 -8.6667,29.4897 1.7188,29.9385 1.5478,29.9225 -8.8832,0.5797 9.1264,-12.319 14.676,-23.0938 1.7724,-2.6583 3.5421,-4.7956 5.2957,-7.2829 z"
       style="fill:#c1a67a;fill-rule:evenodd"
       id="path72" />
  </g>
  <path
     d="m 1373.1812,1812.7021 c -46.5518,0 -48.0969,61.261 -48.0969,56.5482"
     style="fill:none"
     id="path75" />
  <g
     id="Layer1007"
     transform="translate(0.5715,1.0001)">
    <path
       d="m 2188.0677,1828.6381 c -1.1896,-2.3 -2.4433,-4.5811 -3.7693,-6.8348 -3.2079,-5.0348 -7.9769,-10.479 -12.3477,-14.8892 -5.309,-5.2036 -10.3026,-9.2403 -17.3359,-13.0111 -3.0261,-1.5341 -18.0845,-7.9469 -20.9609,-4.3554 -0.01,1.1922 11.1474,9.2636 13.2513,11.2176 4.3707,4.3954 7.6107,8.544 10.9014,13.4838 3.2881,4.3638 5.3198,9.7447 8.0171,14.3279 1.1896,2.0237 2.3177,4.0726 3.387,6.1406 2.045,3.6822 4.4162,7.3897 6.5173,11.1162 18.9105,40.8293 18.023,23.0281 11.7061,21.8548 -6.8568,7.3919 20.9556,23.6611 5.1915,-26.1721 0.3288,-0.074 -3.7934,-11.4054 -4.5579,-12.8783 z"
       style="fill:#c1a67a;fill-rule:evenodd"
       id="path77" />
  </g>
  <path
     d="m 2134.2308,1790.5308 c 49.634,11.3273 67.1731,107.0014 53.7535,78.1642"
     style="fill:none"
     id="path80" />
  <g
     id="Layer1008"
     transform="translate(0.5715,1.0001)">
    <path
       d="m 2131.8575,1801.5577 c -0.262,-0.3606 -0.9116,-1.1327 -1.0853,-1.456 -0.1684,-0.3099 -0.9463,-1.1942 -1.2137,-1.5175 -5.1246,-4.8704 -21.958,-12.8426 -27.0291,-6.6551 -0.099,2.3831 8.8805,15.2632 11.3506,19.65 0.1069,0.1283 0.6977,0.903 0.7538,0.9431 0.061,0.045 0.6015,0.8042 0.6871,0.9244 3.6997,3.5667 14.0665,15.3406 18.317,15.2284 5.5603,-1.9209 1.1522,-23.0403 -1.7804,-27.1173 z"
       style="fill:#c1a67a;fill-rule:evenodd"
       id="path82" />
  </g>
  <path
     d="m 2103.1089,1792.9078 c 18.3331,6.8982 25.067,19.26 31.1219,36.7593"
     style="fill:none"
     id="path85" />
  <g
     id="Layer1009"
     transform="translate(0.5715,1.0001)">
    <path
       d="m 2276.4129,1703.3585 c -2.1493,-1.635 -4.3895,-3.1472 -6.7286,-4.4964 -6.0629,-3.2059 -12.8021,-4.5364 -19.5948,-4.8998 -8.3699,0.3848 -34.1961,7.4967 -34.3725,15.9685 2.2348,1.6431 20.9368,-2.2682 32.3703,1.0259 5.4801,1.5816 6.9263,2.7117 11.4227,5.541 1.5879,0.9164 3.1143,1.9557 4.5712,3.0644 0.094,0.069 0.655,0.4462 0.7004,0.4622 1.6093,0.5049 13.9383,10.3794 16.3228,12.0224 2.9914,2.124 5.4641,3.6762 8.926,4.9773 3.7211,1.3225 6.6296,1.6938 10.5085,0.7694 -4.0179,-17.2081 -13.4571,-8.2874 -14.104,-5.2845 0,2.6289 11.5216,5.004 13.4169,5.2952 -1.3366,-15.1055 0.778,-8.5118 -3.8414,-12.4739 -0.4785,-0.2805 -4.0794,-4.3308 -4.4296,-4.8464 -4.0098,-5.9284 -9.2814,-11.3224 -14.2991,-16.3745 -0.2299,-0.2325 -0.6015,-0.5477 -0.8688,-0.7508 z"
       style="fill:#c1a67a;fill-rule:evenodd"
       id="path87" />
  </g>
  <path
     d="m 2216.2778,1710.9122 c 54.2774,-26.8822 65.211,25.0868 84.1455,22.6182 -4.4723,0 -8.9446,0 -13.4169,0"
     style="fill:none"
     id="path90" />
  <g
     id="Layer1010"
     transform="translate(0.5715,1.0001)">
    <path
       d="m 2292.3882,1665.4665 c -0.2968,-0.067 -1.8526,-0.358 -1.9889,-0.4275 -0.3101,-0.1496 -3.4886,-0.6278 -4.066,-0.716 -5.6539,-0.8683 -36.6769,1.6992 -36.6769,8.8512 1.7697,5.891 26.5052,9.5485 33.5866,11.2717 0.9731,0.1496 2.2161,0.4595 3.1384,0.553 0.393,0.037 1.0639,0.2218 1.4729,0.3153 5.0124,0.7828 7.985,0.8362 13.0294,2.6877 1.9354,0.8656 3.2961,1.6885 4.8038,3.2006 1.9755,1.2263 4.2879,7.2322 6.1886,7.3952 3.8681,-0.3287 4.0205,-8.8005 3.7398,-11.3973 -0.8367,-4.1998 -2.3444,-7.0745 -5.0631,-10.366 -4.8145,-5.3594 -11.1955,-9.3962 -18.1646,-11.3679 z"
       style="fill:#c1a67a;fill-rule:evenodd"
       id="path92" />
  </g>
  <path
     d="m 2250.2279,1674.1529 c 17.8172,0 64.7245,-3.5052 62.2411,25.4475"
     style="fill:none"
     id="path95" />
  <g
     id="Layer1011"
     transform="translate(0.5715,1.0001)">
    <path
       d="m 1187.0041,1724.3684 c 0.2004,-0.2004 1.12,-1.0526 1.2136,-1.1996 0.1283,-0.2003 1.4248,-1.3679 1.6975,-1.6243 3.9618,-4.5819 17.622,-20.1844 15.7588,-25.7895 -3.5956,-4.988 -26.1523,7.6115 -29.7131,10.9591 -0.6202,0.5824 -1.3313,1.3465 -1.9621,1.8782 -0.4492,0.3767 -0.9918,0.9752 -1.4195,1.4026 -4.4617,5.3807 -16.5073,25.5437 -9.351,31.0099 3.9965,0.1282 19.7124,-13.3423 23.7758,-16.6364 z"
       style="fill:#c1a67a;fill-rule:evenodd"
       id="path97" />
  </g>
  <path
     d="m 1206.2588,1696.7738 c -15.0369,10.8282 -36.3614,27.7104 -42.4376,45.2391"
     style="fill:none"
     id="path100" />
  <g
     id="Layer1012"
     transform="translate(0.5715,1.0001)">
    <path
       d="m 1093.1146,2501.4075 c -1.6307,1.961 -3.24,3.9434 -4.8199,5.9444 -4.4776,6.2036 -8.974,14.6567 -12.1097,21.5816 -2.4487,5.354 -4.3628,10.2805 -5.4134,16.0967 -0.5881,1.969 -1.8712,13.2541 1.9676,13.1312 1.7536,-0.056 6.3168,-8.0631 7.1241,-9.455 3.0101,-4.0155 6.0309,-7.9081 9.2013,-11.8007 4.9696,-5.736 10.3829,-11.293 15.2214,-16.9436 1.473,-1.8648 2.97,-3.7109 4.4911,-5.5383 1.0212,-1.2263 2.8844,-3.8365 3.6516,-5.1269 6.0977,-8.3703 12.7808,-16.7459 18.6031,-25.2177 1.4168,-1.6431 4.1622,-4.6033 5.1593,-6.4734 0.238,-0.3153 0.254,-0.3474 0.4438,-0.668 0.1016,-0.1683 -0.1684,-0.4408 -0.1631,-0.4728 -0.083,-0.1149 -0.1336,-0.2058 -0.1657,-0.3447 -0.037,-0.1175 0,-0.2164 0.072,-0.3072 0.2005,-0.2618 1.0265,0.3339 1.3874,0.35 0.8073,0.035 1.0586,-0.8844 1.1094,-1.5122 0.024,-0.2992 -0.2353,-0.6332 -0.3395,-0.887 -0.1337,-0.3126 -0.6069,-0.5397 -0.7512,-0.7106 -0.3769,-0.4409 -1.4569,-0.4382 -1.8472,-0.5691 -0.3957,-0.1363 -1.8713,0.053 -1.8873,0.045 -3.4271,0.078 -6.7339,1.9637 -9.5969,3.6762 -9.7868,4.9265 -18.7341,12.8747 -26.5801,20.4515 -1.1094,0.8683 -3.7585,3.548 -4.7583,4.7502 z"
       style="fill:#c4c1b2;fill-rule:evenodd"
       id="path102" />
  </g>
  <path
     d="m 1073.2893,2559.1615 c -0.8154,-25.2952 65.6066,-94.5337 65.0693,-81.9983"
     style="fill:none"
     id="path105" />
  <path
     d="m 2633.8189,2832.3699 c -34.8723,71.7525 -230.5882,316.5559 30.8278,387.8116 205.5641,56.0325 250.3354,-15.8109 310.486,-173.099 95.0363,-184.3573 68.8385,-249.2731 -69.4267,-318.8482 -180.5719,-90.8629 -218.0748,-6.5803 -271.8871,104.1356 z"
     style="fill:#6a352d;fill-rule:evenodd"
     id="path107" />
  <path
     d="m 2733.4272,2887.4998 c -41.3445,7.445 -68.5617,19.6988 -93.4214,55.0078 -45.8274,65.0953 -52.0499,157.0813 20.9706,209.6727 64.4617,46.4239 157.458,48.1925 206.7132,-23.1426 18.3659,-26.5986 37.7418,-73.9143 33.5241,-114.5321 -9.7256,-93.6552 -111.0427,-137.2288 -167.7865,-127.0058 z"
     style="fill:#895242;fill-rule:evenodd"
     id="path109" />
  <path
     d="m 2964.5147,2866.2704 c -14.0518,7.3697 -21.9053,34.9836 -30.5486,53.7333 -12.7826,27.7344 8.4293,55.2157 35.4867,40.4401 12.0953,-6.6044 23.9915,-41.0969 29.819,-54.7517 12.3666,-28.9848 -10.6451,-52.0671 -34.7571,-39.4217 z"
     style="fill:#895242;fill-rule:evenodd"
     id="path111" />
  <path
     d="m 2856.8425,2750.6416 c -13.274,7.1257 -22.7223,38.2587 -29.8884,55.1253 -12.2912,28.9245 10.7386,52.9711 36.4636,38.4606 10.2532,-5.7849 23.1171,-41.0427 29.5265,-55.3091 11.1094,-24.7275 -8.6674,-53.0102 -36.1017,-38.2768 z"
     style="fill:#895242;fill-rule:evenodd"
     id="path113" />
  <path
     d="m 2699.0951,2751.0031 c -13.7986,7.0233 -11.2994,10.0061 -17.5731,23.8326 -5.2909,11.6572 -9.2101,19.3162 -13.3554,30.2021 -10.7958,28.346 5.9482,53.206 35.0979,39.8284 11.9776,-5.4956 24.1693,-41.5488 30.0481,-54.5498 11.2119,-24.7757 -5.2457,-54.0587 -34.2175,-39.3133 z"
     style="fill:#895242;fill-rule:evenodd"
     id="path115" />
  <path
     d="m 2785.1364,2737.2971 c -14.5704,6.2188 -46.4364,65.9178 -33.2589,86.4934 5.1975,8.117 15.9963,14.8871 30.4853,10.9853 16.5028,-4.4411 25.945,-35.9417 32.7071,-51.8502 19.1528,-45.068 -14.703,-52.1305 -29.9335,-45.6285 z"
     style="fill:#895242;fill-rule:evenodd"
     id="path117" />
  <path
     d="m 2917.7859,2796.2188 c -14.9713,6.9419 -22.5052,31.7537 -31.5133,53.0886 -15.8577,37.5536 14.1121,50.184 33.8135,41.7808 12.5414,-5.348 24.3503,-40.1719 30.7385,-54.3299 10.6934,-23.703 -3.9463,-54.0256 -33.0387,-40.5395 z"
     style="fill:#895242;fill-rule:evenodd"
     id="path119" />
  <path
     d="m 866.3405,2830.2807 c 34.8724,71.7525 230.5882,316.5559 -30.8278,387.8115 -205.564,56.0326 -250.3354,-15.8108 -310.4859,-173.0989 -95.0363,-184.3573 -68.8386,-249.2731 69.4266,-318.8483 180.572,-90.8628 218.0748,-6.5802 271.8871,104.1357 z"
     style="fill:#6a352d;fill-rule:evenodd"
     id="path121" />
  <path
     d="m 741.5322,3185.5972 c 42.704,0 86.4271,-20.4461 110.286,-40.5697 86.192,-72.691 39.2431,-205.2014 -35.3813,-243.8699 -102.3451,-53.0343 -264.2499,47.2675 -200.566,187.5394 13.9975,30.8257 19.8914,46.0352 43.9009,66.1257 19.0774,15.9627 51.1605,30.7745 81.7604,30.7745 z"
     style="fill:#895242;fill-rule:evenodd"
     id="path123" />
  <path
     d="m 516.8631,2865.7311 c -8.5529,3.8144 -17.2806,7.3034 -16.3129,26.0441 0.5216,10.0784 7.7902,21.8953 11.9867,32.2026 7.5279,18.4786 16.8616,49.235 46.15,37.9243 26.8102,-10.3526 11.5284,-40.2081 3.3192,-58.9217 -5.9993,-13.6819 -15.2999,-50.5516 -45.143,-37.2493 z"
     style="fill:#895242;fill-rule:evenodd"
     id="path125" />
  <path
     d="m 779.1202,2751.44 c -23.5724,13.3204 -9.0775,39.8496 0.404,58.9157 8.2996,16.6979 15.6707,49.5935 45.8485,35.3692 26.2163,-12.3592 10.0783,-42.0038 1.8269,-59.7472 -7.971,-17.1378 -16.9098,-52.1545 -48.0794,-34.5377 z"
     style="fill:#895242;fill-rule:evenodd"
     id="path127" />
  <path
     d="m 624.894,2749.3159 c -30.4943,9.1263 -13.8799,39.5934 -5.8365,57.9997 7.7539,17.7494 14.9833,48.9246 45.342,38.6805 28.9598,-9.7711 12.2429,-40.648 4.9864,-58.0871 -8.5529,-20.5545 -15.2788,-47.3368 -44.4919,-38.5931 z"
     style="fill:#895242;fill-rule:evenodd"
     id="path129" />
  <path
     d="m 564.2672,2795.9115 c -26.8344,12.6876 -13.2288,36.0532 -3.1776,59.2199 7.7329,17.8218 15.8758,48.4818 46.6414,36.1256 27.0997,-10.8859 9.3096,-40.4823 2.1314,-58.8343 -7.3288,-18.7377 -18.3327,-49.4037 -45.5952,-36.5112 z"
     style="fill:#895242;fill-rule:evenodd"
     id="path131" />
  <path
     d="m 697.7578,2737.8485 c -28.4985,12.9678 -11.5556,38.4937 -3.3524,57.9756 8.0886,19.2017 16.0596,48.7589 46.0414,37.2223 25.9843,-10.0001 10.615,-42.6155 2.5505,-60.0305 -8.9116,-19.2408 -16.6083,-48.1955 -45.2395,-35.1674 z"
     style="fill:#895242;fill-rule:evenodd"
     id="path133" />
  <g
     id="Layer1013"
     transform="translate(0.5715,1.0001)">
    <path
       d="m 1218.4226,1753.6657 c -0.3154,-0.3152 -1.6681,-1.782 -1.8926,-1.9262 -0.2112,-0.1363 -1.5051,-1.5923 -1.7777,-1.8889 -4.7343,-4.3788 -24.2971,-24.5658 -28.8924,-24.3494 -6.2981,6.647 8.9741,31.9529 13.9115,38.1431 0.4705,0.5103 1.7537,1.7339 2.0691,2.1961 0.3048,0.4516 1.7323,1.7767 2.2081,2.2496 6.2875,5.4288 31.6726,21.4293 38.4091,13.9727 -0.1684,-3.2273 -20.191,-23.9006 -24.0351,-28.397 z"
       style="fill:#c1a67a;fill-rule:evenodd"
       id="path135" />
  </g>
  <path
     d="m 1186.4528,1726.4933 c 9.6584,21.3358 33.624,48.608 56.5844,56.5481"
     style="fill:none"
     id="path138" />
  <g
     id="Layer1014"
     transform="translate(0.5715,1.0001)">
    <path
       d="m 2467.9885,1797.4376 c -6.1518,-9.0321 -12.4939,-17.9365 -19.0081,-26.7107 -24.4691,-32.3039 -52.1028,-62.2112 -82.1451,-89.3882 -15.7367,-13.9219 -30.866,-26.0984 -49.238,-36.4149 -4.322,-2.3498 -35.6337,-17.4493 -39.781,-10.5743 1.1183,1.894 31.3665,15.2298 35.2218,17.8063 16.2919,11.9681 30.1466,24.7438 44.4209,39.0304 28.5043,29.8291 51.3964,58.2123 75.571,91.3681 6.3525,8.558 12.5382,17.2436 18.5389,26.0516 0.018,0.029 0.047,0.078 0.068,0.1016 26.6509,38.3896 49.5586,75.2239 65.5117,119.535 4.3584,14.3597 7.6871,28.3259 5.7425,43.3968 -1.0739,5.8069 -2.5545,10.0194 -5.9302,14.8806 -1.3685,1.7793 -12.898,11.5409 -12.9319,11.7284 2.8205,2.4723 14.8374,-5.8199 17.2329,-8.0082 4.9736,-5.1296 7.4187,-9.9882 9.4754,-16.7981 4.4679,-16.5662 2.0906,-32.0773 -1.7491,-48.5132 -12.0534,-45.7857 -34.823,-88.1064 -60.9291,-127.387 -0.01,-0.024 -0.055,-0.081 -0.07,-0.1042 z"
       style="fill:#c1a67a;fill-rule:evenodd"
       id="path140" />
  </g>
  <path
     d="m 2278.3878,1635.3288 c 82.2963,0 327.715,328.8099 226.2203,363.9405"
     style="fill:none"
     id="path143" />
  <path
     d="m 1972.9517,1381.5017 c 2.2634,-74.2371 -96.9334,-159.5355 -207.7743,-167.4526 -129.6232,-9.2555 -228.7369,92.3402 -230.3388,161.2193 -0.048,2.0708 0.028,4.1555 0.2051,6.2425 -0.1798,2.0915 -0.2558,4.1808 -0.2074,6.2563 1.6042,68.8791 100.7156,239.7017 230.3411,230.4462 110.8594,-7.9194 210.0676,-162.4839 207.7743,-236.7117 z"
     style="fill:#eabbab;fill-rule:evenodd"
     id="path145" />
  <path
     d="m 1750.6105,1461.8654 c 0.9668,19.1004 -1.9009,31.1783 -18.5815,35.8328 -26.8341,7.4869 -71.841,3.8164 -99.1182,-5.3479 -10.5003,-3.5276 -31.367,-11.2397 -38.7144,-16.7978 1.5821,-3.4874 3.9972,-4.1556 3.6148,-6.6216 -4.8555,-3.8734 -11.3034,7.3495 -8.1066,13.6207 7.0753,0.2149 -1.3567,-5.0106 10.36,0.7251 26.7377,13.0871 30.4263,13.4665 59.2931,19.8302 5.1398,1.1335 14.0252,9.1932 18.3693,13.2955 16.9256,15.9811 37.5568,49.5236 75.6474,50.2618 34.9444,0.6766 47.7597,-27.1171 78.172,-48.5798 l 19.3483,-12.2965 c 8.2319,-3.5519 40.6834,-7.2608 59.5334,-19.5704 3.4455,-2.2502 5.7419,-5.1863 8.3253,-6.7478 1.482,3.7126 0.6368,5.8142 4.7349,5.2937 2.6237,-4.8601 -6.791,-15.2074 -11.7671,-13.1665 -0.5405,4.1116 0.04,1.8175 3.2342,4.7461 -3.6522,7.9532 -27.381,15.3345 -38.1963,18.9135 -13.9673,4.6237 -31.827,7.5654 -47.3389,9.0287 -20.1823,1.9035 -56.3132,2.8716 -68.2636,-15.8783 -5.0987,-7.9999 -8.3675,-86.7618 -10.5461,-26.5415 z"
     style="fill:#5d2a22;fill-rule:evenodd"
     id="path147" />
  <path
     d="m 1709.3371,1541.9982 c 3.6559,4.3331 11.266,9.8352 16.3235,12.7432 6.446,3.7061 12.8677,7.0692 22.1813,7.7738 10.7789,0.8158 17.4633,-0.3859 26.0926,-3.2351 2.5685,-0.8485 6.8929,-3.5145 9.7634,-5.1928 0.9117,-0.5317 3.1576,-2.1184 4.1823,-2.9277 4.7705,-3.7668 4.3843,-5.2582 1.3006,-7.7092 -1.9195,-1.526 -1.3669,-0.8467 -3.7372,-1.7867 -3.5035,-1.3886 -4.7751,-2.9193 -7.1136,-3.8519 -4.4021,-1.7558 -14.1618,-2.4903 -19.0351,-1.0148 0.6359,3.749 1.9411,0.4345 2.5377,6.4851 -7.6045,-0.7242 -0.7761,-1.6054 -10.9846,-7.3785 -12.7592,-7.2159 -36.3169,0.2421 -41.5109,6.0946 z"
     style="fill:#b9684e;fill-rule:evenodd"
     id="path149" />
  <path
     d="m 1752.7835,1451.3836 c 9.4053,0.04 16.6309,-9.585 25.5251,-14.5804 15.734,-8.8388 30.9744,-8.4457 50.0481,-12.2216 39.2547,-7.7647 32.7406,-42.7745 10.1494,-62.7007 -18.495,-16.6861 -51.5639,-25.0317 -84.9585,-25.0142 h -0.063 -1.403 -0.063 c -33.392,-0.015 -66.4609,8.3281 -84.9584,25.0142 -22.5912,19.9262 -29.1053,54.936 10.1494,62.7007 19.0737,3.7759 34.3141,3.3828 50.0481,12.2216 8.8942,4.9954 16.1198,14.6204 25.5251,14.5804 z"
     style="fill:#5d2a22;fill-rule:evenodd"
     id="path151" />
  <path
     d="m 3004.6189,2218.6684 c -15.6751,8.1084 -25.2997,25.8325 -24.8784,38.352 35.6064,20.2686 32.9925,18.8714 58.7567,41.881 3.4936,-16.7682 -2.6028,-71.6273 -33.8783,-80.233 z"
     style="fill:#c9a699;fill-rule:evenodd"
     id="path153" />
  <path
     d="m 2964.2411,2249.198 c 0.993,-12.9845 -1.257,-23.6769 -4.0052,-34.5297 -2.1579,-8.523 -4.1301,-18.5133 -12.5485,-22.7048 -6.5233,-2.9126 -11.0294,-1.6318 -11.0362,-1.6361 -18.8393,3.8414 -26.9093,36.1469 -30.7734,51.1272 21.5645,0.3952 33.2165,-1.3981 58.3633,7.7434 z"
     style="fill:#c9a699;fill-rule:evenodd"
     id="path155" />
  <path
     d="m 1903.605,2358.1926 -51.442,-7.823 v -207.385 -63.0184 l 71.5923,4.3327 z"
     style="fill:#632b19;fill-rule:evenodd"
     id="path157" />
  <path
     d="m 1608.0488,2101.9781 50.0654,-26.0219 -0.1223,274.6115 -49.0222,7.6217 z"
     style="fill:#441606;fill-rule:evenodd"
     id="path159" />
  <path
     d="m 1607.3094,2106.1808 156.5445,43.6936 195.9573,-61.5475 -180.5592,-45.6072 z"
     style="fill:#190401;fill-rule:evenodd"
     id="path161" />
  <path
     d="m 1531.0969,2349.2395 v -340.1002 l 224.8255,-107.3998 v 474.3511 c 0,0 -79.1284,-11.1882 -79.1284,-11.1882 0,0 0,-281.9257 0,-281.9257 l -67.8243,22.3753 v 252.8379 z"
     style="fill:#bc3b13;fill-rule:evenodd"
     id="path163" />
  <path
     d="m 1980.3397,2349.3727 v -340.1002 l -224.8255,-107.3999 v 474.3511 c 0,0 79.1284,-11.1882 79.1284,-11.1882 0,0 0,-281.9256 0,-281.9256 l 67.8243,22.3753 v 252.8378 z"
     style="fill:#e30016;fill-rule:evenodd"
     id="path165" />
  <path
     d="m 1254.7672,2601.1212 c 159.8592,-203.166 62.1682,-354.3016 -52.3483,-241.6505 -233.8469,131.0236 -135.1986,-109.6874 -150.6212,-169.347 -15.4226,-59.6597 -198.7727,-93.9055 -276.1949,-1.8255 -196.7996,234.0642 142.3698,744.5053 479.1644,412.823 z"
     style="fill:#794538;fill-rule:evenodd"
     id="path167" />
  <path
     d="m 1891.1178,1099.6117 c -45.4071,9.6816 -65.0038,62.4636 -42.4756,101.9275 h 118.6532 c 30.6206,-57.9709 0.5832,-102.5929 -61.0711,-102.5929 -1.1612,0.2012 -13.9246,0.4127 -15.1065,0.6654 z"
     style="fill:#ffffff;fill-rule:evenodd"
     id="path169" />
  <path
     d="m 1887.9801,1157.6373 a 8.819,7.7986 0 0 1 8.819,7.7985 8.819,7.7986 0 1 1 -8.819,-7.7985 z"
     style="fill:#ffffff;fill-rule:evenodd"
     id="path171" />
  <path
     d="m 1586.6785,1098.6726 c -45.4072,9.6816 -65.0038,62.4636 -42.4757,101.9276 h 118.6532 c 30.6207,-57.971 0.5832,-102.593 -61.0711,-102.593 -1.1612,0.2012 -13.9246,0.4127 -15.1064,0.6654 z"
     style="fill:#ffffff;fill-rule:evenodd"
     id="path173" />
  <path
     d="m 1594.3623,1157.8537 a 8.819,7.7986 0 0 1 8.819,7.7985 8.819,7.7986 0 1 1 -8.819,-7.7985 z"
     style="fill:#ffffff;fill-rule:evenodd"
     id="path175" />
  <path
     d="m 1604.8971,1097.5561 a 47.968,52.2616 0 0 1 47.968,52.2616 47.968,52.2616 0 1 1 -47.968,-52.2616 z"
     style="fill:#531f08;fill-rule:evenodd"
     id="path177" />
  <path
     d="m 1579.7709,1117.4527 a 27.4026,30.116 0 0 1 27.4026,30.1161 27.4026,30.116 0 1 1 -27.4026,-30.1161 z"
     style="fill:#ffffff;fill-rule:evenodd"
     id="path179" />
  <path
     d="m 1911.0618,1097.4141 a 47.968,52.0627 0 0 1 47.9681,52.0627 47.968,52.0627 0 1 1 -47.9681,-52.0627 z"
     style="fill:#531f08;fill-rule:evenodd"
     id="path181" />
  <path
     d="m 1887.9796,1120.4105 a 28.1045,30.8874 0 0 1 28.1045,30.8874 28.1045,30.8874 0 1 1 -28.1045,-30.8874 z"
     style="fill:#ffffff;fill-rule:evenodd"
     id="path183" />
  <path
     d="m 2658.3533,2415.3367 81.7573,-34.0907 c -1.7919,-14.8671 4.4378,-32.7968 12.0806,-44.1057 10.1274,-14.9809 2.2108,-2.8867 8.3946,-15.7188 l 18.7069,-24.5788 c 8.7305,-8.7356 25.6321,-19.5299 38.2973,-24.2622 2.7552,-2.3337 4.8728,-4.6466 7.0273,-6.6313 -102.8954,40.4174 -186.2183,73.7895 -186.2183,73.7895 -0.5194,-0.2056 -441.6012,-7.5792 -441.0981,12.9711 -19.2352,131.091 382.8347,264.6635 461.0524,62.6269 z"
     style="fill:#94a499;fill-rule:evenodd"
     id="path185" />
  <path
     d="m 2893.1469,2242.3299 c 12.7684,-102.7968 -80.7462,4.2237 -76.9255,33.8137 25.0946,-20.2364 50.6419,-28.0222 76.9255,-33.8137 z"
     style="fill:#c9a699;fill-rule:evenodd"
     id="path187" />
  <path
     d="m 2219.0601,2364.528 c 0,0 292.5874,18.7616 408.1378,0 115.5505,-18.7616 -455.355,-28.2182 -408.1378,0 z"
     style="fill:#475256;fill-rule:evenodd"
     id="path189" />
  <path
     d="m 2403.4294,2301.9942 c -29.6807,2.2219 -47.1987,8.7661 -60.2378,17.4225 -17.1965,11.4145 -17.5088,21.3226 -17.4967,38.354 0.021,31.3624 0.058,62.7264 0.036,94.0889 -0.01,6.7545 -2.5533,16.2019 2.9019,21.6425 4.5425,4.5326 19.9742,7.9676 32.792,4.1445 22.7093,-6.7737 -1.8831,-30.7107 27.7491,-34.2701 37.1039,-4.4571 30.5328,18.7066 30.4934,31.0662 -0.024,7.2077 -2.3319,16.0523 5.9859,20.5997 7.9114,4.3252 26.7697,4.5089 35.051,-0.2474 15.5227,-8.9171 -8.903,-31.7387 25.4021,-34.2953 40.6003,-3.0262 16.2171,21.2929 39.8725,27.0046 12.8966,3.1121 27.8067,-0.1125 32.2097,-5.2154 4.2089,-4.8793 2.2773,-17.0744 2.2682,-22.9016 -0.021,-15.8909 0.015,-31.7817 0.015,-47.6725 0,-23.6763 8.6816,-71.1326 -11.896,-88.3328 -10.5586,-8.8253 -29.899,-17.1573 -53.3877,-20.3524 -17.0297,-2.3166 -73.9653,-2.3685 -91.7592,-1.0354 z"
     style="fill:#f3de5e;fill-rule:evenodd"
     id="path191" />
  <path
     d="m 2375.5862,2500.2123 c -16.8087,4.7483 -9.5873,28.2792 6.8244,23.7964 14.6558,-4.0031 9.1031,-28.2964 -6.8244,-23.7964 z"
     style="fill:#f3de5e;fill-rule:evenodd"
     id="path193" />
  <path
     d="m 1507.1102,3259.0064 515.1938,0.073 68.0953,-145.6747 c 51.4889,-114.7201 126.5432,-294.8386 71.4381,-419.0814 -14.4375,-32.5508 -30.2589,-43.3458 -44.7122,-65.838 16.4439,-23.8839 33.2526,-46.5457 11.519,-78.0055 -20.1395,-29.1503 -43.1301,-25.0444 -84.6661,-26.2357 17.3876,20.1944 32.634,32.1923 35.1202,71.4398 1.8756,29.6169 1.372,74.794 0.123,104.8195 -2.8352,68.1435 -102.2402,76.6561 -102.5455,-6.6736 -0.071,-19.9052 2.9858,-28.5181 -8.6403,-42.5362 -38.3242,-46.1988 -88.1516,-13.4436 -92.898,20.1288 -4.1397,29.2853 5.6782,76.579 -6.6378,98.7473 -11.8998,21.4243 -45.3824,37.879 -74.6618,17.9043 -39.3116,-26.8178 -17.1537,-112.268 -22.5306,-185.9092 -4.5799,-62.7152 -102.9262,-73.1709 -102.486,13.1892 0.1982,38.9275 5.8805,65.7878 -18.7795,85.9745 -27.0311,22.1259 -62.7263,8.2658 -76.4541,-12.4837 -11.8323,-17.8811 -9.5721,-69.6008 -7.2009,-95.5127 3.7631,-41.1868 18.8628,-45.0383 35.2393,-70.0673 -77.1441,11.8553 -190.7645,-29.185 -208.9175,45.3159 -7.2603,29.8058 9.5087,45.4624 20.1554,59.9046 -88.4252,101.0952 -75.9624,200.3052 -34.7316,328.5306 24.5528,76.3515 59.7564,157.0442 94.2937,228.5804 8.1883,16.952 30.929,59.3224 34.6841,73.4098 z"
     style="fill:#ca7253;fill-rule:evenodd"
     id="path195" />
  <path
     d="m 1507.3406,2740.9152 c -128.2443,22.2072 -40.9701,89.1539 58.3411,73.1416 29.3815,-4.7371 90.318,-25.3704 51.3752,-55.3877 -22.4474,-17.3049 -73.8704,-23.9591 -109.7163,-17.7539 z"
     style="fill:#ffffff;fill-rule:evenodd"
     id="path197" />
  <path
     d="m 2003.7629,2772.8381 c -41.9654,21.8666 -8.3957,85.6164 35.5155,63.7372 40.8144,-20.3378 12.9475,-88.9947 -35.5155,-63.7372 z"
     style="fill:#f3de5e;fill-rule:evenodd"
     id="path199" />
  <path
     d="m 1906.368,3257.1088 120.7459,0.015 68.0954,-145.6747 c 51.4888,-114.7201 126.5432,-294.8386 71.438,-419.0814 -14.4375,-32.5508 -30.2588,-43.3458 -44.7122,-65.8379 16.4439,-23.884 33.2526,-46.5458 11.5191,-78.0055 -20.1396,-29.1504 -43.1301,-25.0444 -84.6662,-26.2357 -170.4266,-1.8467 -399.8881,-2.1475 -444.3703,-1.7349 -170.05,-0.8058 -194.8487,-13.3319 -211.1419,45.8479 -7.2604,29.8096 8.9416,47.6407 19.5883,62.0828 249.1807,1.7118 602.9449,0.7248 604.5905,2.3248 168.5194,174.0425 -116.3129,606.6909 -111.0866,626.2992 z"
     style="fill:#ab5f47;fill-rule:evenodd"
     id="path201" />
  <path
     d="m 1820.8918,2820.3055 c -29.0956,10.2106 -13.3642,51.653 15.779,41.5863 26.4358,-9.1326 13.6127,-51.8998 -15.779,-41.5863 z"
     style="fill:#f3de5e;fill-rule:evenodd"
     id="path203" />
  <path
     d="m 1601.6261,2523.2651 c -16.3765,25.029 -31.4762,28.8805 -35.2393,70.0673 -2.3712,25.9119 -4.6314,77.6316 7.2009,95.5127 13.7278,20.7495 49.423,34.6096 76.4541,12.4837 24.66,-20.1867 18.9777,-47.047 18.7795,-85.9745 -0.4402,-86.3601 97.9061,-75.9044 102.486,-13.1892 5.3769,73.6412 -16.781,159.0914 22.5306,185.9092 29.2794,19.9747 62.762,3.52 74.6618,-17.9043 12.316,-22.1683 2.4981,-69.462 6.6378,-98.7473 4.7464,-33.5724 54.5738,-66.3276 92.898,-20.1288 11.6261,14.0181 8.5689,22.631 8.6403,42.5362 0.3053,83.3297 99.7103,74.8171 102.5455,6.6736 1.249,-30.0255 1.7526,-75.2026 -0.123,-104.8195 -2.4862,-39.2475 -17.7326,-51.2454 -35.1202,-71.4398 -36.0323,-23.5562 -43.4632,-23.5485 -96.1813,-23.4791 -41.8651,0.054 -279.5901,-2.9571 -303.5522,2.4982 -18.6129,4.2371 -29.8623,13.9333 -42.6185,20.0016 z"
     style="fill:#f3de5e;fill-rule:evenodd"
     id="path205" />
  <path
     d="m 1269.009,2347.8648 c 41.8717,-94.3501 -56.8967,-14.8592 -63.7937,14.0502 23.774,-13.2999 43.8516,-14.7051 63.7937,-14.0502 z"
     style="fill:#c9a699;fill-rule:evenodd"
     id="path207" />
  <path
     d="m 1478.0552,2263.2597 c -2.9724,0.801 -5.8977,0.2963 -8.977,0 l -0.6907,16.7325 c -41.0229,0.1716 -67.4641,-0.01 -107.9951,3.635 l -0.5239,0.047 -0.5218,0.049 -0.5239,0.049 -0.5217,0.051 -0.5239,0.051 -0.5218,0.053 -0.5218,0.053 -0.5217,0.053 -0.5218,0.055 -0.5218,0.055 -0.5217,0.055 -0.5218,0.057 -0.5218,0.057 -0.5196,0.057 -0.5218,0.059 -0.5217,0.059 -0.5197,0.059 -0.5217,0.059 -0.5197,0.059 -0.5196,0.061 -0.5196,0.061 -0.5218,0.061 -0.5196,0.061 -0.5196,0.061 -0.5197,0.061 -0.5175,0.063 -0.5196,0.061 -0.5196,0.063 -0.5196,0.061 -0.5175,0.063 -0.5197,0.061 v 0 l -0.5175,0.061 -0.5174,0.061 v 0 l -0.5197,0.061 -0.5175,0.061 -0.5175,0.063 -0.5174,0.061 -0.5175,0.061 -0.5175,0.061 -0.5175,0.059 v 0 l -0.5175,0.059 -1.0328,0.1206 -0.5175,0.059 -1.0329,0.1165 -0.5153,0.057 -0.5154,0.057 v 0 l -0.5154,0.055 v 0 l -0.5153,0.055 -0.5154,0.053 v 0 l -0.5153,0.053 v 0 l -0.5154,0.051 v 0 l -0.5153,0.051 v 0 l -0.5154,0.049 v 0 l -1.0285,0.1001 v 0 l -0.5132,0.049 c -1.0307,0.096 -2.0593,0.1879 -3.0857,0.2717 v 0 l 0.5047,0.055 v 0 l 0.5111,0.053 v 0 l 0.5175,0.049 v 0 l 0.5239,0.047 v 0 l 0.5303,0.045 v 0 l 0.5368,0.041 v 0 l 0.541,0.037 v 0 l 0.5495,0.037 0.5539,0.035 v 0 l 0.5581,0.031 v 0 l 0.5645,0.029 v 0 l 0.5688,0.026 v 0 l 0.5752,0.022 v 0 l 0.5795,0.02 v 0 l 0.5838,0.018 v 0 l 0.5859,0.016 v 0 l 0.5902,0.014 v 0 l 0.5945,0.012 v 0 l 0.5966,0.01 v 0 l 0.6009,0.01 0.6052,0.01 0.6073,0.01 v 0 h 0.6094 0.6116 0.6137 0.6159 1.236 0.6201 0.6202 0.6222 l 0.6223,-0.01 0.6223,-0.01 v 0 l 0.6222,-0.01 v 0 l 0.6222,-0.01 0.6223,-0.01 0.6223,-0.01 0.6201,-0.01 0.6223,-0.012 0.618,-0.01 0.618,-0.012 0.618,-0.012 0.6137,-0.012 0.6137,-0.012 0.6095,-0.014 0.6094,-0.012 0.6052,-0.012 0.603,-0.012 0.6009,-0.012 0.5966,-0.012 0.5923,-0.012 0.5902,-0.01 0.5859,-0.012 0.5817,-0.01 0.5773,-0.01 0.5731,-0.01 0.5688,-0.01 0.5624,-0.01 0.5582,-0.01 h 0.5538 l 0.5474,-0.01 h 0.541 0.5346 0.5304 c 15.4391,-0.01 108.3457,0.5884 110.6659,2.0596 l -7.9441,0.3944 c -3.4172,37.997 -14.5411,72.9557 -31.584,98.223 -9.0625,13.4347 -18.7623,22.8686 -32.0631,32.2023 -10.5422,7.4008 -30.6174,16.3974 -46.6425,18.2691 0,0 -5.2669,1.5018 -5.2669,1.5018 -2.2389,-0.5169 -20.8899,0.8439 -25.2244,1.036 -3.1349,-5.239 -11.3484,-23.8166 -13.0185,-25.7455 -5.8207,9.8425 -9.9628,14.8118 -18.651,20.8314 -26.9138,18.6532 -64.4297,8.308 -79.2295,-21.2891 -18.8756,-37.7416 6.5306,-91.1839 62.6078,-81.6356 -0.9816,-4.1827 -4.1336,-10.6476 -5.9255,-14.9202 l -11.9814,-29.6645 c -2.0914,-5.004 -10.4781,-1.6734 -11.0405,-10.1408 -0.432,-6.5181 6.2697,-7.6338 11.6521,-8.919 35.4331,-8.4654 137.8063,-8.8985 176.7421,-7.977 2.5019,0.059 37.9457,-0.1614 40.2082,1.4487 z m -199.0178,157.0413 c 0,0 21.0204,-12.4519 21.0204,-41.3399 0,-28.8881 -39.6458,-32.4884 -39.6458,-32.4884 0,0 -32.6575,16.6549 -32.6575,36.9142 0,20.2592 17.8962,47.8355 51.2829,36.9141 z"
     style="fill:#ca7253;fill-rule:evenodd"
     id="path209" />
  <path
     d="m 1326.6914,2441.2713 c 9.7339,-0.4332 21.6683,-2.2374 30.4913,-2.5378 16.0251,-1.8717 36.1003,-10.8683 46.6425,-18.2691 13.3008,-9.3337 23.0006,-18.7676 32.0631,-32.2023 17.0429,-25.2673 28.1668,-60.226 31.584,-98.223 l 7.9441,-0.3944 0.4747,-0.082 0.5239,-0.074 0.5731,-0.063 0.618,-0.055 0.665,-0.047 0.7057,-0.039 0.7463,-0.031 0.7869,-0.024 0.8254,-0.016 v 0 l 0.8597,-0.01 0.8938,-0.01 h 0.9259 0.958 l 0.9858,0.01 1.0136,0.012 v 0 l 1.0393,0.014 v 0 l 1.0606,0.018 v 0 l 1.0842,0.022 1.1055,0.025 v 0 l 1.1227,0.027 1.1398,0.029 v 0 l 1.1547,0.029 v 0 l 1.1676,0.031 1.1782,0.031 v 0 l 1.189,0.031 1.1975,0.031 1.2017,0.031 1.2082,0.029 1.2103,0.027 v 0 l 1.2104,0.024 1.2124,0.023 1.2082,0.018 v 0 l 1.2018,0.014 v 0 l 1.1996,0.01 v 0 l 1.189,0.01 h 2.3501 l 1.1568,-0.01 v 0 l 1.1419,-0.012 1.1248,-0.018 1.1077,-0.024 v 0 l 1.0863,-0.033 1.0671,-0.039 v 0 l 1.0414,-0.047 1.0178,-0.057 0.9901,-0.065 0.9623,-0.074 v 0 l 0.9302,-0.084 0.9003,-0.094 0.8639,-0.1042 0.8297,-0.1165 0.7933,-0.1266 0.7527,-0.139 0.7121,-0.1512 0.6693,-0.1635 0.6266,-0.1757 0.5795,-0.19 0.5303,-0.2043 0.4833,-0.2166 v 0 c 0.1518,-0.076 0.2951,-0.1512 0.4298,-0.2309 0.1347,-0.08 0.2609,-0.1614 0.3785,-0.2472 0.1176,-0.086 0.2245,-0.1737 0.3229,-0.2636 0.098,-0.09 0.1882,-0.1839 0.2673,-0.2799 0.079,-0.094 0.1475,-0.1941 0.2074,-0.2942 -6.9348,-4.3093 -53.5196,-5.5619 -65.1888,-6.2566 l 0.6907,-16.7325 c 3.0793,0.2963 6.0046,0.801 8.977,0 6.1029,-1.6449 46.4778,2.2864 55.0699,3.4 7.7239,1.0012 17.3594,2.2109 24.3199,4.9959 3.5455,1.418 7.0481,3.5185 4.929,9.2418 -1.6808,4.5402 -4.9953,3.968 -9.349,5.9766 -1.3943,3.2509 -2.5447,7.7604 -3.77,11.2299 -8.1601,23.0913 -21.5571,55.3753 -31.2761,76.8585 -15.2938,33.8083 -32.8713,70.5426 -52.4055,100.8671 -5.3203,8.261 -7.9399,14.0374 -14.6779,16.1828 -17.7059,5.6395 -63.2514,5.6334 -83.626,1.5059 -12.0755,-2.4458 -10.9186,-3.0404 -17.6075,-13.1261 -4.1293,-6.2279 -8.1558,-12.5499 -11.898,-19.0966 -3.3445,-5.852 -8.6006,-13.7901 -11.0726,-20.0242 z"
     style="fill:#a65036;fill-rule:evenodd"
     id="path211" />
  <path
     d="m 1468.6147,2293.4464 c -2.9823,-2.6326 -122.4026,-3.7003 -142.2478,-3.6857 -14.4303,0.015 -34.4734,1.6344 -48.2469,-0.6216 14.0868,-1.6052 28.2973,-4.6656 42.6452,-6.461 52.0978,-6.5231 86.0847,-6.1977 138.8147,-6.5048 14.9993,1.2432 74.8785,3.4846 83.7924,11.1961 -4.8954,11.5836 -62.441,2.746 -74.7576,6.077 z"
     style="fill:#5d2a22;fill-rule:evenodd"
     id="path213" />
  <path
     d="m 1305.0473,2395.6923 c 7.6742,-11.5449 11.4571,-22.4972 14.9126,-33.8326 2.7141,-8.9018 6.356,-19.0737 1.6074,-26.9178 -8.6051,-14.218 0.22,-3.8938 -8.2619,-6.7133 -17.605,-5.3222 -41.3281,20.7634 -52.4296,32.802 17.6223,10.5258 28.2033,14.3564 44.1715,34.6617 z"
     style="fill:#c9a699;fill-rule:evenodd"
     id="path215" />
  <path
     d="m 1339.922,2407.2327 c -10.0815,1.4554 -20.5259,10.6042 -24.5066,18.8149 9.9868,21.751 9.2234,20.213 13.6647,41.3557 7.2408,-10.0145 22.6841,-47.0224 10.8419,-60.1706 z"
     style="fill:#c9a699;fill-rule:evenodd"
     id="path217" />
  <path
     d="m 1378.8743,2266.1211 c 0,0 -199.1568,-53.9002 -136.6288,-167.9187 62.5281,-114.0185 174.9975,10.0544 225.9192,-114.0185 50.9216,-124.0728 -106.762,-141.8618 -194.396,-151.5076 -87.6339,-9.6458 10.8684,-201.3362 153.4017,-237.7867 142.5333,-36.4504 46.1721,32.3789 142.5052,31.638 96.3331,-0.7409 -64.2634,125.9632 -62.8549,155.9116 1.4086,29.9484 -32.3627,31.4025 30.6443,116.5736 63.007,85.1711 -7.7864,152.8787 -87.4537,190.354 -79.6672,37.4753 -109.6241,129.4531 -71.137,176.7543 z"
     style="fill:#ffffff;fill-opacity:0;fill-rule:evenodd"
     id="path219" />
  <path
     d="m 1693.3634,3040.9295 v -142.9873 h -31.8994 v 21.9222 c 0,10.8816 -18.5295,42.5399 -31.9005,47.4711 v -69.3933 h -31.7087 v 21.3495 c 0,6.8726 -7.4497,12.7903 -11.2705,16.9898 l -34.7646,38.3088 c -9.3607,10.4994 -17.7648,15.4318 -17.7648,29.7497 v 36.5895 h 31.8994 v -49.5715 c 0,-13.7136 5.9223,-20.3956 22.3492,-36.9717 l 9.5513,-9.5456 v 96.0888 h 31.7087 v -34.2987 c 0,-16.2277 22.7316,-42.1273 31.9005,-52.8172 v 87.1159 z m 22.1687,-142.9873 v 142.9873 h 95.5086 v -6.4904 c 0,-16.2277 -15.2808,-24.2457 -15.2808,-41.045 h -16.4279 v 31.6899 h -31.9005 v -47.7259 h 31.9005 v -16.0361 h -31.9005 v -47.5354 h 31.9005 v 31.6899 h 16.4279 c 0,-16.7993 15.2808,-24.8173 15.2808,-41.0439 v -6.4904 z m 16.0456,-16.036 h 18.719 v -19.664 h -18.719 z m 44.889,0 h 18.7202 v -19.664 h -18.7202 z m 168.2968,190.7132 v -47.5354 h -15.8549 v -127.1418 h -31.7087 v 15.8444 c 0,6.6505 -7.2591,12.9504 -11.2705,16.9594 l -34.7646,34.6809 c -9.9338,9.7361 -17.7648,15.2401 -17.7648,29.558 v 30.0991 h -15.6643 v 47.5354 h 15.855 c 1.9098,-10.3089 15.8549,-20.6177 15.8549,-29.399 v -2.2909 h 63.6092 v 2.2909 c 0,8.7813 14.1346,19.0901 15.8538,29.399 z m -47.5636,-47.5354 h -31.9005 v -43.0799 c 0,-13.7136 7.0684,-18.6776 22.3492,-34.1093 l 9.5513,-9.7362 z"
     style="fill:#9a472d;fill-rule:evenodd"
     id="path221" />
  <g
     id="Layer1015"
     transform="translate(0.5715,1.0001)">
    <path
       d="m 617.3885,665.986 c -1.5229,0.9533 -4.0914,3.621 -4.7244,5.4297 -0.633,1.8094 0.2259,3.7439 0.8617,4.7584 l 2.6081,4.7248 c 7.1878,13.1592 7.8848,12.0164 19.6497,30.7866 l 16.2165,25.873 6.9312,10.4944 c 5.6594,8.4655 8.1417,14.6816 12.1162,21.0228 4.2927,6.8484 7.8208,11.3502 10.5233,15.6621 l 13.9909,22.3218 c 2.5441,4.0585 4.8005,6.5306 7.4082,11.2557 2.6078,4.7248 3.531,7.325 5.757,10.8759 3.3387,5.3271 4.9589,6.7848 7.3411,7.7657 2.2229,0.7277 3.5561,0.5994 8.0296,-1.8481 6.7581,-3.8776 9.2319,-6.1327 12.5316,-8.1981 1.0148,-0.6355 2.284,-1.4298 3.2991,-2.0653 2.2843,-1.4305 4.9814,-2.7653 7.2657,-4.1957 1.2688,-0.794 4.1557,-2.9547 4.8192,-5.8425 0.8231,-2.6338 -0.3542,-5.0759 -1.4672,-6.8513 L 686.665,704.9083 c -2.3847,-3.805 -4.4178,-5.3571 -5.2827,-12.9393 -0.608,-4.9171 2.2425,-11.6461 10.1101,-16.5718 l 11.1677,-6.991 c 6.5988,-4.131 18.1787,-11.0273 22.6218,-12.396 4.1893,-1.2099 8.3172,-0.2623 10.5093,1.5442 1.6209,1.4574 6.0386,6.8149 10.3313,13.6636 l 54.6905,87.2565 c 4.1336,6.5953 6.3957,14.7155 13.9849,16.6744 1.2385,0.2845 4.6358,0.6301 9.9654,-2.7066 l 12.0237,-7.8804 c 4.5683,-2.8599 5.9965,-3.4008 7.7732,-4.5131 1.2689,-0.7946 2.5381,-1.5889 3.807,-2.3832 1.5226,-0.9536 2.9506,-1.4944 3.2018,-4.477 0.1895,-0.825 0.2817,-4.061 -3.1521,-8.9756 l -19.393,-28.1218 c -3.2747,-4.6605 -5.6287,-9.5443 -8.3958,-14.5225 -2.6078,-4.7248 -5.5641,-8.878 -8.4256,-13.4434 l -14.0552,-22.9881 c -0.4768,-0.7606 -1.1127,-1.7754 -1.5898,-2.5361 -3.4977,-5.5805 -6.5826,-11.0663 -10.08,-16.6465 -3.18,-5.0733 -6.6134,-9.9872 -9.793,-15.0608 -2.3848,-3.8044 -4.2619,-7.9269 -6.6463,-11.732 l -1.4311,-2.283 c -5.2466,-8.3704 -6.4851,-8.655 -8.616,-12.6184 l -3.3077,-6.4055 -3.2442,-5.7393 c -1.5898,-2.5365 -2.5435,-4.0582 -5.3382,-5.1344 -0.9847,-0.4429 -3.4616,-1.0116 -6.5069,0.895 -1.7767,1.1121 -3.1406,2.3192 -4.7583,3.6853 -1.8718,1.5246 -3.9968,3.2085 -6.0273,4.4796 l -16.0537,9.3437 c -7.7732,4.5128 -9.5804,6.704 -20.494,13.5359 -11.1674,6.9914 -8.3448,4.165 -18.8148,10.0132 -15.5468,9.026 -11.2932,8.482 -32.5181,21.4166 z m 184.037,-110.3845 c -4.6098,2.1804 -8.5264,5.0039 -10.1472,8.2786 -2.7412,5.5938 0.8776,12.8265 2.7468,16.24 l 2.5875,4.7263 c 3.1375,5.1079 5.2447,7.7087 6.6824,10.3342 0.2874,0.5253 1.5813,2.8884 1.8687,3.4134 l 3.3313,6.7081 c 2.0372,4.3449 2.9246,6.5893 4.075,8.6895 3.0681,6.8519 3.7129,6.1581 7.3069,12.7227 l 3.4502,6.3019 c 5.6065,10.24 6.2316,12.6282 10.1127,19.7171 2.5881,4.7264 5.1509,8.7839 8.5764,14.417 7.1139,11.1221 9.2499,18.1419 13.8258,25.8759 l 7.8816,13.7723 c 1.4377,2.6255 3.0193,5.514 4.4567,8.1395 1.0063,1.8382 2.2755,3.5322 3.2817,5.3704 l 6.7078,11.0033 c 0.862,1.5756 2.9192,2.839 4.0198,3.6016 5.6214,3.4087 11.59,-1.9025 15.268,-3.914 l 4.7292,-2.5862 c 2.1015,-1.1491 4.2033,-2.2986 6.3051,-3.448 2.3648,-1.2933 5.136,-2.4671 7.5001,-3.7604 l 28.112,-15.3732 c 6.0428,-3.3044 11.5352,-6.9903 17.5783,-10.2951 6.5678,-3.5915 13.4238,-6.6587 19.9915,-10.2502 l 5.2549,-2.8739 c 9.7207,-5.3159 1.1003,-17.3197 -4.9377,-28.348 -2.0125,-3.6758 -4.6006,-8.4021 -8.2586,-9.4721 -2.0325,-0.5946 -6.3355,-0.971 -13.8107,3.4582 -3.1523,1.7241 -6.281,4.1168 -9.4334,5.8409 -6.0427,3.3045 -12.6355,6.2275 -18.5347,9.7949 -2.7462,1.8426 -7.5943,4.8353 -16.17,8.5016 l -5.0166,2.0606 c -1.4574,0.4566 -3.7033,1.343 -5.9984,0.8922 -2.2951,-0.4508 -3.5643,-2.1449 -4.5458,-3.3143 -1.9627,-2.3381 -4.5505,-7.0645 -4.9817,-7.8521 l -5.0318,-9.1904 c -1.0065,-1.8382 -2.3001,-4.2008 -1.5667,-9.7201 0.5703,-2.6997 2.7909,-4.2559 3.8422,-4.8306 l 10.6775,-4.8154 c 8.169,-3.7848 24.1014,-11.4741 31.4577,-15.4971 3.9409,-2.155 7.8819,-4.3104 10.6728,-8.5662 1.1446,-1.6494 2.0026,-3.8247 0.9463,-7.0002 -0.5994,-1.7191 -3.0931,-7.5201 -4.2429,-9.621 l -6.326,-11.5529 c -2.4436,-4.4637 -4.8131,-6.921 -6.8459,-7.5157 -2.8454,-0.8323 -8.2681,1.1102 -10.6326,2.4031 -2.3647,1.293 -5.8742,4.2356 -10.7472,6.5595 l -4.3475,2.0362 c -2.7712,1.1742 -1.0756,-0.0941 -4.4909,1.7739 -4.2036,2.2986 -6.1619,3.7106 -9.3143,5.4345 l -10.1031,5.8663 c -3.9407,2.155 -9.8643,5.053 -14.7672,2.9575 -2.7265,-1.2388 -4.2828,-3.4581 -5.1455,-5.0334 -0.575,-1.0502 -1.15,-2.1005 -1.7251,-3.1511 -0.575,-1.0499 -1.2688,-1.694 -1.8439,-2.7443 l -1.8442,-2.7446 c -1.413,-1.9567 -3.4258,-5.6331 -2.2358,-9.6954 0.9517,-3.25 4.1738,-6.7179 9.3095,-9.1854 l 40.0087,-19.8321 c 5.3983,-2.6106 6.3748,-5.1918 6.6127,-6.0044 0.8329,-2.8438 -0.9172,-6.6635 -1.9481,-9.1702 l -2.2555,-6.6136 c -0.7439,-1.9821 -0.7933,-3.3197 -2.2558,-6.614 -2.0127,-3.6764 -1.4621,-3.2947 -2.181,-4.6079 -2.1563,-3.9384 -3.9758,-6.0139 -6.2956,-7.1336 -3.4204,-1.8825 -5.1163,-0.6143 -6.9552,0.3913 l -9.1707,5.6977 c -3.5342,2.2742 -8.9572,4.2157 -13.83,6.5396 -1.5765,0.8621 -3.1527,1.7241 -4.7292,2.5862 -9.7207,5.316 -19.2736,11.5634 -29.1379,16.6167 z M 970.5043,531.369 c 4.1979,11.8504 4.4624,10.804 10.2596,27.1685 1.0994,3.1039 2.0163,6.5896 3.1157,9.6932 1.9171,6.3073 3.7334,12.3323 5.9325,18.5395 1.4989,4.2324 3.0982,8.7465 4.5974,12.9786 1.1995,3.3862 2.4988,7.0541 3.416,10.5398 0.6168,2.6388 1.1345,4.996 2.034,7.5356 l 13.0933,36.9615 c 3.8982,11.0042 5.2273,11.1683 8.615,9.9701 l 1.6941,-0.5998 c 6.493,-2.2972 7.7872,-4.0252 11.557,-5.0416 l 2.6411,-0.6165 c 2.923,-0.7173 10.4634,-2.7497 12.7217,-3.549 6.211,-2.1975 7.4228,-3.2614 8.3343,-5.1715 1.1944,-2.0103 1.5239,-4.6668 -1.0572,-11.0562 l -3.0808,-7.8005 c -2.8812,-7.2359 -4.2454,-9.2934 -6.1445,-14.6543 l -0.4996,-1.4108 c -1.1995,-3.3856 -2.8162,-8.8467 1.631,-14.2298 3.1527,-3.6555 10.1105,-6.435 13.5987,-7.3516 l 5.1816,-1.516 c 1.4115,-0.4996 3.2053,-0.8167 4.7169,-1.0341 2.0761,-0.4172 4.4349,-0.934 6.4109,-1.6332 23.7145,-8.3907 44.5953,-26.5741 49.2916,-49.1918 3.8367,-17.8685 -2.213,-37.6363 -5.7111,-47.5113 -3.3982,-9.5931 -6.344,-15.2189 -9.9371,-19.9798 -2.9107,-3.7332 -7.2505,-7.913 -11.2906,-11.2463 -7.1159,-5.7377 -10.3563,-6.8136 -21.1248,-10.3062 -26.8707,-8.591 -56.5494,0.005 -70.1829,5.4639 l -21.7211,8.6375 c -23.979,9.4372 -30.055,13.8097 -32.3434,18.1121 -1.094,2.2923 -2.1535,6.4772 0.0456,12.6844 3.498,9.875 5.7095,11.6331 7.8081,17.5583 z m 45.1881,-15.0361 c -0.9993,-2.8216 -2.6164,-8.2824 -0.5453,-14.0951 2.2533,-6.1952 11.8517,-9.5912 14.3929,-10.4903 17.3036,-6.7576 28.337,-4.3111 31.8597,-3.3346 7.3278,1.8525 9.2744,4.6563 11.885,7.5423 2.8112,3.4505 6.3868,7.266 8.086,12.0624 4.2977,12.1327 1.9443,18.0456 -0.4911,24.6225 -1.6237,4.3848 -2.8007,7.3411 -7.9298,11.6958 -4.9468,3.973 -9.5458,6.2354 -14.9103,8.1335 -10.4456,3.696 -19.4152,5.2817 -25.7662,-0.0913 -4.0398,-3.3333 -8.9325,-11.7626 -11.0489,-18.6342 z m 127.8592,-42.5027 6.7698,22.3461 c 5.5679,19.2663 2.8701,11.0102 8.1893,29.4138 l 4.4047,15.2408 c 3.0745,10.6389 3.8995,11.3359 5.8939,18.2369 1.7451,6.0387 1.8087,13.8091 4.4235,21.7778 l 3.8167,11.0486 c 0.3324,1.1497 0.7477,2.5878 1.4958,5.1759 l 1.4127,4.8883 c 0.083,0.2876 0.9973,3.4508 3.2224,4.6778 1.483,0.8181 3.6634,0.8117 3.9511,0.7284 2.0973,-0.2937 11.3045,-2.9512 12.7432,-3.3669 l 12.4106,-4.5172 c 3.3694,-1.2841 3.5357,-0.7091 5.9208,-1.0861 0.5753,-0.1657 1.1507,-0.332 1.7264,-0.4983 1.4383,-0.4151 3.862,-1.7375 4.7637,-2.9322 1.515,-2.3071 0.7224,-6.1283 0.058,-8.4285 -4.0725,-14.0903 -2.9855,-8.1734 -4.9415,-16.0201 l -12.5614,-47.7791 c -0.3327,-1.1501 -0.665,-2.3008 -0.9974,-3.4505 -0.665,-2.3005 -1.042,-4.6839 -1.707,-6.9844 -0.665,-2.3007 -2.4931,-8.6267 2.3983,-10.0385 2.8774,-0.8307 7.5315,1.2524 9.4692,2.5628 l 4.6988,3.3168 c 10.2236,7.3297 7.6218,3.7189 14.7953,9.1254 l 9.5649,7.2084 c 7.9149,5.8156 11.0033,6.793 12.0323,7.119 1.6884,0.4477 4.4438,0.275 6.1704,-0.2234 1.7264,-0.498 3.4908,-1.9421 4.1048,-3.0538 1.72,-2.6775 2.0014,-4.9396 4.0034,-9.8789 l 6.5794,-14.9844 c 5.9668,-13.8724 4.9434,-12.0196 7.9358,-15.6872 0.6967,-0.824 1.6814,-1.7317 2.8324,-2.0638 0.288,-0.083 0.9464,0.0384 2.7174,0.7731 2.8004,1.061 4.1691,4.7162 4.8334,7.0163 l 14.9142,50.5273 c 0.9973,3.4502 1.6363,11.0545 3.2987,16.8055 1.0804,3.7382 2.6084,5.7896 4.9548,6.3583 1.688,0.4477 2.8387,0.1153 4.2777,-0.3 l 30.499,-8.8042 c 8.9192,-2.5745 6.6694,-12.5177 5.0904,-17.9813 l -1.5791,-5.4633 c -1.9114,-6.614 -2.935,-4.7609 -4.8908,-12.6079 l -1.2083,-5.259 c -2.6658,-11.3806 -3.0425,-13.7643 -3.9568,-16.9275 l -0.6647,-2.3001 c -6.1499,-21.2794 -5.8882,-16.0588 -9.922,-31.0943 -2.704,-10.4352 -1.5087,-9.5341 -9.3079,-32.2063 -5.6448,-17.3749 -2.2944,-11.1765 -6.6992,-26.417 l -7.8122,-27.03 -1.8731,-7.5594 c -0.7927,-3.8212 -2.7297,-5.1313 -3.8424,-5.745 -3.0497,-1.9234 -3.3824,-3.0735 -14.6866,-0.1219 l -21.1701,5.488 c -2.5894,0.7474 -4.1051,3.0541 -4.7188,4.1659 -0.8183,1.4827 -2.5707,7.285 -2.8137,8.6011 l -4.0547,20.486 c -1.0553,4.9777 -3.21,13.7001 -3.7797,16.0452 -0.4473,1.6871 -1.2657,3.1692 -1.7134,4.8563 -1.388,3.8278 -2.4046,7.8597 -3.5043,11.6042 l -2.2834,7.2014 c -1.426,4.7733 -2.2444,6.256 -2.775,7.6551 -1.2664,3.1695 -1.0167,4.0322 -1.6691,6.09 -1.3876,3.8275 -2.1677,4.3636 -2.7433,4.5299 -2.5894,0.7477 -13.0173,-6.2116 -15.4087,-8.0134 -7.8322,-5.5282 -21.7255,-15.8484 -27.1279,-20.52 -2.9281,-2.5814 -21.6935,-18.9729 -24.6216,-21.5547 -6.3102,-5.6553 -9.9806,-8.6461 -14.8717,-7.2343 -2.5897,0.7477 -4.8084,1.6997 -7.3978,2.4471 -1.1507,0.332 -2.097,0.2937 -3.248,0.6261 -2.5897,0.7477 -5.0958,1.7824 -7.6855,2.5301 -2.3017,0.6641 -4.4821,0.6707 -6.7008,1.6225 -3.6574,1.3674 -4.8851,3.5915 -5.2941,4.3325 -2.2511,4.0766 -1.0874,8.1021 0.038,13.0737 0.3323,1.1504 0.6647,2.3004 0.997,3.4508 0.1663,0.5751 0.7037,1.3548 0.8697,1.9301 0.9524,2.2171 1.6171,4.5176 2.2817,6.818 2.9921,10.3519 3.1011,5.336 5.6389,15.1958 z m 339.0459,62.7876 c 7.4029,-1.1596 9.2877,-3.9736 10.0556,-6.2614 1.1812,-3.2851 0.5412,-6.5145 -0.099,-9.7445 l -2.7342,-13.7995 c -0.2325,-1.1745 -0.4651,-2.349 -0.6983,-3.5234 -0.2908,-1.4682 -0.2297,-2.7006 -0.5202,-4.1684 -0.3491,-1.7619 -1.0471,-5.2853 -3.2756,-7.2851 -1.8179,-1.471 -3.345,-1.4738 -5.4015,-1.067 l -1.1751,0.2325 c -5.8755,1.1628 -0.7648,0.7617 -5.9949,2.1018 -6.1695,1.2211 -5.7592,1.7501 -7.8157,2.1573 -2.9379,0.5813 -6.7541,-0.1892 -9.9248,-0.7823 -4.1099,-0.7122 -7.81,-0.8953 -12.1524,-2.7817 -8.392,-3.8313 -19.0585,-16.0613 -25.1465,-26.7563 -4.215,-7.4041 -6.7249,-15.4505 -8.4703,-24.2588 -2.6179,-13.2124 0.5731,-23.3029 3.3479,-30.8699 3.0107,-7.9187 5.3087,-11.7298 10.7799,-16.4739 7.8245,-6.7359 16.3471,-9.9476 19.9306,-10.3521 l 5.6401,-0.8111 c 6.2278,-0.927 8.1649,-0.3954 11.3965,-1.0347 1.4687,-0.2909 1.9982,-0.7009 2.705,-1.7559 1.1779,-1.7587 1.5911,-2.7557 0.544,-8.0409 -0.8146,-4.1105 -1.5737,-6.4014 -2.3299,-10.2179 l -0.4655,-2.3489 c -1.1053,-5.5786 0,-1.5265 -1.3937,-8.5732 -2.5041,-11.099 -5.4392,-12.0437 -9.4327,-12.1686 -5.8143,-0.07 -10.3959,-0.0782 -15.39,0.9099 -15.5706,3.0818 -47.2468,12.7069 -64.993,47.9515 -10.0816,19.9975 -10.3025,43.5352 -5.2412,69.0791 3.0833,15.5617 10.0876,38.5852 26.5599,55.4633 9.203,9.4682 17.5367,13.0059 27.4527,18.3665 4.4006,2.1801 12.3212,6.7147 22.1848,8.7297 8.2783,1.7182 24.6663,1.2207 29.954,0.1743 z m 20.4405,-204.6 c -3.2776,0.3333 -4.3481,1.6452 -5.0907,3.2252 -1.2471,2.5337 -1.6311,4.6786 -1.2981,7.9542 l 1.5452,15.1866 c 0.9086,8.9331 1.772,8.5444 2.2009,15.7214 0.035,3.3057 0.04,6.3136 0.404,9.8874 l 1.484,14.5906 c 0.3333,3.2753 0.6967,6.8491 1.3278,10.0943 0.8738,5.6271 1.747,11.2545 2.3226,16.9126 0.121,1.1909 0.2117,2.0844 0.333,3.2753 0.03,0.2978 0.091,0.8931 0.121,1.1913 0.091,0.8934 0.2123,2.0844 0.3029,2.9775 0.061,0.5953 0.1214,1.1912 0.1819,1.7869 0.3028,2.9778 0.3988,6.8788 0.6159,11.9714 0.338,6.2833 0.7619,10.4526 1.2162,14.9189 0.308,5.986 0.52,8.0704 0.5554,11.3761 0.091,0.8932 0.212,2.0844 0.3029,2.9775 1.242,12.2091 3.1096,24.6549 4.0538,36.8941 l 0.5804,8.666 c 0.2725,2.6797 -0.3184,5.7481 2.3679,8.4839 0.985,0.8025 2.9544,2.4075 6.8276,2.0137 1.49,-0.1511 4.1411,-0.7214 5.333,-0.8424 l 8.1053,-0.2218 c 1.4897,-0.1514 3.8431,-0.6916 5.9287,-0.9033 l 9.8019,-1.2967 c 1.1922,-0.121 3.9039,-0.0957 6.0754,-2.4224 2.4395,-2.6547 3.6216,-8.7916 3.3184,-11.7694 l -3.6802,-27.3047 c -0.2424,-2.3822 -0.7528,-4.4365 -1.0557,-7.414 -0.1866,-4.7948 0.7122,-1.8775 0.3742,-8.1607 l -0.6106,-8.9639 c -0.061,-0.5956 -0.3336,-3.2756 1.1514,-6.4346 1.4852,-3.1597 3.5706,-3.3713 4.7621,-3.4927 0.2982,-0.0304 0.8941,-0.0909 1.1919,-0.121 0.2978,-0.0304 0.9245,0.2072 1.2524,0.4746 0.6264,0.237 0.9242,0.2069 1.5502,0.4442 4.0551,1.393 4.6257,4.0426 6.0298,6.006 l 2.0904,2.7959 c 1.3738,1.6659 1.1361,2.2913 3.5247,5.0575 2.7471,3.3311 6.7771,7.4342 8.5092,9.6653 2.3885,2.7659 4.2416,6.1879 6.3631,9.282 1.7618,2.5282 3.4942,4.7589 5.2564,7.2875 3.1362,4.1944 4.9285,7.0208 8.2462,13.0018 1.8534,3.4217 3.3479,6.2788 6.5142,10.7704 1.4039,1.9633 2.4491,3.3615 5.5194,3.952 1.2223,0.1768 2.1157,0.0862 3.9039,-0.0957 1.4894,-0.1514 2.9493,-0.6007 4.439,-0.7518 4.4691,-0.4543 7.8372,0.1061 13.4985,-0.4689 l 14.3017,-1.4533 c 0.5957,-0.0605 1.1919,-0.121 1.7879,-0.1815 1.4897,-0.1514 3.0095,-0.005 4.4992,-0.1562 2.3837,-0.2424 3.1869,-1.2261 4.2574,-2.5387 0.8028,-0.9837 1.5756,-2.2659 1.394,-4.0528 -0.2122,-2.0844 -1.8531,-3.4217 -2.9591,-5.4151 -0.7173,-1.1308 -1.1361,-2.2916 -1.8531,-3.422 -0.3586,-0.5652 -0.7176,-1.1304 -1.0756,-1.6957 -1.4343,-2.2614 -2.7776,-3.6292 -3.8228,-5.0273 -1.7625,-2.5286 -3.2268,-5.0872 -4.989,-7.6161 -1.7628,-2.5286 -4.0905,-4.6991 -6.1511,-7.1973 -6.1809,-7.4947 -6.6656,-12.2594 -11.2355,-18.7147 -4.6303,-7.0509 -1.9694,-1.605 -5.5241,-6.9599 -0.7173,-1.1305 -1.1064,-1.9938 -1.7929,-2.8267 -2.1512,-3.3913 -4.868,-6.4249 -7.317,-9.7864 -5.1966,-6.6922 -12.6045,-17.372 -14.9072,-22.2526 -0.7169,-1.1305 -1.9437,-4.3152 -2.3071,-7.8889 -0.1818,-1.7863 0.6162,-5.7782 1.0303,-7.6256 0.9191,-2.8011 7.7825,-15.2316 9.0301,-17.7652 2.0502,-3.5177 1.0401,-1.6101 4.0706,-7.3332 2.0197,-3.8152 3.6564,-5.4861 4.9639,-7.4241 2.0809,-3.2199 9.4493,-16.6044 12.4192,-22.9228 4.2169,-8.8526 5.4645,-11.3863 6.146,-13.5616 2.3435,-6.556 1.7226,-3.7851 2.9699,-6.3184 1.0097,-1.9079 1.8683,-5.3042 1.6567,-7.3889 -0.1214,-1.191 -0.9293,-3.2148 -2.2118,-3.9872 -3.2522,-2.3775 -10.5191,0.166 -18.862,1.0138 l -6.8529,0.6961 -11.3828,0.555 -3.8731,0.3935 c -2.3838,0.2421 -4.2018,0.1261 -6.1661,1.529 -0.8636,0.3888 -3.3637,2.4478 -5.7373,8.706 -0.9191,2.801 -0.8285,3.6941 -2.2827,7.1513 -1.4549,3.4572 -4.0404,7.6313 -5.7627,11.4164 -1.9896,4.1133 -3.1765,7.2422 -9.0602,17.4674 -7.6969,13.1168 -7.6614,16.4225 -11.1414,20.6872 -2.9138,3.9065 -5.2367,4.7441 -7.0246,4.9257 -1.4893,0.1511 -5.3932,0.2468 -5.8827,-7.5252 l -0.9441,-12.2392 c -0.2421,-2.3822 -0.8127,-5.0317 -1.0551,-7.4139 -0.7524,-4.4365 -1.1763,-8.6053 -1.6307,-13.0721 l -0.3985,-6.8792 c -0.2728,-2.68 0.3532,-2.4424 -0.1011,-6.909 -0.2725,-2.6803 -0.7572,-7.4443 -4.605,-9.7613 -3.192,-1.7818 -7.6608,-1.3278 -16.8673,-0.0912 z m 236.5794,-17.4303 c -10.1808,-0.211 -9.6004,0.6992 -13.7925,0.6124 -2.6946,-0.0561 -4.7784,-0.6983 -8.739,2.513 -7.0049,5.5428 -8.0457,12.4068 -10.3842,24.0339 -6.9773,33.0858 -12.3719,47.6438 -18.2578,71.4711 -0.6425,2.0824 -2.2824,8.9344 -2.6255,11.0225 -2.6189,10.7235 -2.0261,11.035 -3.3168,15.499 -1.6092,5.3553 -3.7801,8.9027 -5.5004,19.6446 -0.9913,4.4701 -1.0655,8.0609 -3.3542,17.2938 l -1.6462,7.1513 c -0.6669,3.2794 -0.7354,6.5709 -1.3966,9.5509 -0.3241,1.1907 -0.6422,2.0825 -0.9666,3.2731 -0.3181,0.8913 -1.3341,6.5589 -1.3528,7.4561 -0.043,2.0949 1.3978,4.8189 2.5647,6.3403 2.6261,3.3475 5.0276,3.0976 9.8123,3.4965 7.4732,0.7534 14.9835,-0.288 22.4567,0.4657 2.0961,0.0434 4.1858,0.3859 6.2816,0.4293 0.5991,0.0123 2.7009,-0.2433 3.3124,-0.8291 1.8274,-1.4593 2.4947,-4.7388 2.8188,-5.9294 1.9646,-8.0425 2.9436,-11.9141 4.8081,-15.1685 2.1769,-3.8466 5.2146,-5.879 8.8327,-7.0018 5.7262,-1.6772 18.3142,-2.0153 26.0995,-1.854 l 7.785,0.1612 c 1.1976,0.0251 10.1614,1.1089 11.9458,1.7448 1.1916,0.3238 2.6635,1.5518 3.787,5.1677 l 5.0666,15.6726 c 0.8485,2.4126 0.5243,3.6032 3.1568,6.6513 1.1666,1.5211 2.3458,2.4437 5.3277,3.1046 2.9816,0.6602 13.4615,0.8776 14.9588,0.9086 l 5.6949,-0.1815 c 7.4922,-0.1435 10.1808,0.211 12.9001,-0.9299 1.5099,-0.5674 3.6368,-2.0207 4.8968,-4.9877 2.2076,-5.3432 0.242,-11.6708 -0.5697,-15.8789 l -5.167,-25.2545 c -0.5494,-2.4066 -0.4997,-4.8002 -1.0487,-7.2065 -0.5307,-3.3041 -1.9653,-6.3276 -2.4963,-9.6317 l -4.0505,-21.3396 c -1.0731,-6.0098 -3.5694,-15.6416 -5.9287,-31.8565 -0.7804,-5.7044 -0.1318,-8.086 -3.801,-18.9394 -2.2523,-6.9324 -2.5269,-8.1354 -3.0389,-12.3371 -1.3294,-8.1109 -2.4462,-12.0256 -4.1247,-17.749 l -2.5023,-9.3323 c -1.6785,-5.7228 -2.2032,-9.3264 -3.3324,-12.6429 -1.1354,-3.0171 -3.4315,-7.8546 -5.1911,-9.6874 -3.2253,-3.3599 -10.9975,-4.1197 -14.2912,-4.1881 -2.3955,-0.0498 -5.0968,0.1936 -7.4919,0.1438 -3.8925,-0.0808 -5.0841,-0.4046 -8.9766,-0.485 z m 24.1045,79.8336 c 1.4039,4.5198 0.7737,6.0038 2.9829,15.0304 1.6598,6.6206 2.5023,9.3326 2.6033,18.9149 -0.068,3.2915 -0.1555,7.4808 -5.5884,9.4638 -3.3251,1.4283 -12.3076,1.242 -15.3016,1.1799 -8.6835,-0.18 -12.2081,-3.5462 -13.0696,-5.3603 -0.8671,-1.5148 -1.3971,-4.8189 -1.3601,-6.6143 0.025,-1.197 0.3428,-2.0889 0.3675,-3.2858 0.013,-0.5982 0.025,-1.1966 0.037,-1.7951 0.069,-3.2921 1.958,-7.7435 3.3111,-15.1996 2.3198,-10.7295 2.0261,-11.0346 3.0175,-15.505 3.3545,-17.2941 8.5196,-20.7798 11.5136,-20.7173 1.1976,0.0244 2.9816,0.6605 3.8614,1.5768 1.46,1.8265 2.8578,6.6457 3.6999,9.357 z m 206.8894,137.7517 c 5.02,0.902 12.383,2.3853 13.4862,-6.8276 0.2845,-2.3774 0.2363,-4.4935 0.5208,-6.8709 0.4271,-3.5662 1.1159,-6.7996 1.543,-10.3658 0.3203,-2.6749 0.3073,-5.0879 0.3304,-7.7983 0.1777,-1.4856 0.059,-3.0073 0.2364,-4.4935 l 1.1263,-11.923 c 1.2324,-12.8148 1.0214,-3.4952 3.619,-25.1899 l 0.9964,-8.3214 c 0.3558,-2.9718 0.379,-5.6819 0.7347,-8.6537 0.877,-9.843 2.6103,-19.2818 3.4873,-29.1248 1.5886,-15.7864 1.0395,-21.2782 3.0453,-35.5076 l 4.6155,-33.5116 c 0.1777,-1.4856 0.6406,-5.3493 -2.3103,-8.4152 -1.6063,-1.6994 -6.2218,-3.4571 -9.1954,-3.8126 l -19.1026,-1.6817 c -4.163,-0.498 -8.3615,-0.6986 -12.5249,-1.1966 -4.1631,-0.4978 -7.9931,-1.2572 -12.1562,-1.7549 -22.3027,-2.6674 -42.9862,-1.2226 -62.1321,10.0528 -18.5157,11.0488 -29.4395,31.7485 -31.4681,48.688 -2.7044,22.5863 -0.2034,31.9291 3.2966,40.4865 5.6419,13.3357 5.487,12.1112 17.9077,21.7353 1.1184,0.7369 3.2839,2.8045 2.8213,6.6681 -0.1422,1.1888 -2.0562,4.5772 -5.053,6.9318 -9.287,7.0281 -14.3422,6.4236 -18.0174,6.8884 -1.522,0.1194 -2.7829,0.5718 -4.3053,0.691 -0.5946,-0.071 -1.5223,0.1194 -2.4145,0.0126 -1.8198,0.084 -1.9266,0.9755 -2.8897,1.4631 -1.3319,1.0465 -2.3436,-0.5813 -3.2332,6.8485 -0.4626,3.863 -0.4141,5.979 -1.0417,13.7415 l -0.7708,8.9515 c -0.6631,8.059 -1.4232,11.8875 1.2657,14.6204 3.51,3.4344 8.2678,4.0034 10.6468,4.2879 5.6499,0.6755 9.5867,0.5434 12.37,-0.0279 9.8716,-1.8337 12.6904,-2.7025 14.284,-3.4166 1.2958,-0.7489 14.4132,-7.0179 21.2502,-13.7361 l 7.836,-7.5037 c 3.4359,-3.5078 13.8768,-10.0968 16.1361,-11.3337 1.6294,-1.0106 3.6755,-0.4651 5.4595,-0.2515 1.4868,0.1777 4.6871,1.1637 6.5193,3.4926 3.3675,4.6231 1.0724,6.1575 0.7879,8.5349 l -2.0413,14.5267 c -1.3646,8.8802 -5.5,20.7449 11.77,20.097 2.117,-0.0479 2.45,-0.3099 3.9371,-0.1318 z m -24.3092,-101.7812 c -0.7601,3.8278 -2.3055,6.6577 -4.1963,7.336 -1.5936,0.7135 -5.233,0.8811 -7.0173,0.6679 -3.5684,-0.4271 -15.9511,-2.8122 -24.3507,-10.7498 -10.304,-9.673 -9.7369,-21.9641 -8.8828,-29.097 1.1029,-9.2126 4.895,-15.6926 12.1486,-20.8536 9.9175,-7.2546 18.3862,-7.4473 24.0364,-6.7718 9.5155,1.138 12.7638,4.2394 13.5974,7.3538 0.4166,1.5568 0.8817,5.2301 0.4188,9.0934 -0.6757,5.6464 -1.6034,5.8372 -2.0279,16.9396 -0.2136,1.7834 -0.628,7.7628 -0.877,9.8427 z m 195.2183,-55.4754 -10.6054,42.0864 c -2.1341,8.7225 -5.6521,16.7983 -8.3676,25.3788 -3.2205,9.3814 -5.206,18.7562 -8.4259,28.1373 -1.4292,4.5807 -6.2271,17.8904 -9.1108,22.1155 -2.0173,3.2047 -6.569,7.9469 -9.5431,8.7608 -1.668,0.5168 -4.3569,0.1676 -9.5937,-1.1117 l -1.4545,-0.3558 c -0.8729,-0.2132 -3.9242,-0.3428 -6.2386,1.5569 -2.6765,2.1189 -2.6641,4.5869 -4.2939,12.5081 l -2.2637,11.7722 c -0.5623,3.5598 -3.3557,11.1968 -1.8109,14.9635 1.1763,2.7529 5.1778,4.0386 13.3236,6.0292 6.9822,1.7064 27.1914,4.7964 42.6171,-4.0674 16.1501,-9.3029 19.5775,-20.7905 23.2311,-30.6821 4.5131,-12.1466 6.9634,-15.8614 11.167,-31.7811 0.9961,-4.0705 2.2111,-7.7792 3.2072,-11.8495 2.0695,-7.1979 4.4298,-14.3241 6.499,-21.5217 l 3.4274,-11.4874 c 1.0731,-3.127 3.7892,-11.7072 6.2392,-15.4223 5.0435,-8.0112 10.144,-4.9161 15.1609,-3.9983 l 4.215,0.4141 c 2.1078,0.2066 10.1111,2.7792 13.0978,4.4333 4.6611,2.3711 6.1349,6.429 6.2189,8.6068 0.083,2.1769 -0.6796,9.0773 -2.6005,16.9275 l -24.4704,100.0156 c -1.8496,7.5597 -6.0979,14.8412 -2.2127,21.6447 0.6596,1.0857 2.7798,3.761 8.8891,5.2538 l 14.0349,3.1217 c 5.2368,1.2793 6.62,1.9256 8.6565,2.4237 1.4546,0.3552 2.9091,0.7109 4.364,1.0664 1.745,0.4265 3.1289,1.0725 5.4433,-0.8266 0.7239,-0.4397 3.1099,-2.6296 4.2416,-8.5158 l 6.6546,-33.5003 c 1.061,-5.595 2.9233,-10.6864 4.5657,-16.1395 1.5711,-5.1623 2.4896,-10.1761 3.7702,-15.4093 l 6.6929,-26.0958 c 0.2132,-0.8722 0.498,-2.0352 0.7112,-2.9075 1.5651,-6.3963 3.3498,-12.4308 4.9149,-18.8272 1.4225,-5.8149 2.5542,-11.7012 3.9771,-17.5161 1.067,-4.3608 2.7161,-8.5796 3.7832,-12.941 l 0.6403,-2.6166 c 2.3473,-9.5947 1.688,-10.6801 3.0456,-14.9705 l 2.2893,-6.8355 1.856,-6.3253 c 0.7113,-2.9072 1.138,-4.6516 -0.039,-7.4042 -0.3681,-1.0144 -1.6864,-3.1856 -5.1778,-4.0388 -12.8003,-3.128 -6.1739,0.0323 -13.3759,-2.0359 l -15.276,-4.3497 c -7.4931,-2.1392 -11.7791,-2.2624 -20.2158,-4.3237 -7.273,-1.7774 -4.7321,-2.0812 -17.3904,-5.7902 -10.4016,-2.8505 -16.4333,-3.3999 -23.7775,-4.8867 -19.7048,-3.8909 -22.0509,-8.162 -30.8956,-4.7771 -3.0447,1.1051 -5.2884,2.7136 -6.5038,6.422 z m 231.0055,37.5305 c -9.671,-3.1856 -9.383,-2.1455 -13.3654,-3.4571 -2.56,-0.8434 -4.3633,-2.0679 -9.0925,-0.1588 -8.3233,3.2462 -11.3325,9.5034 -16.9798,19.9339 -16.3794,29.5858 -25.8084,41.9226 -38.4284,62.9774 -1.2248,1.8024 -4.8034,7.8721 -5.744,9.7682 -5.6502,9.4841 -5.1753,9.9559 -7.7194,13.8452 -3.1099,4.6484 -6.2256,7.4035 -11.0226,17.1686 -2.2596,3.9831 -3.3843,7.3943 -8.2817,15.5509 l -3.6723,6.3539 c -1.6,2.9395 -2.6312,6.0665 -4.1377,8.7218 -0.6596,1.0433 -1.2252,1.8024 -1.8845,2.8457 -0.5658,0.7592 -3.2005,5.8793 -3.4812,6.7319 -0.6565,1.99 -0.078,5.0169 0.5912,6.8129 1.5283,3.9702 3.8975,4.4352 8.3546,6.2186 6.9235,2.911 14.4097,4.1162 21.3332,7.0272 1.991,0.6561 3.8881,1.5961 5.8793,2.2516 0.5687,0.1879 2.6534,0.5589 3.41,0.1781 2.1753,-0.8592 3.7756,-3.7987 4.4349,-4.8423 4.2381,-7.113 6.3101,-10.5274 9.0478,-13.0921 3.2097,-3.0399 6.7103,-4.0927 10.4982,-4.1054 5.9671,0.0748 18.1011,3.441 25.496,5.8774 l 7.3956,2.4357 c 1.138,0.3748 9.3897,4.0382 10.9085,5.1693 1.0443,0.659 2.0914,2.2643 2.1044,6.0504 l 0.2446,16.4684 c 0.1036,2.5549 -0.5561,3.5985 1.0664,7.2841 0.6688,1.7964 1.5255,3.0241 4.1824,4.5296 2.6568,1.5052 12.612,4.7847 14.0343,5.2529 l 5.4981,1.4957 c 7.2046,2.0584 9.671,3.1857 12.6057,2.892 1.6098,-0.1001 4.0696,-0.8656 6.1448,-3.3333 3.6787,-4.4612 3.6562,-11.0866 4.1152,-15.3472 l 2.4709,-25.6585 c 0.1809,-2.4617 0.9309,-4.7359 1.1121,-7.1973 0.4622,-3.3146 -0.023,-6.6254 0.44,-9.94 l 2.3895,-21.5886 c 0.7373,-6.0599 1.1773,-15.9995 3.6799,-32.193 0.9277,-5.6825 2.2469,-7.7694 1.9238,-19.2207 -0.1192,-7.2879 -0.028,-8.5184 0.7147,-12.6856 1.1092,-8.1439 1.1903,-12.2138 1.2648,-18.1773 l 0.3466,-9.6555 c 0.074,-5.963 0.6305,-9.5621 0.524,-13.0639 -0.1999,-3.217 -0.9758,-8.5149 -2.1202,-10.7828 -2.0973,-4.1573 -9.3051,-7.1617 -12.434,-8.1924 -2.2754,-0.7499 -4.9294,-1.3091 -7.2042,-2.0583 -3.698,-1.2179 -4.7422,-1.8769 -8.4399,-3.0951 z m -0.382,83.3881 c 0.016,4.7327 -1.0215,5.9667 -1.5582,15.2442 -0.3561,6.8161 -0.3469,9.6555 -3.0624,18.8456 -1.0312,3.1273 -2.3435,7.107 -8.1195,7.4105 -3.5979,0.3906 -12.1308,-2.4202 -14.975,-3.3571 -8.2488,-2.7171 -10.6303,-6.9682 -10.9215,-8.955 -0.3846,-1.7023 0.078,-5.0169 0.6403,-6.7226 0.3748,-1.1368 0.9404,-1.8962 1.3155,-3.0333 0.1875,-0.5684 0.3748,-1.1368 0.5626,-1.7055 1.0313,-3.127 4.1441,-6.8287 7.6257,-13.5606 5.366,-9.5776 5.1749,-9.9555 7.4348,-13.9386 8.2815,-15.5506 14.2422,-17.3692 17.0866,-16.4323 1.1377,0.3748 2.6569,1.5058 3.2287,2.6397 0.8599,2.1737 0.782,7.1906 0.7915,10.03 z"
       style="fill:#b84622;fill-rule:evenodd"
       id="path223" />
    <path
       d="m 2499.5171,679.0068 c 1.9278,0.8225 3.9732,1.3699 5.9014,2.1924 1.1019,0.4699 1.9282,0.8228 3.0301,1.2926 6.6105,2.8204 18.4882,3.9828 25.9586,3.2649 6.4093,-0.5199 15.7644,-3.3628 24.4419,-13.0034 4.2799,-4.6832 10.9513,-14.2034 14.244,-21.9114 2.2339,-5.2298 2.9737,-10.772 4.5762,-17.5739 1.0553,-4.7567 1.7973,-8.0197 0.965,-12.9314 -1.8233,-10.2159 -6.1558,-15.3187 -7.4561,-16.8496 -1.7333,-2.0416 -3.1907,-3.9653 -2.8381,-4.791 0.2351,-0.5506 1.9247,-1.457 2.5935,-1.4973 4.088,-1.1846 4.5211,-0.6742 8.4513,-2.2519 4.2058,-1.46 8.3312,-4.2559 11.277,-6.5792 4.0854,-3.4644 11.8957,-14.1258 15.0706,-21.5582 1.2933,-3.0279 4.0753,-10.3027 3.6631,-23.8219 -0.087,-5.8951 -1.4399,-17.2117 -10.8949,-29.3818 -8.5884,-11.1496 -24.0563,-20.6781 -35.0739,-25.3788 -9.6405,-4.1133 -11.6457,-3.9926 -16.7618,-6.5006 l -10.7824,-5.2513 -8.9312,-3.4854 c -7.044,-3.3307 -10.114,-5.2912 -13.4191,-6.7014 l -8.814,-3.7607 c -4.9579,-2.1151 -7.2387,-2.1119 -8.3004,-1.9142 -3.46,0.4768 -5.264,3.9378 -6.7924,7.5166 l -9.6422,22.5724 c -2.9398,6.8817 -2.6676,4.7197 -7.5289,15.338 -1.1758,2.7525 -2.2339,5.2301 -3.4097,7.9826 -1.8417,5.0727 -3.8405,9.7522 -5.9572,14.707 -0.9406,2.2025 -3.5709,5.3109 -5.9597,12.428 -1.4882,4.2466 -5.1335,12.78 -8.0733,19.662 -2.2339,5.2301 -5.6876,10.2653 -7.9219,15.4958 -3.1745,7.4323 -5.9163,15.3747 -9.0912,22.8071 -1.8816,4.4048 -5.8824,11.4845 -8.2342,16.9899 -5.5267,12.9381 -6.5414,18.3631 -5.8666,22.8816 1.1485,5.6974 4.7292,7.2248 9.6868,9.3403 l 8.8144,3.7606 c 10.4662,4.4657 20.698,9.4816 31.1645,13.9475 3.8564,1.6453 8.1053,3.1325 11.9614,4.7777 z m 19.2327,-81.617 c 6.7686,3.2135 13.1871,9.5322 14.7284,15.0712 1.0281,3.6929 0.6815,9.0776 -1.6703,14.5831 -2.1163,4.9551 -5.4154,8.1037 -8.519,10.0337 -7.2698,4.0582 -15.4926,1.2008 -24.8573,-2.7947 l -6.8858,-2.9379 c -5.2336,-2.2329 -17.5881,-6.8531 -17.3996,-12.6304 0.1952,-1.2188 0.7829,-2.5951 1.4884,-4.247 0.8231,-1.9266 1.606,-4.5217 3.212,-9.0437 l 1.9586,-5.3477 c 1.7238,-4.797 6.9441,-11.6819 13.2359,-11.9268 3.2246,0.0742 10.2283,2.7368 12.4315,3.6768 z m 8.589,-44.5009 c -9.1298,-4.5461 -13.8122,-6.544 -15.1926,-9.4109 -1.3804,-2.8673 -0.127,-6.5633 0.5383,-8.8831 1.0177,-3.1454 1.5255,-5.8581 2.4659,-8.06 1.4111,-3.3032 4.4314,-8.8492 7.458,-9.8361 4.3233,-1.7352 10.6582,0.9679 12.3111,1.6728 6.0598,2.5856 14.0875,6.6619 19.0081,10.388 2.6774,2.1189 6.4964,5.3756 7.8394,9.8542 0.9876,3.0247 0.5608,7.073 -1.3208,11.4775 -2.5869,6.0561 -6.9875,8.7348 -12.6105,8.9388 -3.8931,-0.0335 -10.2654,-1.1247 -14.5549,-3.2803 z m 158.1592,-12.7328 c -2.8219,-1.6992 -4.4662,-1.2917 -6.0088,-0.4731 -2.5188,1.2787 -4.114,2.7643 -5.8141,5.5844 l -7.8828,13.0749 c -4.6367,7.6906 -3.7126,7.8978 -7.6785,13.8962 -1.9571,2.6657 -3.7591,5.0749 -5.6138,8.1515 l -7.5737,12.562 c -1.7,2.8198 -3.555,5.8961 -4.9985,8.8711 -2.68,5.0254 -5.3603,10.0505 -8.2973,14.9217 -0.6184,1.0255 -1.0819,1.7945 -1.7,2.82 -0.155,0.2567 -0.4635,0.769 -0.6185,1.0256 -0.4635,0.7692 -1.0816,1.7945 -1.5457,2.5637 -0.3086,0.5123 -0.6182,1.0253 -0.9271,1.5382 -1.5457,2.5637 -3.8113,5.7421 -6.6957,9.9457 -3.5022,5.2291 -5.6661,8.8184 -7.9846,12.6637 -3.3478,4.9732 -4.4298,6.7677 -6.3865,9.4337 -0.4635,0.7686 -1.0816,1.7945 -1.5451,2.5634 -6.3374,10.5109 -12.3162,21.5874 -18.9099,31.9443 l -4.7387,7.2803 c -1.3909,2.3071 -3.7059,4.4073 -3.1996,8.2067 0.3057,1.2327 0.9175,3.6976 4.2524,5.7059 1.2828,0.7721 3.7458,1.906 4.7717,2.5242 l 6.6171,4.6835 c 1.2822,0.7721 3.4895,1.7514 5.2849,2.8328 l 8.6201,4.8413 c 1.0259,0.6178 3.18,2.264 6.314,1.7055 3.5452,-0.6606 8.1756,-4.8613 9.7211,-7.4248 l 13.4504,-24.0493 c 1.2365,-2.0508 2.0618,-4.0002 3.6076,-6.5637 2.7298,-3.9476 1.6966,-1.0746 5.1994,-6.3041 l 4.8933,-7.5366 c 0.3093,-0.5126 1.7001,-2.82 4.7847,-4.4567 3.0852,-1.637 4.8806,-0.5557 5.9068,0.0621 0.2563,0.1546 0.7696,0.4635 1.0259,0.6178 0.2569,0.1546 0.6153,0.7198 0.717,1.1307 0.3586,0.5656 0.6146,0.7198 0.9736,1.2851 2.4072,3.5462 1.273,6.0082 1.2172,8.4208 l -0.01,3.4904 c 0.099,2.156 -0.467,2.5143 -0.2171,6.1591 0.1974,4.3122 0.9571,10.0116 1.0034,12.8348 0.25,3.6453 -0.3222,7.4938 -0.4832,11.2408 -0.1086,3.0796 -0.062,5.9031 -0.171,8.9823 -0.01,5.2361 -0.2728,8.5719 -1.21,15.3462 -0.5718,3.8485 -1.0914,7.0303 -1.2559,12.5225 -0.056,2.4122 -0.059,4.1576 2.0423,6.4714 0.8716,0.8741 1.6411,1.3379 3.1802,2.2646 1.2825,0.7724 2.72,1.2882 4.0028,2.061 3.8475,2.3166 6.2056,4.7846 11.0796,7.72 l 12.3127,7.4146 c 0.5132,0.3086 1.0265,0.6181 1.5394,0.9267 1.2825,0.7724 2.4107,1.8014 3.6932,2.5735 2.0521,1.236 3.2855,0.9302 4.9298,0.5225 1.233,-0.3054 2.621,-0.8675 3.5484,-2.406 1.0819,-1.7945 0.5722,-3.8484 0.8842,-6.1064 0.1055,-1.3348 0.467,-2.515 0.5725,-3.8491 0.053,-0.6672 0.1052,-1.3345 0.1578,-2.0017 0.2104,-2.6686 -0.043,-4.5686 -0.04,-6.3136 0.1084,-3.0799 0.4733,-6.0048 0.582,-9.0846 0.1084,-3.0798 -0.4508,-6.2119 -0.5988,-9.4461 -0.4442,-9.7024 2.029,-13.8046 2.2488,-21.709 0.5294,-8.4173 -0.6114,-2.4652 -0.2398,-8.8805 0.1049,-1.3345 0.3121,-2.2583 0.263,-3.3365 0.3155,-4.003 -0.037,-8.0587 0.023,-12.2167 -0.1385,-8.4699 0.3482,-21.4555 1.4361,-26.7408 0.1055,-1.3344 1.036,-4.618 2.891,-7.6943 0.9274,-1.5382 3.9625,-4.253 5.4031,-5.4826 2.4171,-1.689 15.371,-7.517 17.8904,-8.7953 3.7521,-1.5845 1.7989,-0.6641 7.6595,-3.4249 3.9064,-1.8407 6.2186,-2.1959 8.4284,-2.962 3.5979,-1.3278 17.5286,-7.6154 23.6984,-10.8889 8.6885,-4.5527 11.2079,-5.8311 13.0591,-7.1624 5.8111,-3.8389 3.6501,-1.995 6.1695,-3.2734 1.9532,-0.9207 4.6794,-3.1226 5.7614,-4.9174 0.6181,-1.0255 1.1871,-3.1289 0.6251,-4.5163 -1.1742,-3.8516 -8.5146,-6.1752 -15.6973,-10.5008 l -5.8999,-3.5525 -9.4388,-6.3827 -3.3349,-2.008 c -2.0523,-1.236 -3.4365,-2.419 -5.8504,-2.4747 -0.9242,-0.2072 -4.1602,-0.0593 -9.8168,3.5237 -2.4173,1.6889 -2.8808,2.4582 -6.12,4.3515 -3.2395,1.893 -7.8138,3.6812 -11.4643,5.6762 -4.0616,2.0971 -6.8896,3.8887 -17.7357,8.5393 -14.033,5.8774 -15.9894,8.5429 -21.3336,9.8672 -4.6766,1.3775 -7.0379,0.6545 -8.577,-0.2725 -1.2822,-0.7721 -4.4624,-3.0367 -0.1875,-9.5478 l 6.5937,-10.3566 c 1.2365,-2.0511 2.3711,-4.5125 3.6076,-6.5636 2.0616,-4.0002 4.2255,-7.5892 6.544,-11.4348 l 3.8117,-5.7421 c 1.3908,-2.3074 1.7495,-1.7422 4.0677,-5.5878 1.3912,-2.3071 3.8643,-6.409 2.1772,-10.5698 -1.4837,-3.3396 -5.3312,-5.6566 -13.438,-10.1887 z m 193.1399,117.6888 c -8.3559,-5.8159 -8.3777,-4.7368 -11.8188,-7.1313 -2.2114,-1.5395 -3.5896,-3.2281 -8.6673,-2.7504 -8.9043,0.7328 -13.578,5.8689 -21.9732,14.2507 -24.1593,23.6714 -36.7239,32.7988 -54.8395,49.3689 -1.6896,1.3773 -6.8551,6.1714 -8.2988,7.7197 -8.1275,7.4739 -7.8072,8.0616 -11.3578,11.0616 -4.3098,3.5658 -8.0838,5.3156 -15.474,13.3024 -3.3047,3.1714 -5.3584,6.1191 -12.3842,12.5357 l -5.3369,5.0394 c -2.374,2.3597 -4.2569,5.0616 -6.4597,7.1754 -0.9305,0.8117 -1.6896,1.3772 -2.6201,2.1889 -0.7592,0.5656 -4.7486,4.7194 -5.2618,5.4564 -1.1983,1.7191 -1.5097,4.7849 -1.3823,6.6973 0.3288,4.241 2.4664,5.3638 6.2271,8.346 5.802,4.7679 12.6308,8.0619 18.4328,12.8291 1.72,1.1973 3.2693,2.6408 4.9896,3.838 0.4914,0.3419 2.3828,1.2936 3.2167,1.1447 2.3305,-0.2018 4.7048,-2.5615 5.635,-3.3732 6.0957,-5.6049 9.058,-8.2852 12.415,-9.9606 3.9457,-1.9956 7.6012,-2.0045 11.2349,-0.9343 5.6964,1.7764 16.361,8.469 22.751,12.9166 l 6.3897,4.4475 c 0.9831,0.684 7.8423,6.5522 8.9746,8.0701 0.8121,0.9296 1.3564,2.7672 0.2855,6.3992 l -4.4764,15.851 c -0.6317,2.4775 -1.5622,3.2895 -1.062,7.285 0.1277,1.912 0.5972,3.3333 2.712,5.5349 2.1154,2.2019 10.7175,8.1886 11.9461,9.0437 l 4.8408,3.0044 c 6.3152,4.0306 8.3562,5.8159 11.2522,6.3732 1.5715,0.3637 4.1473,0.333 6.8421,-1.439 4.8012,-3.2237 6.6749,-9.5791 8.3334,-13.5309 l 9.7078,-23.8817 c 0.8773,-2.3071 2.2466,-4.2721 3.1245,-6.5789 1.3909,-3.044 1.8737,-6.3554 3.2649,-9.3995 l 8.4655,-20.0048 c 2.4398,-5.596 5.705,-14.9952 12.7353,-29.7981 2.5146,-5.1801 4.3756,-6.8028 7.342,-17.8688 1.9704,-7.0173 2.4092,-8.1709 4.3136,-11.9518 3.3928,-7.4869 4.6345,-11.3638 6.4118,-17.0571 l 3.0938,-9.1534 c 1.7774,-5.6933 3.3396,-8.9828 4.2394,-12.3687 0.7287,-3.1404 1.5008,-8.4389 1.0528,-10.9386 -0.8205,-4.5835 -6.8681,-9.5218 -9.5715,-11.4034 -1.9659,-1.3684 -4.3487,-2.6626 -6.3149,-4.031 -3.1949,-2.2238 -4.0072,-3.1533 -7.202,-5.3771 z m -24.2198,79.7988 c -1.3386,4.5394 -2.6861,5.4256 -5.854,14.1623 -2.2912,6.4302 -3.0941,9.154 -8.3251,17.1845 -1.8829,2.7018 -4.2793,6.1406 -9.9007,4.7808 -3.5592,-0.6533 -10.9323,-5.7848 -13.3899,-7.4954 -7.1269,-4.9605 -8.1934,-9.7147 -7.9038,-11.7018 0.1182,-1.741 1.5097,-4.785 2.5365,-6.2588 0.6847,-0.9825 1.4438,-1.5484 2.1284,-2.5308 0.3422,-0.4911 0.6844,-0.9822 1.0268,-1.4736 1.8829,-2.7018 5.9249,-5.36 11.1867,-10.816 7.882,-7.6449 7.8069,-8.0615 11.1116,-11.2326 12.3843,-12.5351 18.6165,-12.575 21.0741,-10.8642 0.9831,0.684 2.1151,2.2016 2.3388,3.4515 0.2022,2.3293 -1.3075,7.1146 -2.1103,9.838 z"
       style="fill:#b84622;fill-rule:evenodd"
       id="path225" />
  </g>
</svg>
